<svg width="88" height="73" viewBox="0 0 88 73" fill="none" xmlns="http://www.w3.org/2000/svg">
<path d="M24.5814 0.967407C18.2049 0.967407 12.0895 3.46944 7.58056 7.92307C3.07165 12.3767 0.538574 18.4171 0.538574 24.7155C0.538574 26.8745 0.932003 29.0334 1.50029 31.1923H19.3357L24.8874 16.6412C26.1989 13.1869 31.3571 12.8415 33.0183 16.6412L42.0671 39.828L44.6463 33.6966C45.2146 32.2718 46.7446 31.1923 48.6243 31.1923H87.0054C87.5737 29.0334 87.9671 26.8745 87.9671 24.7155C87.9671 18.4171 85.4341 12.3767 80.9251 7.92307C76.4162 3.46944 70.3008 0.967407 63.9243 0.967407C55.7934 0.967407 48.6243 4.983 44.2529 11.0712C39.8814 4.983 32.7123 0.967407 24.5814 0.967407ZM4.91 37.6691C3.75063 37.6691 2.63874 38.124 1.81894 38.9337C0.999134 39.7435 0.538574 40.8417 0.538574 41.9869C0.538574 43.1321 0.999134 44.2303 1.81894 45.0401C2.63874 45.8498 3.75063 46.3047 4.91 46.3047H15.5763L39.8814 70.0529C44.2529 73.9389 44.2529 73.9389 48.6243 70.0529L72.9294 46.3047H83.5957C84.7551 46.3047 85.867 45.8498 86.6868 45.0401C87.5066 44.2303 87.9671 43.1321 87.9671 41.9869C87.9671 40.8417 87.5066 39.7435 86.6868 38.9337C85.867 38.124 84.7551 37.6691 83.5957 37.6691H50.3729L46.3074 47.6001C44.5589 51.9611 39.5317 51.3566 37.9143 47.7296L28.9529 24.7155L24.7563 34.7761C24.1006 36.4169 22.6143 37.6691 20.6471 37.6691H4.91Z" fill="currentColor"/>
</svg>
