<svg width="65" height="73" viewBox="0 0 65 73" fill="none" xmlns="http://www.w3.org/2000/svg">
<path d="M64.4813 25.6098H43.0528V72.4098H35.9099V50.8098H28.767V72.4098H21.6242V25.6098H0.195618L0.195618 18.4098H64.4813V25.6098ZM32.3385 0.40979C34.2329 0.40979 36.0497 1.16836 37.3892 2.51862C38.7288 3.86888 39.4813 5.70023 39.4813 7.60979C39.4813 9.51935 38.7288 11.3507 37.3892 12.701C36.0497 14.0512 34.2329 14.8098 32.3385 14.8098C30.4441 14.8098 28.6273 14.0512 27.2877 12.701C25.9482 11.3507 25.1956 9.51935 25.1956 7.60979C25.1956 3.61379 28.3742 0.40979 32.3385 0.40979Z" fill="currentColor"/>
</svg>
