<?xml version="1.0" encoding="utf-8"?><svg xmlns="http://www.w3.org/2000/svg" xmlns:xlink="http://www.w3.org/1999/xlink"><symbol fill="none" viewBox="0 0 68 73" id="doctor" xmlns="http://www.w3.org/2000/svg"><path d="M33.725.638c-5.838 0-9.332.886-11.553 1.991-1.112.554-1.902 1.136-2.432 1.73-.534.596-.87 1.471-.87 1.471a2.761 2.761 0 0 0-.173.693l-1.479 18.952c-.02.117.02.305 0 .432l-.172 1.905a2.766 2.766 0 0 0 0 .518c0 9.139 7.506 16.616 16.679 16.616 9.173 0 16.679-7.477 16.679-16.616v-.517l-1.651-21.29a2.761 2.761 0 0 0-.173-.693s-.336-.875-.87-1.47c-.53-.598-1.32-1.18-2.432-1.73C43.057 1.52 39.563.637 33.725.637Zm0 44.308C15.378 44.946.367 53.547.367 61.3v11.337h66.716V61.301c0-7.366-13.571-15.48-30.664-16.27a39.874 39.874 0 0 0-2.694-.085Zm0-38.77c5.282 0 7.92.831 9.034 1.385.373.186.417.258.523.346L44.41 22.1c-2.558.155-6.044.692-10.686.692s-8.126-.537-10.686-.692l1.129-14.193c.103-.088.15-.16.523-.346 1.114-.554 3.752-1.384 9.034-1.384Zm-2.26 2.77v3.29h-3.3v4.5h3.303v3.287h4.514v-3.29h3.303v-4.497h-3.303v-3.29h-4.517Zm-6.08 42.23L32.51 67.1H5.927v-5.8c0-2.062 7.088-8.105 19.458-10.123Zm16.68 0c12.37 2.022 19.458 8.062 19.458 10.125V67.1H34.94l7.124-15.923Z" fill="currentColor"/></symbol><symbol fill="none" viewBox="0 0 68 73" id="doctor" xmlns="http://www.w3.org/2000/svg"><path d="M33.725.638c-5.838 0-9.332.886-11.553 1.991-1.112.554-1.902 1.136-2.432 1.73-.534.596-.87 1.471-.87 1.471a2.761 2.761 0 0 0-.173.693l-1.479 18.952c-.02.117.02.305 0 .432l-.172 1.905a2.766 2.766 0 0 0 0 .518c0 9.139 7.506 16.616 16.679 16.616 9.173 0 16.679-7.477 16.679-16.616v-.517l-1.651-21.29a2.761 2.761 0 0 0-.173-.693s-.336-.875-.87-1.47c-.53-.598-1.32-1.18-2.432-1.73C43.057 1.52 39.563.637 33.725.637Zm0 44.308C15.378 44.946.367 53.547.367 61.3v11.337h66.716V61.301c0-7.366-13.571-15.48-30.664-16.27a39.874 39.874 0 0 0-2.694-.085Zm0-38.77c5.282 0 7.92.831 9.034 1.385.373.186.417.258.523.346L44.41 22.1c-2.558.155-6.044.692-10.686.692s-8.126-.537-10.686-.692l1.129-14.193c.103-.088.15-.16.523-.346 1.114-.554 3.752-1.384 9.034-1.384Zm-2.26 2.77v3.29h-3.3v4.5h3.303v3.287h4.514v-3.29h3.303v-4.497h-3.303v-3.29h-4.517Zm-6.08 42.23L32.51 67.1H5.927v-5.8c0-2.062 7.088-8.105 19.458-10.123Zm16.68 0c12.37 2.022 19.458 8.062 19.458 10.125V67.1H34.94l7.124-15.923Z" fill="currentColor"/></symbol><symbol fill="none" viewBox="0 0 88 73" id="heart" xmlns="http://www.w3.org/2000/svg"><path d="M24.581.967c-6.376 0-12.492 2.502-17 6.956A23.601 23.601 0 0 0 .539 24.716c0 2.159.393 4.317.961 6.476h17.836l5.551-14.55c1.312-3.455 6.47-3.8 8.131 0l9.05 23.186 2.578-6.131c.569-1.425 2.099-2.505 3.978-2.505h38.381c.569-2.159.962-4.317.962-6.477a23.601 23.601 0 0 0-7.042-16.792C76.416 3.47 70.301.967 63.925.967c-8.132 0-15.3 4.016-19.672 10.104C39.88 4.983 32.713.967 24.58.967ZM4.91 37.67a4.4 4.4 0 0 0-3.091 1.265 4.291 4.291 0 0 0-1.28 3.053c0 1.145.46 2.243 1.28 3.053a4.4 4.4 0 0 0 3.091 1.265h10.666l24.305 23.748c4.372 3.886 4.372 3.886 8.743 0L72.93 46.305h10.667a4.4 4.4 0 0 0 3.09-1.265 4.291 4.291 0 0 0 1.281-3.053c0-1.145-.46-2.244-1.28-3.053a4.4 4.4 0 0 0-3.091-1.265H50.373L46.307 47.6c-1.748 4.361-6.775 3.757-8.393.13l-8.961-23.014-4.197 10.06c-.655 1.64-2.142 2.893-4.109 2.893H4.91Z" fill="currentColor"/></symbol><symbol fill="none" viewBox="0 0 88 73" id="heart" xmlns="http://www.w3.org/2000/svg"><path d="M24.581.967c-6.376 0-12.492 2.502-17 6.956A23.601 23.601 0 0 0 .539 24.716c0 2.159.393 4.317.961 6.476h17.836l5.551-14.55c1.312-3.455 6.47-3.8 8.131 0l9.05 23.186 2.578-6.131c.569-1.425 2.099-2.505 3.978-2.505h38.381c.569-2.159.962-4.317.962-6.477a23.601 23.601 0 0 0-7.042-16.792C76.416 3.47 70.301.967 63.925.967c-8.132 0-15.3 4.016-19.672 10.104C39.88 4.983 32.713.967 24.58.967ZM4.91 37.67a4.4 4.4 0 0 0-3.091 1.265 4.291 4.291 0 0 0-1.28 3.053c0 1.145.46 2.243 1.28 3.053a4.4 4.4 0 0 0 3.091 1.265h10.666l24.305 23.748c4.372 3.886 4.372 3.886 8.743 0L72.93 46.305h10.667a4.4 4.4 0 0 0 3.09-1.265 4.291 4.291 0 0 0 1.281-3.053c0-1.145-.46-2.244-1.28-3.053a4.4 4.4 0 0 0-3.091-1.265H50.373L46.307 47.6c-1.748 4.361-6.775 3.757-8.393.13l-8.961-23.014-4.197 10.06c-.655 1.64-2.142 2.893-4.109 2.893H4.91Z" fill="currentColor"/></symbol><symbol fill="none" viewBox="0 0 65 73" id="person" xmlns="http://www.w3.org/2000/svg"><path d="M64.481 25.61H43.053v46.8H35.91v-21.6h-7.143v21.6h-7.143v-46.8H.196v-7.2H64.48v7.2ZM32.34.41c1.894 0 3.71.758 5.05 2.109a7.23 7.23 0 0 1 2.092 5.09 7.23 7.23 0 0 1-2.092 5.092 7.114 7.114 0 0 1-5.05 2.109 7.115 7.115 0 0 1-5.051-2.109 7.23 7.23 0 0 1-2.092-5.091c0-3.996 3.178-7.2 7.143-7.2Z" fill="currentColor"/></symbol><symbol fill="none" viewBox="0 0 65 73" id="person" xmlns="http://www.w3.org/2000/svg"><path d="M64.481 25.61H43.053v46.8H35.91v-21.6h-7.143v21.6h-7.143v-46.8H.196v-7.2H64.48v7.2ZM32.34.41c1.894 0 3.71.758 5.05 2.109a7.23 7.23 0 0 1 2.092 5.09 7.23 7.23 0 0 1-2.092 5.092 7.114 7.114 0 0 1-5.05 2.109 7.115 7.115 0 0 1-5.051-2.109 7.23 7.23 0 0 1-2.092-5.091c0-3.996 3.178-7.2 7.143-7.2Z" fill="currentColor"/></symbol><symbol fill="none" viewBox="0 0 41 42" id="play-inline" xmlns="http://www.w3.org/2000/svg"><circle cx="20.415" cy="21" r="20.394" fill="currentColor"/><path d="m27.213 21-10.197 5.887V15.113L27.213 21Z" fill="#fff"/></symbol><symbol fill="none" viewBox="0 0 41 42" id="play-inline" xmlns="http://www.w3.org/2000/svg"><circle cx="20.415" cy="21" r="20.394" fill="currentColor"/><path d="m27.213 21-10.197 5.887V15.113L27.213 21Z" fill="#fff"/></symbol><symbol fill="none" viewBox="0 0 44 44" id="play-outline" xmlns="http://www.w3.org/2000/svg"><circle cx="22" cy="22" r="21.5" stroke="currentColor"/><path d="m18.833 16.515 9.5 5.485-9.5 5.485v-10.97Z" stroke="currentColor"/></symbol><symbol fill="none" viewBox="0 0 44 44" id="play-outline" xmlns="http://www.w3.org/2000/svg"><circle cx="22" cy="22" r="21.5" stroke="currentColor"/><path d="m18.833 16.515 9.5 5.485-9.5 5.485v-10.97Z" stroke="currentColor"/></symbol></svg>