<svg width="334" height="236" viewBox="0 0 334 236" fill="none" xmlns="http://www.w3.org/2000/svg">
<g opacity="0.5">
<path opacity="0.1" d="M111.674 235.185C127.871 235.185 141.001 233.08 141.001 230.484C141.001 227.887 127.871 225.782 111.674 225.782C95.4765 225.782 82.3462 227.887 82.3462 230.484C82.3462 233.08 95.4765 235.185 111.674 235.185Z" fill="#587EEC"/>
<path opacity="0.1" d="M271.093 235.317C291.304 235.317 307.689 233.212 307.689 230.616C307.689 228.019 291.304 225.914 271.093 225.914C250.881 225.914 234.497 228.019 234.497 230.616C234.497 233.212 250.881 235.317 271.093 235.317Z" fill="#587EEC"/>
<path opacity="0.1" d="M5.26562 101.772H35.8119V143.328H7.50189C7.42665 143.754 7.35441 144.184 7.27616 144.614H35.8119V178.128C35.7608 178.113 35.7156 178.095 35.6674 178.077C34.8608 177.758 34.0602 177.422 33.2596 177.061L32.748 176.83C31.9453 176.451 31.1427 176.051 30.3401 175.628C30.0602 175.481 29.7803 175.328 29.5034 175.172C25.0477 172.68 20.9999 169.524 17.5004 165.811C17.3981 165.712 17.3017 165.606 17.1994 165.51C16.7118 164.982 16.2333 164.447 15.7698 163.9L15.2581 163.299C14.7103 162.629 14.1806 161.941 13.6659 161.244C13.5907 161.142 13.5184 161.04 13.4402 160.944C11.347 158.047 9.60904 154.911 8.26337 151.601C8.22123 151.502 8.18511 151.394 8.14599 151.301C7.73264 150.239 7.36645 149.168 7.04741 148.086C6.90896 147.633 6.77653 147.185 6.66216 146.713C6.62003 146.575 6.58391 146.44 6.5508 146.305C4.84124 139.645 4.63959 132.726 4.63959 125.856C4.63959 125.054 4.63959 124.249 4.63959 123.452C4.63959 120.674 4.6727 117.877 4.72085 115.083C4.72085 114.359 4.75095 113.638 4.766 112.911C4.80813 111.066 4.86833 109.222 4.94659 107.377C4.96464 106.864 4.98872 106.353 5.01581 105.842C5.01581 105.548 5.03086 105.253 5.06096 104.959C5.13319 103.89 5.19339 102.829 5.26562 101.772Z" fill="#587EEC"/>
<path opacity="0.1" d="M35.8119 55.5019H19.0565C21.7801 51.2468 24.7561 47.1579 27.9684 43.2571C30.4575 40.2049 33.0851 37.2308 35.8119 34.3649V55.5019Z" fill="#587EEC"/>
<path opacity="0.1" d="M35.8119 56.7877V100.486H5.36194C5.36194 100.36 5.38301 100.23 5.39204 100.104C5.41912 99.7588 5.44621 99.4134 5.47631 99.0709C5.50942 98.6683 5.54553 98.2628 5.58466 97.8692C5.62379 97.4757 5.66593 96.995 5.71107 96.5594C5.75622 96.1238 5.79836 95.6822 5.84952 95.2466C5.90069 94.811 5.94584 94.3754 6.00001 93.9428C6.05419 93.5102 6.10235 93.0716 6.15953 92.639C6.20468 92.2785 6.25283 91.9211 6.30099 91.5606C6.37021 91.0529 6.44245 90.5422 6.5207 90.0375C6.5207 89.9624 6.54177 89.8842 6.55381 89.8121C7.10315 86.1176 7.85167 82.4552 8.7961 78.8411C9.78469 75.0498 11.0471 71.335 12.5734 67.7258C14.1955 63.9501 16.0949 60.2992 18.2558 56.8027L35.8119 56.7877Z" fill="#587EEC"/>
<path opacity="0.1" d="M43.1046 101.769V143.328H108.348V101.769H43.1046ZM43.1046 144.611V180.3C43.4778 180.378 43.848 180.453 44.2152 180.516C44.7148 180.612 45.2115 180.699 45.7201 180.774C45.8164 180.789 45.9158 180.804 46.0211 180.813C46.2197 180.846 46.4244 180.874 46.6231 180.901C47.1257 180.97 47.6253 181.027 48.1279 181.072C48.3657 181.096 48.6065 181.117 48.8473 181.135L49.4282 181.18C49.7442 181.204 50.0572 181.222 50.3672 181.231C50.5598 181.231 50.7525 181.249 50.9511 181.255C51.1016 181.255 51.2521 181.255 51.4086 181.255C51.5651 181.255 51.7878 181.255 51.9775 181.255C52.2363 181.255 52.4951 181.255 52.751 181.255H53.0971C53.3559 181.255 53.6148 181.255 53.8706 181.231H53.8887C54.0662 181.231 54.2468 181.231 54.4274 181.207C54.4775 181.21 54.5278 181.21 54.5779 181.207C54.7284 181.207 54.8789 181.207 55.0234 181.186H55.1287L56.137 181.108C56.4681 181.078 56.8021 181.039 57.1392 181.003L57.8255 180.922C60.6173 180.531 63.3781 179.945 66.0873 179.167C72.1731 177.473 78.1265 175.103 84.2092 173.366C92.0738 171.128 100.763 170.029 108.363 172.765V144.611H43.1046ZM108.348 55.5021V0.174957C101.205 0.0977135 94.0811 0.931602 87.1498 2.65637C70.6291 6.79907 55.8059 15.7844 43.1046 27.2602V55.4991H46.3793V56.7818H43.1046V100.486H108.348V56.7848H59.824V55.5021H108.348ZM192.149 36.8134C188.062 36.6692 183.999 35.3774 180.324 33.3826C173.296 29.5674 167.683 23.6763 161.41 18.7044C148.378 8.3492 132.215 2.10061 115.634 0.550473V55.5021H208.772L209.004 55.2587L192.149 36.8134ZM200.634 35.3113L209.63 45.1648V32.7277C206.617 33.1002 203.978 33.9865 200.646 35.2993L200.634 35.3113ZM209.63 189.162V144.611H190.461C190.409 144.421 190.358 144.229 190.298 144.037C190.355 144.229 190.403 144.421 190.458 144.611H115.646V176.83C116.357 177.356 117.058 177.908 117.753 178.47C118.503 179.071 119.243 179.705 119.987 180.327L120.736 180.946C121.094 181.246 121.455 181.546 121.819 181.829C122.542 182.414 123.271 182.99 124.008 183.559C124.372 183.86 124.745 184.13 125.115 184.412C130.992 188.897 137.192 192.945 143.664 196.522C145.115 197.323 146.579 198.105 148.056 198.868C149.04 199.37 150.03 199.869 151.023 200.352C152.516 201.079 154.021 201.78 155.538 202.455C169.523 208.721 184.312 213.021 199.481 215.232C202.85 215.728 206.232 216.119 209.627 216.403V189.159H209.928L209.63 189.162ZM115.646 56.7848V100.486H209.642V56.7848H115.646ZM115.646 101.769V143.328H209.642V101.769H115.646ZM216.938 32.6737V46.5467L228.42 33.9714C224.616 33.3586 220.788 32.921 216.938 32.6586V32.6737ZM216.938 101.784V143.328H308.36V101.769L216.938 101.784ZM308.026 192.46L308.348 144.611H216.938V216.881C222.826 217.128 228.724 217.058 234.605 216.671H234.707C237.517 216.495 240.313 216.238 243.096 215.902H243.159C258.006 214.177 272.524 210.31 286.259 204.423L308.026 192.46ZM325.988 108.612C325.645 107.804 325.287 107.002 324.923 106.209C324.242 104.707 323.523 103.247 322.783 101.787H315.65V143.328H333.684C333.675 131.564 330.692 119.547 325.997 108.597L325.988 108.612ZM315.65 144.626V185.782C320.73 180.922 325.022 175.361 328.113 169.004C331.83 161.35 333.531 153.061 333.669 144.62L315.65 144.626ZM315.65 89.6741V100.489H322.115C320.159 96.766 318.004 93.1508 315.659 89.659L315.65 89.6741ZM253.648 40.8269C253.172 40.6466 252.697 40.4634 252.218 40.2861C247.171 38.4258 242.014 36.8787 236.775 35.6538L219.204 54.9012L218.867 55.2587L219.093 55.5051H281.63C272.92 49.521 263.53 44.5888 253.657 40.8119L253.648 40.8269ZM283.463 56.7999H218.22L216.938 57.9715V100.486H228.176H228.194H308.372V79.8926C301.119 71.1373 292.748 63.3686 283.472 56.7848L283.463 56.7999Z" fill="#587EEC"/>
<path opacity="0.1" d="M35.8119 78.8291V100.486H5.36194C5.36194 100.36 5.38301 100.231 5.39204 100.104C5.41912 99.7589 5.44621 99.4134 5.47631 99.071C5.50942 98.6684 5.54553 98.2628 5.58466 97.8693C5.62379 97.4758 5.66593 96.9951 5.71107 96.5595C5.75622 96.1239 5.79836 95.6823 5.84952 95.2467C5.90069 94.8111 5.94584 94.3755 6.00001 93.9429C6.05419 93.5103 6.10235 93.0717 6.15953 92.6391C6.20468 92.2786 6.25283 91.9211 6.30099 91.5606C6.37021 91.0529 6.44245 90.5422 6.5207 90.0375C6.5207 89.9624 6.54177 89.8843 6.55381 89.8122C7.10315 86.1176 7.85167 82.4553 8.7961 78.8411L35.8119 78.8291Z" fill="#587EEC"/>
<path opacity="0.1" d="M5.26562 101.772H35.8119V143.328H7.50189C7.42665 143.754 7.35441 144.184 7.27616 144.614H35.8119V178.128C35.7608 178.113 35.7156 178.095 35.6674 178.077C34.8608 177.758 34.0602 177.422 33.2596 177.061L32.748 176.83C31.9453 176.451 31.1427 176.051 30.3401 175.628C30.0602 175.481 29.7803 175.328 29.5034 175.172C25.0477 172.68 20.9999 169.524 17.5004 165.811C17.3981 165.712 17.3017 165.606 17.1994 165.51C16.7118 164.982 16.2333 164.447 15.7698 163.9L15.2581 163.299C14.7103 162.629 14.1806 161.941 13.6659 161.244C13.5907 161.142 13.5184 161.04 13.4402 160.944C11.347 158.047 9.60904 154.911 8.26337 151.601C8.22123 151.502 8.18511 151.394 8.14599 151.301C7.73264 150.239 7.36645 149.168 7.04741 148.086C6.90896 147.633 6.77653 147.185 6.66216 146.713C6.62003 146.575 6.58391 146.44 6.5508 146.305C4.84124 139.645 4.63959 132.726 4.63959 125.856C4.63959 125.054 4.63959 124.249 4.63959 123.452C4.63959 120.674 4.6727 117.877 4.72085 115.083C4.72085 114.359 4.75095 113.638 4.766 112.911C4.80813 111.066 4.86833 109.222 4.94659 107.377C4.96464 106.864 4.98872 106.353 5.01581 105.842C5.01581 105.548 5.03086 105.253 5.06096 104.959C5.13319 103.89 5.19339 102.829 5.26562 101.772Z" fill="#587EEC"/>
<path opacity="0.1" d="M66.0723 63.0423V100.486H43.1046V63.0423H46.3793V50.3649H59.821V63.0423H66.0723Z" fill="#587EEC"/>
<path opacity="0.1" d="M66.0723 101.769H43.1076V143.325H66.0723V101.769Z" fill="#587EEC"/>
<path opacity="0.1" d="M43.1046 144.613H66.0723V179.161C63.363 179.938 60.6022 180.523 57.8104 180.912L57.1242 180.996C56.7871 181.036 56.453 181.069 56.1219 181.102C55.7908 181.135 55.4477 181.159 55.1136 181.18H55.0083C54.8638 181.18 54.7073 181.198 54.5659 181.201H54.4124C54.2318 181.201 54.0512 181.219 53.8706 181.225C53.6148 181.24 53.3589 181.243 53.0971 181.246C52.9857 181.246 52.8804 181.246 52.769 181.246C52.5102 181.246 52.2544 181.246 51.9955 181.246H51.4267C51.2732 181.246 51.1257 181.246 50.9662 181.246L50.3853 181.225C50.0843 181.225 49.7592 181.192 49.4462 181.171L48.8683 181.129L48.149 181.063C47.6434 181.017 47.1407 180.96 46.6441 180.891L46.0422 180.807L45.7412 180.765C45.2385 180.687 44.7419 180.603 44.2363 180.507C43.8661 180.444 43.4989 180.366 43.1257 180.29L43.1046 144.613Z" fill="#587EEC"/>
<path opacity="0.1" d="M209.642 58.6202H190.704V100.483H209.642V58.6202Z" fill="#587EEC"/>
<path opacity="0.1" d="M209.645 101.769V143.328H115.646V125.402H165.714V135.977H190.704V101.769H209.645Z" fill="#587EEC"/>
<path opacity="0.1" d="M209.943 189.171H209.642V216.433C206.251 216.147 202.87 215.757 199.499 215.265C184.323 213.047 169.528 208.738 155.538 202.461C151.499 200.647 147.542 198.666 143.667 196.519C137.195 192.94 130.995 188.893 125.115 184.409C123.638 183.28 122.181 182.124 120.742 180.943C119.746 180.122 118.756 179.281 117.753 178.464C117.058 177.902 116.357 177.35 115.646 176.821V144.614H190.455C190.403 144.421 190.352 144.229 190.298 144.04C190.355 144.229 190.409 144.421 190.461 144.614H209.642V189.153C209.744 189.156 209.844 189.165 209.943 189.171Z" fill="#587EEC"/>
<path opacity="0.1" d="M259.032 55.5019H246.692V51.6746H252.224V40.2739C252.704 40.4482 253.181 40.6274 253.657 40.8117V51.6746H259.032V55.5019Z" fill="#587EEC"/>
<path opacity="0.1" d="M288.763 100.486H228.182C228.182 100.486 228.182 100.486 228.203 100.501L228.176 100.486H216.938V58.6232H220.122V89.5658H234.674V71.2406H246.695V56.7877H259.035V71.2526H271.057V89.5778H288.763V100.486Z" fill="#587EEC"/>
<path opacity="0.1" d="M216.938 101.769V143.328H288.763V101.769H216.938ZM308.26 192.247L308.36 159.352H288.763V144.632H216.938V216.881C222.826 217.128 228.724 217.058 234.605 216.671H234.707C237.517 216.494 240.313 216.238 243.096 215.902H243.159C258.006 214.177 272.524 210.31 286.259 204.423" fill="#587EEC"/>
<path opacity="0.1" d="M316.926 144.613H333.681C333.534 153.052 331.836 161.34 328.122 168.995C325.031 175.355 320.736 180.915 315.661 185.773V159.337H316.926V144.613Z" fill="#587EEC"/>
<path opacity="0.1" d="M333.69 143.328H316.926V108.597H325.997C330.692 119.547 333.675 131.564 333.69 143.328Z" fill="#587EEC"/>
<path opacity="0.1" d="M209.645 70.2583H199.499V83.3833H209.645V70.2583Z" fill="#587EEC"/>
<path opacity="0.1" d="M209.645 97.4636H199.499V100.486H209.645V97.4636Z" fill="#587EEC"/>
<path opacity="0.1" d="M209.645 101.769H199.499V110.586H209.645V101.769Z" fill="#587EEC"/>
<path opacity="0.1" d="M209.645 124.669H199.499V137.794H209.645V124.669Z" fill="#587EEC"/>
<path opacity="0.1" d="M209.645 151.875H199.499V165H209.645V151.875Z" fill="#587EEC"/>
<path opacity="0.1" d="M209.642 189.153C209.744 189.153 209.844 189.153 209.943 189.171H209.642V192.22H199.499V179.08H209.642V189.153Z" fill="#587EEC"/>
<path opacity="0.1" d="M209.642 206.279V216.418C206.251 216.132 202.87 215.742 199.499 215.25V206.279H209.642Z" fill="#587EEC"/>
<path opacity="0.1" d="M159.129 142.364H115.646V143.328L159.129 143.328V142.364Z" fill="#587EEC"/>
<path opacity="0.1" d="M159.129 144.61H115.646V148.306H159.129V144.61Z" fill="#587EEC"/>
<path opacity="0.1" d="M159.129 160.418H115.646V166.361H159.129V160.418Z" fill="#587EEC"/>
<path opacity="0.1" d="M159.126 178.473V184.415H125.115C123.638 183.29 122.18 182.134 120.739 180.949C119.743 180.128 118.756 179.287 117.75 178.473H159.126Z" fill="#587EEC"/>
<path opacity="0.1" d="M159.126 196.525V202.461H155.535C151.5 200.645 147.544 198.663 143.667 196.516L159.126 196.525Z" fill="#587EEC"/>
<path opacity="0.1" d="M243.168 105.797H234.608V114.341H243.168V105.797Z" fill="#587EEC"/>
<path opacity="0.1" d="M57.8315 65.9894H49.2717V74.5331H57.8315V65.9894Z" fill="#587EEC"/>
<path opacity="0.1" d="M57.8315 85.8346H49.2717V94.3784H57.8315V85.8346Z" fill="#587EEC"/>
<path opacity="0.1" d="M57.8315 105.68H49.2717V114.224H57.8315V105.68Z" fill="#587EEC"/>
<path opacity="0.1" d="M57.8315 125.522H49.2717V134.066H57.8315V125.522Z" fill="#587EEC"/>
<path opacity="0.1" d="M57.8315 145.368H49.2717V153.911H57.8315V145.368Z" fill="#587EEC"/>
<path opacity="0.1" d="M57.8315 165.213H49.2717V173.757H57.8315V165.213Z" fill="#587EEC"/>
<path opacity="0.1" d="M275.845 105.797H267.285V114.341H275.845V105.797Z" fill="#587EEC"/>
<path opacity="0.1" d="M243.168 126.871H234.608V135.415H243.168V126.871Z" fill="#587EEC"/>
<path opacity="0.1" d="M275.845 126.871H267.285V135.415H275.845V126.871Z" fill="#587EEC"/>
<path opacity="0.1" d="M243.168 147.942H234.608V156.486H243.168V147.942Z" fill="#587EEC"/>
<path opacity="0.1" d="M275.845 147.942H267.285V156.486H275.845V147.942Z" fill="#587EEC"/>
<path opacity="0.1" d="M243.168 169.016H234.608V177.56H243.168V169.016Z" fill="#587EEC"/>
<path opacity="0.1" d="M275.845 169.016H267.285V177.56H275.845V169.016Z" fill="#587EEC"/>
<path opacity="0.1" d="M243.168 190.09H234.608V198.634H243.168V190.09Z" fill="#587EEC"/>
<path opacity="0.1" d="M275.845 190.09H267.285V198.634H275.845V190.09Z" fill="#587EEC"/>
<path opacity="0.1" d="M234.608 216.671V211.161H243.165V215.887L234.608 216.671Z" fill="#587EEC"/>
<path opacity="0.1" d="M6.5177 89.8063V94.694H35.8119V89.8063H6.5177ZM9.43719 94.3876H7.04742V90.1067H9.45525L9.43719 94.3876ZM12.3537 94.3876H9.94584V90.1067H12.3537V94.3876ZM15.2641 94.3876H12.8563V90.1067H15.2641V94.3876ZM18.1806 94.3876H15.7758V90.1067H18.1836L18.1806 94.3876ZM21.0941 94.3876H18.6863V90.1067H21.0941V94.3876ZM24.0106 94.3876H21.6027V90.1067H24.0106V94.3876ZM26.927 94.3876H24.5192V90.1067H26.927V94.3876ZM29.8405 94.3876H27.4327V90.1067H29.8405V94.3876ZM32.754 94.3876H30.3462V90.1067H32.754V94.3876ZM35.6674 94.3876H33.2596V90.1067H35.6674V94.3876Z" fill="#587EEC"/>
<path opacity="0.1" d="M6.5177 104.028V108.915H35.8119V104.028H6.5177ZM9.43719 108.606H7.04742V104.337H9.45525L9.43719 108.606ZM12.3537 108.606H9.94584V104.337H12.3537V108.606ZM15.2641 108.606H12.8563V104.337H15.2641V108.606ZM18.1806 108.606H15.7758V104.337H18.1836L18.1806 108.606ZM21.0941 108.606H18.6863V104.337H21.0941V108.606ZM24.0106 108.606H21.6027V104.337H24.0106V108.606ZM26.927 108.606H24.5192V104.337H26.927V108.606ZM29.8405 108.606H27.4327V104.337H29.8405V108.606ZM32.754 108.606H30.3462V104.337H32.754V108.606ZM35.6674 108.606H33.2596V104.337H35.6674V108.606Z" fill="#587EEC"/>
<path opacity="0.1" d="M6.5177 118.255V123.152H35.8119V118.255H6.5177ZM9.43719 122.834H7.04742V118.562H9.45525L9.43719 122.834ZM12.3537 122.834H9.94584V118.562H12.3537V122.834ZM15.2641 122.834H12.8563V118.562H15.2641V122.834ZM18.1806 122.834H15.7758V118.562H18.1836L18.1806 122.834ZM21.0941 122.834H18.6863V118.562H21.0941V122.834ZM24.0106 122.834H21.6027V118.562H24.0106V122.834ZM26.927 122.834H24.5192V118.562H26.927V122.834ZM29.8405 122.834H27.4327V118.562H29.8405V122.834ZM32.754 122.834H30.3462V118.562H32.754V122.834ZM35.6674 122.834H33.2596V118.562H35.6674V122.834Z" fill="#587EEC"/>
<path opacity="0.1" d="M6.5177 132.483V137.365H35.8119V132.483H6.5177ZM9.43719 137.061H7.04742V132.786H9.45525L9.43719 137.061ZM12.3537 137.061H9.94584V132.786H12.3537V137.061ZM15.2641 137.061H12.8563V132.786H15.2641V137.061ZM18.1806 137.061H15.7758V132.786H18.1836L18.1806 137.061ZM21.0941 137.061H18.6863V132.786H21.0941V137.061ZM24.0106 137.061H21.6027V132.786H24.0106V137.061ZM26.927 137.061H24.5192V132.786H26.927V137.061ZM29.8405 137.061H27.4327V132.786H29.8405V137.061ZM32.754 137.061H30.3462V132.786H32.754V137.061ZM35.6674 137.061H33.2596V132.786H35.6674V137.061Z" fill="#587EEC"/>
<path opacity="0.1" d="M6.6441 146.707C6.76149 147.167 6.89391 147.627 7.03236 148.08V147.014H9.44019V151.286H8.152C8.19113 151.385 8.23026 151.493 8.26939 151.586H35.8119V146.707H6.6441ZM12.3627 151.286H9.95487V147.014H12.3627V151.286ZM15.2732 151.286H12.8653V147.014H15.2732V151.286ZM18.1896 151.286H15.7758V147.014H18.1836L18.1896 151.286ZM21.1031 151.286H18.6953V147.014H21.1031V151.286ZM24.0196 151.286H21.6118V147.014L24.0196 147.014V151.286ZM26.9361 151.286H24.5282V147.014H26.9361V151.286ZM29.8495 151.286H27.4417V147.014H29.8495V151.286ZM32.763 151.286H30.3552V147.014H32.763V151.286ZM35.6765 151.286H33.2686V147.014H35.6765V151.286Z" fill="#587EEC"/>
<path opacity="0.1" d="M13.4462 160.935C13.5215 161.031 13.5937 161.139 13.672 161.235H15.2641V163.287C15.4357 163.491 15.6042 163.696 15.7788 163.888V161.223H18.1866V165.51H17.2115C17.3078 165.609 17.4011 165.714 17.5124 165.811H35.821V160.935H13.4462ZM21.0941 165.51H18.6863V161.241H21.0941V165.51ZM24.0106 165.51H21.6027V161.241H24.0106V165.51ZM26.9271 165.51H24.5192V161.241H26.9271V165.51ZM29.8405 165.51H27.4327V161.241H29.8405V165.51ZM32.754 165.51H30.3462V161.241H32.754V165.51ZM35.6675 165.51H33.2596V161.241H35.6675V165.51Z" fill="#587EEC"/>
<path opacity="0.1" d="M29.5154 175.16C29.7893 175.316 30.0692 175.46 30.3521 175.616V175.466H32.7599V176.818L33.2716 177.055V175.466H35.6794V178.065C35.7256 178.087 35.774 178.106 35.8239 178.119V175.16H29.5154Z" fill="#587EEC"/>
<path opacity="0.1" d="M228.182 100.486H228.2H228.182ZM209.642 189.15H209.943H209.642ZM190.298 144.037C190.355 144.229 190.403 144.421 190.458 144.611C190.409 144.421 190.358 144.229 190.298 144.037ZM228.182 100.477H228.2H228.182ZM46.3913 55.4929V56.7757H59.836V55.4929H46.3913ZM209.642 189.15H209.943H209.642ZM190.298 144.037C190.355 144.229 190.403 144.421 190.458 144.611C190.409 144.421 190.358 144.229 190.298 144.037ZM228.182 100.477H228.2H228.182ZM209.642 189.141H209.943H209.642ZM190.298 144.037C190.355 144.229 190.403 144.421 190.458 144.611C190.409 144.421 190.358 144.229 190.298 144.037Z" fill="#587EEC"/>
<path d="M140.032 114.23C140.032 114.23 138.846 114.064 138.846 112.34C138.846 110.616 137.997 107.395 137.997 107.395C137.997 107.38 137.263 101.787 136.248 100.897C135.234 100.008 133.931 94.7869 133.931 94.7869C133.931 94.7869 133.708 91.954 133.254 91.3441C132.799 90.7343 132.185 89.2412 131.279 87.1113C130.373 84.9814 126.596 83.5064 126.596 83.5064C126.596 83.5064 119.767 79.5529 117.831 78.2641C117.656 78.1582 117.491 78.0344 117.341 77.8946C117.004 77.453 115.535 77.444 115.535 77.444C115.382 76.4767 115.234 75.3652 115.186 74.3588C115.186 74.2506 115.186 74.1425 115.171 74.0343C117.329 72.7611 118.954 70.7537 119.749 68.3805C119.785 68.2664 119.815 68.1462 119.848 68.0321C119.977 67.9896 120.096 67.9206 120.197 67.8295C120.298 67.7385 120.379 67.6274 120.435 67.5033C120.61 67.1158 120.613 66.6622 120.829 66.3017C121.082 65.8751 121.564 65.6468 121.943 65.3253C122.9 64.5142 123.147 63.1473 123.102 61.9036C123.072 60.8973 122.909 59.8819 122.972 58.8815L122.99 58.6291C123.008 58.4789 123.029 58.3287 123.056 58.1845C123.204 57.4395 123.526 56.7365 123.707 55.9975C123.887 55.2585 123.905 54.4264 123.484 53.7895C122.867 52.8552 121.582 52.6689 120.453 52.5728C119.174 52.4647 118.03 52.6058 117.211 51.5454C116.828 50.9911 116.397 50.4714 115.923 49.9923C115.755 49.836 114.117 48.8387 114.117 48.7726C112.519 48.0338 110.708 47.8952 109.016 48.382C108.167 48.6284 107.366 49.0309 106.506 49.2322C104.649 49.6708 102.512 49.1962 100.935 50.2566C100.056 50.8574 99.529 51.8128 99.0354 52.744C98.6341 53.5111 98.2268 54.2771 97.8134 55.0422C97.1483 56.3009 96.4711 57.5807 96.1911 58.9746C96.1323 59.2779 96.0961 59.5852 96.0828 59.8939V59.9089C96.0828 60.02 96.0828 60.1312 96.0828 60.2424V60.3835C96.0828 60.4887 96.0828 60.5908 96.1009 60.684C96.1189 60.7771 96.1159 60.8071 96.1249 60.8702C96.134 60.9333 96.149 61.0745 96.1671 61.1706C96.1851 61.2668 96.2212 61.435 96.2574 61.5672C96.2724 61.6243 96.2935 61.6783 96.3115 61.7324C96.3416 61.8345 96.3778 61.9337 96.4169 62.0328C96.438 62.0839 96.459 62.138 96.4831 62.189C96.5282 62.2942 96.5824 62.3963 96.6366 62.4894C96.6607 62.5315 96.6787 62.5706 96.7028 62.6096C96.7868 62.7493 96.8793 62.8838 96.9797 63.0122C97.6238 63.8143 98.5719 64.325 99.2732 65.076C99.2732 65.106 99.2732 65.1361 99.2732 65.1631C99.2732 65.2472 99.2732 65.3283 99.2732 65.4125C99.3104 67.0874 99.757 68.7279 100.574 70.1913C101.392 71.6547 102.555 72.8966 103.962 73.809C103.962 73.9232 103.977 74.0403 103.983 74.1545C104.042 75.0462 104.031 75.9412 103.95 76.8312C103.828 76.6871 103.674 76.5723 103.501 76.4954C103.328 76.4184 103.14 76.3812 102.951 76.3866C102.822 76.3803 102.692 76.3914 102.566 76.4196L102.539 76.3986V76.4256C101.877 76.5878 101.061 77.2758 100.281 79.2315C100.281 79.2315 97.9097 81.8991 96.1039 81.788C94.298 81.6768 89.7261 84.5638 89.7261 84.5638C89.7261 84.5638 85.2656 87.4538 84.3085 90.3978C83.7735 92.0673 83.1322 93.7008 82.3883 95.2886L76.8744 106.629L75.8571 115.627C75.8571 115.627 76.4199 119.628 76.3085 120.238C76.1972 120.848 78.623 126.348 78.623 126.348C78.623 126.348 86.6381 140.405 89.9127 141.126L90.1475 140.96C90.2876 141.033 90.4362 141.089 90.5899 141.126L91.2641 140.651C91.3046 141.18 91.2875 141.712 91.213 142.237C90.7615 143.625 91.3815 152.683 92.1701 154.458C92.9586 156.233 92.6787 179.512 92.6787 179.512L92.5674 181.567C92.5674 181.567 92.5674 181.633 92.5945 181.747L92.5674 182.234L92.6486 182.276C92.733 182.928 92.7055 183.589 92.5674 184.232C92.2845 185.133 92.1701 187.681 92.1701 187.681C92.1701 187.681 89.9158 202.064 90.9842 204.954C92.0527 207.844 92.9617 211.011 92.9617 211.011C92.9617 211.011 94.0903 214.616 93.0158 215.232C91.9413 215.847 88.8864 216.881 89.5155 218.383C90.0873 219.771 92.2574 223.49 92.5794 224.034L92.5523 224.319L92.1099 229.105C92.1815 229.736 92.3532 230.353 92.6185 230.931C93.1031 231.974 94.0452 233.055 95.836 232.938C96.137 232.917 96.4861 232.881 96.8232 232.836C100.101 232.397 104.137 230.937 104.137 230.937C103.927 230.804 103.735 230.646 103.565 230.465C103.404 230.31 103.276 230.123 103.19 229.916C103.104 229.71 103.06 229.488 103.062 229.264C103.111 228.393 101.476 224.241 101.07 223.22C101.007 223.072 100.974 222.988 100.974 222.988C100.974 222.988 104.7 219.101 104.08 215.655C104.08 215.655 99.9564 213.252 101.314 211.933C102.671 210.614 105.097 206.826 105.097 206.826C105.097 206.826 105.208 192.661 105.097 190.547C104.981 189.079 105.051 187.602 105.305 186.152C105.35 185.932 105.404 185.719 105.461 185.509C107.339 185.788 109.234 185.932 111.132 185.938C111.824 185.938 112.528 185.938 113.239 185.896C113.239 186.096 113.248 186.313 113.266 186.545C113.422 190.054 113.714 196.206 113.952 198.493C114.289 201.77 116.152 210.602 116.152 210.602C116.152 210.602 112.597 212.879 116.772 218.491C116.772 218.491 116.772 220.525 116.495 220.819C116.2 221.782 115.961 222.761 115.782 223.751C115.607 224.809 115.535 225.878 115.818 226.434C116.495 227.762 120.558 227.654 120.558 227.654L120.658 227.636C121.425 227.556 122.2 227.63 122.938 227.852C123.677 228.075 124.363 228.441 124.959 228.93C126.503 230.168 132.363 229.624 135.535 229.231C136.778 229.075 137.609 228.93 137.609 228.93C137.649 228.79 137.663 228.643 137.651 228.498C137.618 227.72 137.007 226.013 132.865 224.49C132.865 224.49 128.971 221.877 129.025 219.6H128.944H128.492C128.82 219.582 129.031 219.6 129.031 219.6C129.031 219.6 127.505 214.042 128.128 213.591C128.751 213.141 126.885 206.982 126.885 206.982C126.885 206.982 125.816 196.648 125.759 195.924C125.762 195.303 125.856 194.685 126.039 194.091L125.759 188.426C125.759 188.426 125.705 186.542 125.759 185.929C125.75 185.397 125.707 184.866 125.63 184.34C125.603 184.13 125.576 183.91 125.546 183.694C127.005 183.325 127.953 182.982 127.953 182.982L127.785 163.26C129.025 160.857 129.254 155.584 129.248 151.844C129.248 149.441 129.139 147.663 129.139 147.663L130.834 144.902C130.834 144.902 131.225 141.597 130.605 140.873C130.331 140.546 130.455 140.206 130.68 139.927C130.797 139.834 130.921 139.75 131.05 139.675C131.05 139.675 131.032 139.648 131.011 139.609C131.13 139.51 131.255 139.42 131.388 139.341C131.388 139.341 130.786 138.41 131.324 138.016C131.83 138.359 132.281 138.617 132.625 138.827C132.6 139.047 132.576 139.173 132.576 139.173L132.721 138.873C133.052 139.059 133.254 139.173 133.254 139.173C133.254 139.173 135.908 133.895 135.851 133.117C135.794 132.339 137.657 129.061 137.657 129.061C137.657 129.061 137.883 127.34 138.9 126.619C139.917 125.898 139.689 120.673 139.689 120.673C139.689 120.673 139.971 117.952 140.649 116.84C141.326 115.729 140.032 114.23 140.032 114.23ZM89.2385 111.913L89.2897 113.172C88.9887 112.688 88.772 112.34 88.772 112.34L89.2385 111.913Z" fill="url(#paint0_linear_6_207)"/>
<path d="M133.398 136.893L132.748 139.657C132.748 139.657 127.541 137.004 126.602 133.633C125.663 130.263 128.173 128.983 128.173 128.983L133.025 131.035L133.398 136.893Z" fill="white"/>
<path opacity="0.1" d="M133.398 136.893L132.748 139.657C132.748 139.657 127.541 137.004 126.602 133.633C125.663 130.263 128.173 128.983 128.173 128.983L133.025 131.035L133.398 136.893Z" fill="black"/>
<path d="M104.176 230.955C104.176 230.955 99.3605 232.722 96.0498 232.944C94.292 233.061 93.368 231.986 92.8925 230.949C92.6327 230.373 92.4651 229.76 92.3959 229.132L92.8263 224.37L93.055 221.835L100.089 220.011L101.085 223.051L101.178 223.283C101.579 224.298 103.183 228.429 103.135 229.291C103.133 229.512 103.176 229.731 103.26 229.935C103.345 230.138 103.47 230.323 103.628 230.478C103.79 230.659 103.974 230.82 104.176 230.955Z" fill="white"/>
<path d="M137.07 228.534C137.082 228.679 137.068 228.824 137.028 228.964C137.028 228.964 126.728 230.679 124.622 228.964C124.028 228.463 123.335 228.091 122.589 227.873C121.842 227.654 121.059 227.594 120.288 227.696C120.288 227.696 116.303 227.804 115.637 226.494C115.361 225.945 115.433 224.878 115.604 223.827C115.779 222.841 116.013 221.867 116.303 220.91L116.462 220.783L117.41 220.023L128.51 219.696H128.595C128.54 221.961 132.363 224.56 132.363 224.56C136.423 226.062 137.022 227.759 137.07 228.534Z" fill="white"/>
<path opacity="0.1" d="M137.07 228.534C137.081 228.679 137.065 228.824 137.025 228.963C137.025 228.963 126.728 230.679 124.622 228.963C124.028 228.463 123.336 228.091 122.59 227.873C121.844 227.655 121.061 227.594 120.291 227.696C120.291 227.696 116.303 227.804 115.64 226.494C115.364 225.941 115.433 224.878 115.604 223.826C117.139 223.98 119.562 224.361 120.513 225.271C121.952 226.656 124.39 228.038 125.886 228.146C127.057 228.221 134.06 228.444 137.07 228.534Z" fill="black"/>
<path opacity="0.1" d="M104.176 230.955C104.176 230.955 99.3605 232.722 96.0498 232.944C94.292 233.061 93.368 231.986 92.8955 230.946C94.1205 231.358 95.821 231.79 96.7149 231.394C97.7744 230.925 101.531 230.622 103.637 230.493C103.798 230.668 103.979 230.823 104.176 230.955Z" fill="black"/>
<path d="M111.321 88.6045C107.348 87.0634 102.238 81.9714 103.514 79.5921C103.797 78.9917 103.966 78.3437 104.011 77.6815C104.093 76.7825 104.105 75.8786 104.047 74.9778C103.957 73.5024 103.779 72.0338 103.514 70.5797C103.514 70.5797 115.917 70.8591 115.195 72.6826C114.984 73.2173 114.951 74.1456 115.008 75.185C115.065 76.2245 115.216 77.3991 115.372 78.3935C115.589 79.7573 115.806 80.7968 115.806 80.7968C115.806 80.7968 115.047 81.8572 114.602 81.9143C114.157 81.9714 117.022 90.8005 111.321 88.6045Z" fill="#CF6F80"/>
<path opacity="0.1" d="M101.169 223.283L101.076 223.385C97.3681 218.909 92.8835 224.487 92.8835 224.487L92.8173 224.37L93.046 221.835L100.08 220.011L101.076 223.051L101.169 223.283Z" fill="black"/>
<path opacity="0.1" d="M128.598 220.011C128.598 220.011 125.889 219.954 124.444 221.228C122.999 222.502 116.017 221.504 116.318 221.228C116.407 221.091 116.461 220.934 116.474 220.771L117.422 220.011L128.522 219.684C128.564 219.885 128.598 220.011 128.598 220.011Z" fill="black"/>
<path d="M105.783 184.86C105.582 185.358 105.428 185.874 105.326 186.401C105.075 187.845 105.005 189.314 105.118 190.775C105.23 192.878 105.118 206.97 105.118 206.97C105.118 206.97 102.738 210.729 101.41 212.053C100.083 213.378 104.119 215.757 104.119 215.757C104.721 219.182 101.073 223.051 101.073 223.051C97.3651 218.575 92.8805 224.157 92.8805 224.157C92.8805 224.157 90.4426 219.951 89.8346 218.449C89.2266 216.947 92.2153 215.908 93.2657 215.298C94.3162 214.688 93.2146 211.092 93.2146 211.092C93.2146 211.092 92.3267 207.941 91.2733 205.066C90.2198 202.191 92.435 187.879 92.435 187.879C92.435 187.879 92.5494 185.338 92.8233 184.451C92.9615 183.812 92.989 183.153 92.9046 182.505C92.8865 182.285 92.8654 182.102 92.8504 181.979C92.8353 181.856 92.8233 181.799 92.8233 181.799L92.8654 181.727L94.3703 178.927C94.3703 178.927 106.506 183.096 105.783 184.86Z" fill="#587EEC"/>
<path d="M128.598 219.681C128.598 219.681 125.889 219.624 124.444 220.883C122.999 222.141 116.017 221.159 116.318 220.883C116.619 220.606 116.595 218.56 116.595 218.56C112.498 212.979 115.993 210.714 115.993 210.714C115.993 210.714 114.163 201.926 113.832 198.667C113.6 196.39 113.314 190.27 113.16 186.777C113.094 185.275 113.055 184.241 113.055 184.241L116.402 183.568L116.832 183.481L124.905 181.865C124.905 181.865 125.127 183.367 125.278 184.596C125.353 185.12 125.395 185.649 125.404 186.179C125.35 186.78 125.404 188.66 125.404 188.66L125.678 194.299C125.499 194.89 125.407 195.505 125.404 196.122C125.458 196.84 126.509 207.121 126.509 207.121C126.509 207.121 128.336 213.255 127.713 213.697C127.09 214.138 128.598 219.681 128.598 219.681Z" fill="#587EEC"/>
<path opacity="0.1" d="M115.195 72.6826C114.984 73.2173 114.951 74.1456 115.008 75.185C113.347 76.1836 111.437 76.6942 109.498 76.658C107.559 76.6219 105.67 76.0405 104.047 74.9808C103.957 73.5044 103.779 72.0348 103.514 70.5797C103.514 70.5797 115.917 70.8531 115.195 72.6826Z" fill="black"/>
<path d="M119.99 66.0434C119.992 67.1259 119.821 68.2019 119.484 69.2308C118.73 71.536 117.184 73.501 115.118 74.7784C113.053 76.0558 110.602 76.5634 108.198 76.2114C105.794 75.8595 103.593 74.6707 101.982 72.8551C100.371 71.0395 99.4556 68.714 99.3966 66.2897C99.3966 66.2056 99.3966 66.1275 99.3966 66.0434C99.3733 64.6788 99.6224 63.3232 100.129 62.0557C100.636 60.7882 101.391 59.6342 102.35 58.6609C103.308 57.6876 104.452 56.9146 105.713 56.387C106.974 55.8593 108.327 55.5875 109.695 55.5875C111.062 55.5875 112.416 55.8593 113.677 56.387C114.938 56.9146 116.081 57.6876 117.039 58.6609C117.998 59.6342 118.753 60.7882 119.26 62.0557C119.767 63.3232 120.016 64.6788 119.993 66.0434H119.99Z" fill="#CF6F80"/>
<path opacity="0.1" d="M111.321 88.6045C107.348 87.0634 102.238 81.9714 103.514 79.5921C103.797 78.9917 103.966 78.3437 104.011 77.6815L109.449 82.1427L112.814 84.8974L115.372 78.3965C115.589 79.7604 115.806 80.7998 115.806 80.7998C115.806 80.7998 115.047 81.8603 114.602 81.9173C114.157 81.9744 117.022 90.8006 111.321 88.6045Z" fill="black"/>
<path d="M125.386 108.321L120.844 184.475L114.921 184.863L99.5833 140.705L102.099 88.28L102.629 77.2037L109.449 82.7944L112.817 85.5492L115.451 78.859L120.348 83.1189L125.386 108.321Z" fill="#587EEC"/>
<path opacity="0.1" d="M105.783 184.86C105.582 185.358 105.428 185.874 105.326 186.401C101.016 185.737 96.8299 184.432 92.9076 182.529L92.8263 182.487L92.8534 182.003L92.8684 181.751L94.3733 178.951C94.3733 178.951 106.506 183.097 105.783 184.86Z" fill="black"/>
<path opacity="0.1" d="M116.471 186.413C115.369 186.6 114.258 186.726 113.142 186.792C113.076 185.289 113.037 184.256 113.037 184.256L116.384 183.583L116.471 186.413Z" fill="black"/>
<path opacity="0.1" d="M125.26 184.611C123.12 185.166 119.815 185.791 116.856 185.401L116.814 183.496L124.886 181.88C124.886 181.88 125.109 183.367 125.26 184.611Z" fill="black"/>
<path opacity="0.1" d="M116.802 185.749C104.462 187.852 93.1604 181.823 93.1604 181.823L93.2687 179.78C93.2687 179.78 93.5486 156.621 92.7721 154.846C91.9956 153.07 91.3906 144.067 91.83 142.685C92.2695 141.303 90.2258 120.58 90.2258 120.58L89.8947 112.169L77.7773 107.269L83.195 95.9977C83.9267 94.4174 84.556 92.7918 85.0791 91.131C86.0211 88.205 90.3944 85.33 90.3944 85.33C90.3944 85.33 94.8789 82.4581 96.6517 82.5662C98.4245 82.6744 100.748 80.0247 100.748 80.0247C102.464 75.6597 104.017 77.6364 104.017 77.6364C104.017 77.8437 104.017 77.6364 103.932 78.2823C103.33 83.0739 113.666 98.2147 113.814 98.4821L114.798 122.413L115.794 152.698L116.802 185.749Z" fill="black"/>
<path d="M116.471 185.749C104.131 187.852 92.8262 181.823 92.8262 181.823L92.9376 179.78C92.9376 179.78 93.2175 156.621 92.4379 154.846C91.6584 153.07 91.0565 144.067 91.4989 142.685C91.9413 141.303 89.8947 120.581 89.8947 120.581L89.5606 112.169L77.4372 107.251L82.8548 95.9797C83.585 94.3987 84.2143 92.7733 84.7389 91.113C85.678 88.187 90.0542 85.3121 90.0542 85.3121C90.0542 85.3121 94.5388 82.4401 96.3085 82.5483C98.0783 82.6564 100.405 80.0068 100.405 80.0068C102.123 75.6418 104.017 77.6185 104.017 77.6185C104.017 77.8258 103.836 77.9189 103.932 78.2644C105.257 82.9118 113.335 98.1968 113.482 98.4642L114.479 122.395L115.475 152.68L116.471 185.749Z" fill="white"/>
<path opacity="0.1" d="M113.145 99.1461C111.818 98.5933 104.787 90.5813 104.787 90.5813V88.7578C104.531 88.157 103.011 88.5235 101.777 88.944L102.307 77.8678L102.909 78.3665C104.227 83.0109 112.992 98.8787 113.145 99.1461Z" fill="black"/>
<path d="M113.479 98.482C112.149 97.9292 105.118 89.9172 105.118 89.9172V88.0937C104.862 87.4929 103.342 87.8594 102.108 88.28L102.641 77.2037L103.243 77.7024C104.564 82.3468 113.332 98.2176 113.479 98.482Z" fill="white"/>
<path opacity="0.1" d="M93.1603 138.44C93.3258 138.44 101.741 137.557 101.741 137.557C101.741 137.557 106.837 147.558 106.503 149.991C106.169 152.424 105.564 154.578 103.514 154.197C101.464 153.815 92.4831 154.497 92.4831 154.497L93.1603 138.44Z" fill="black"/>
<path d="M92.8262 137.776C92.9917 137.776 101.407 136.893 101.407 136.893C101.407 136.893 106.5 146.897 106.169 149.327C105.837 151.757 105.227 153.914 103.18 153.533C101.133 153.151 92.149 153.833 92.149 153.833L92.8262 137.776Z" fill="white"/>
<path d="M99.1679 133.081C99.1679 133.081 106.891 137.224 107.057 138.488C107.222 139.753 103.126 137.935 102.241 137.716C101.658 137.576 101.066 137.484 100.468 137.44L94.5659 137.599L99.1679 133.081Z" fill="#CF6F80"/>
<path opacity="0.1" d="M110.99 99.6626C111.439 99.6626 111.803 99.2995 111.803 98.8515C111.803 98.4036 111.439 98.0404 110.99 98.0404C110.541 98.0404 110.178 98.4036 110.178 98.8515C110.178 99.2995 110.541 99.6626 110.99 99.6626Z" fill="black"/>
<path d="M110.99 99.3324C111.439 99.3324 111.803 98.9693 111.803 98.5213C111.803 98.0734 111.439 97.7102 110.99 97.7102C110.541 97.7102 110.178 98.0734 110.178 98.5213C110.178 98.9693 110.541 99.3324 110.99 99.3324Z" fill="#3F3D56"/>
<path opacity="0.1" d="M112.486 134.775C112.935 134.775 113.299 134.412 113.299 133.964C113.299 133.516 112.935 133.153 112.486 133.153C112.037 133.153 111.673 133.516 111.673 133.964C111.673 134.412 112.037 134.775 112.486 134.775Z" fill="black"/>
<path d="M112.486 134.442C112.935 134.442 113.299 134.078 113.299 133.63C113.299 133.182 112.935 132.819 112.486 132.819C112.037 132.819 111.673 133.182 111.673 133.63C111.673 134.078 112.037 134.442 112.486 134.442Z" fill="#3F3D56"/>
<path opacity="0.1" d="M111.8 117.219C112.249 117.219 112.613 116.856 112.613 116.408C112.613 115.96 112.249 115.597 111.8 115.597C111.351 115.597 110.987 115.96 110.987 116.408C110.987 116.856 111.351 117.219 111.8 117.219Z" fill="black"/>
<path d="M111.8 116.888C112.249 116.888 112.613 116.525 112.613 116.077C112.613 115.629 112.249 115.266 111.8 115.266C111.351 115.266 110.987 115.629 110.987 116.077C110.987 116.525 111.351 116.888 111.8 116.888Z" fill="#3F3D56"/>
<path d="M130.533 137.271C130.533 137.271 131.087 138.101 130.533 138.488C129.979 138.876 130.587 139.813 130.587 139.813C130.587 139.813 129.206 140.621 129.814 141.348C130.421 142.075 130.036 145.359 130.036 145.359L128.375 148.104C128.375 148.104 128.474 149.874 128.48 152.265C128.48 155.996 128.26 161.241 127.045 163.633L127.213 183.253C127.213 183.253 121.395 185.374 116.525 184.728L115.803 153.244C115.803 153.244 116.856 135.391 117.245 131.966C117.472 130.188 117.564 128.396 117.522 126.604C117.522 126.604 117.356 121.244 116.799 118.757C116.799 118.757 116.197 107.981 116.137 104.998C116.11 103.571 116.185 99.4073 116.269 95.4479C116.363 91.1189 116.468 87.0363 116.468 87.0363L115.37 78.3604C115.37 78.3604 116.468 78.2492 116.799 78.6908C116.948 78.8291 117.109 78.9528 117.281 79.0603C119.177 80.3401 125.877 84.2755 125.877 84.2755C125.877 84.2755 129.585 85.7475 130.473 87.8564C131.361 89.9653 131.978 91.4614 132.408 92.0622C132.838 92.663 133.073 95.4869 133.073 95.4869C133.073 95.4869 134.349 100.684 135.345 101.564C136.342 102.444 137.07 108.044 137.07 108.044L128.266 114.954C128.266 114.954 127.493 126.448 127.327 126.892C127.162 127.337 130.533 137.271 130.533 137.271Z" fill="white"/>
<path d="M130.867 137.272C130.867 137.272 131.418 138.101 130.867 138.488C130.316 138.876 130.918 139.813 130.918 139.813C130.918 139.813 129.546 140.63 130.148 141.357C130.749 142.084 130.37 145.368 130.37 145.368L128.709 148.114C128.709 148.114 128.808 149.883 128.817 152.274C128.817 156.005 128.598 161.251 127.382 163.642L127.547 183.262C127.547 183.262 121.72 185.383 116.856 184.737L116.137 153.254C116.137 153.254 117.19 135.4 117.579 131.975C117.806 130.197 117.898 128.405 117.853 126.613C117.853 126.613 117.687 121.254 117.133 118.766C117.133 118.766 116.531 107.99 116.468 105.007C116.441 103.58 116.519 99.4166 116.601 95.4571C116.694 91.1281 116.799 87.0455 116.799 87.0455L115.348 78.2524C115.348 78.2524 116.799 78.2524 117.133 78.7001C117.28 78.84 117.442 78.9638 117.615 79.0696C119.511 80.3493 126.214 84.2847 126.214 84.2847C126.214 84.2847 129.919 85.7568 130.807 87.8657C131.695 89.9746 132.312 91.4706 132.745 92.0715C133.178 92.6723 133.407 95.4962 133.407 95.4962C133.407 95.4962 134.683 100.693 135.68 101.574C136.676 102.454 137.395 108.041 137.395 108.041L128.591 114.951C128.591 114.951 127.818 126.445 127.649 126.889C127.481 127.334 130.867 137.272 130.867 137.272Z" fill="white"/>
<path opacity="0.1" d="M120.324 89.5958L121.118 91.909L116.935 96.1148C117.028 91.7889 117.133 87.7032 117.133 87.7032L115.682 78.9102C115.682 78.9102 117.133 78.9102 117.467 79.3578C117.614 79.4973 117.775 79.6202 117.949 79.7243L121.506 89.9684L120.324 89.5958Z" fill="black"/>
<path d="M119.99 88.932L120.787 91.2452L116.604 95.451C116.697 91.1221 116.802 87.0394 116.802 87.0394L115.348 78.2463C115.348 78.2463 116.802 78.2463 117.133 78.694C117.281 78.833 117.442 78.9568 117.615 79.0635L121.175 89.3045L119.99 88.932Z" fill="white"/>
<path opacity="0.1" d="M119.99 66.0434C119.992 67.1259 119.821 68.2019 119.484 69.2308C119.427 69.2396 119.369 69.237 119.313 69.2231C119.257 69.2092 119.205 69.1842 119.159 69.1497C119.081 66.4459 117.747 63.9075 116.107 61.7475C115.646 61.0953 115.088 60.5178 114.452 60.0351C113.808 59.5527 113.008 59.3267 112.206 59.4013C111.303 59.5244 110.506 60.1373 109.594 60.2154C108.39 60.3145 107.312 59.4824 106.117 59.4403C105.632 59.4449 105.153 59.5529 104.712 59.757C104.271 59.9611 103.879 60.2566 103.562 60.6239C102.934 61.3651 102.468 62.2286 102.193 63.1594C101.72 64.5709 101.462 66.0454 101.428 67.5334C101.413 68.3746 101.332 69.4291 100.549 69.7355C100.608 69.1169 100.538 68.4928 100.343 67.9027C100.147 67.3127 99.8313 66.7696 99.4147 66.3078L99.3966 66.2897C99.3966 66.2056 99.3966 66.1275 99.3966 66.0434C99.3733 64.6788 99.6224 63.3232 100.129 62.0557C100.636 60.7882 101.391 59.6342 102.35 58.6609C103.308 57.6876 104.452 56.9146 105.713 56.387C106.974 55.8593 108.327 55.5875 109.695 55.5875C111.062 55.5875 112.416 55.8593 113.677 56.387C114.938 56.9146 116.081 57.6876 117.039 58.6609C117.998 59.6342 118.753 60.7882 119.26 62.0557C119.767 63.3232 120.016 64.6788 119.993 66.0434H119.99Z" fill="black"/>
<path d="M113.958 49.722C112.394 48.9877 110.615 48.8488 108.956 49.3315C108.122 49.5778 107.336 49.9774 106.491 50.1786C104.685 50.6142 102.578 50.1426 101.028 51.1971C100.167 51.7979 99.6494 52.7472 99.1678 53.6695L97.9639 55.9586C97.3078 57.2113 96.6456 58.4851 96.3717 59.864C96.0979 61.2429 96.2634 62.787 97.1392 63.8955C97.7773 64.7036 98.7194 65.2113 99.4116 65.9714C99.8263 66.4337 100.141 66.9765 100.336 67.5658C100.53 68.1551 100.601 68.7782 100.543 69.3961C101.329 69.0957 101.404 68.0382 101.422 67.1971C101.456 65.709 101.713 64.2345 102.187 62.823C102.461 61.892 102.928 61.0284 103.556 60.2876C103.873 59.9206 104.265 59.6252 104.706 59.4211C105.147 59.217 105.626 59.1089 106.111 59.1039C107.315 59.146 108.396 59.9751 109.588 59.876C110.491 59.8009 111.291 59.185 112.2 59.0649C113.002 58.9892 113.803 59.2153 114.446 59.6987C115.082 60.1807 115.639 60.7583 116.098 61.4111C117.741 63.5711 119.075 66.1036 119.153 68.8133C119.493 69.0626 119.984 68.7382 120.152 68.3537C120.321 67.9691 120.327 67.5185 120.54 67.152C120.787 66.7284 121.26 66.5031 121.63 66.1847C122.569 65.3766 122.804 64.0157 122.768 62.781C122.731 61.5463 122.491 60.2936 122.725 59.0799C122.867 58.3349 123.186 57.6379 123.36 56.9019C123.535 56.1659 123.556 55.3398 123.144 54.7059C122.542 53.7746 121.275 53.5913 120.17 53.5042C118.915 53.3961 117.792 53.5343 116.992 52.4798C116.616 51.9296 116.193 51.4129 115.728 50.9357C115.568 50.7795 113.958 49.7881 113.958 49.722Z" fill="#512E4E"/>
<path opacity="0.1" d="M81.2446 113.073L78.0994 107.269L77.1031 116.224C77.1031 116.224 77.657 120.202 77.5456 120.812C77.4342 121.422 79.815 126.889 79.815 126.889C79.815 126.889 87.6795 140.87 90.891 141.591L101.741 133.853L98.8639 130.206C98.8639 130.206 97.8677 129.818 97.6179 130.206C97.6179 130.206 92.2755 121.031 91.7217 120.367C91.1679 119.703 91.2762 118.378 91.2762 118.378C91.2762 118.378 90.4455 117.495 90.7224 116.666C90.9993 115.837 89.1182 112.962 89.1182 112.962L90.8338 111.361L81.2446 113.073Z" fill="black"/>
<path d="M78.2649 106.608L77.4342 107.269L76.4379 116.225C76.4379 116.225 76.9917 120.202 76.8804 120.812C76.769 121.422 79.1528 126.889 79.1528 126.889C79.1528 126.889 87.0143 140.87 90.2257 141.591L101.079 133.853L98.1987 130.206C98.1987 130.206 97.2024 129.818 96.9526 130.206C96.9526 130.206 91.6103 121.031 91.0565 120.367C90.5027 119.703 90.614 118.378 90.614 118.378C90.614 118.378 89.7833 117.495 90.0602 116.666C90.3371 115.837 88.453 112.962 88.453 112.962L90.1686 111.361L78.2649 106.608Z" fill="white"/>
<path opacity="0.1" d="M129.813 141.691C130.415 142.421 130.036 145.698 130.036 145.698L128.375 148.444C128.375 148.444 128.474 150.216 128.48 152.605L125.687 153.476C125.435 153.554 125.167 153.572 124.907 153.526C124.646 153.481 124.4 153.374 124.19 153.214C123.979 153.054 123.81 152.847 123.696 152.609C123.582 152.37 123.527 152.108 123.535 151.845L124.017 136.34L130.533 138.828C129.979 139.212 130.587 140.155 130.587 140.155C130.587 140.155 129.205 140.961 129.813 141.691Z" fill="black"/>
<path d="M130.148 141.357C130.75 142.087 130.37 145.368 130.37 145.368L128.709 148.113C128.709 148.113 128.808 149.883 128.817 152.274L125.973 153.16C125.726 153.237 125.464 153.254 125.209 153.209C124.954 153.164 124.713 153.059 124.507 152.903C124.301 152.746 124.135 152.543 124.024 152.31C123.912 152.077 123.858 151.82 123.866 151.562L124.351 136.01L130.87 138.497C130.313 138.882 130.921 139.822 130.921 139.822C130.921 139.822 129.546 140.63 130.148 141.357Z" fill="white"/>
<path d="M132.306 133.967C132.306 133.967 131.863 136.788 130.756 136.953C129.648 137.118 129.151 141.516 128.047 141.36C126.942 141.204 127.674 137.271 127.713 136.508C127.752 135.745 126.509 132.585 127.439 131.867C128.369 131.149 131.312 131.867 131.312 131.867L132.306 133.967Z" fill="#CF6F80"/>
<path opacity="0.1" d="M134.662 112.244L136.751 108.038C136.751 108.038 137.582 111.244 137.582 112.956C137.582 114.668 138.743 114.837 138.743 114.837C138.743 114.837 140.017 116.339 139.345 117.432C138.674 118.526 138.403 121.247 138.403 121.247C138.403 121.247 138.623 126.442 137.627 127.16C136.631 127.878 136.423 129.593 136.423 129.593C136.423 129.593 134.593 132.852 134.65 133.627C134.707 134.402 132.104 139.651 132.104 139.651C132.104 139.651 133.377 133.129 125.958 130.311C125.958 130.311 125.901 128.097 126.455 127.49C127.008 126.883 127.872 126.607 127.33 123.54C126.789 120.472 127.174 116.807 127.174 116.071C127.174 115.335 128.835 110.745 128.835 110.745L134.662 112.244Z" fill="black"/>
<path d="M135.565 107.437L137.389 108.038C137.389 108.038 138.223 111.244 138.223 112.956C138.223 114.668 139.385 114.837 139.385 114.837C139.385 114.837 140.658 116.339 139.987 117.432C139.315 118.526 139.048 121.247 139.048 121.247C139.048 121.247 139.267 126.442 138.271 127.16C137.275 127.877 137.052 129.593 137.052 129.593C137.052 129.593 135.225 132.852 135.282 133.627C135.339 134.402 132.733 139.651 132.733 139.651C132.733 139.651 134.009 133.129 126.587 130.311C126.587 130.311 126.533 128.097 127.087 127.49C127.64 126.883 128.504 126.607 127.962 123.54C127.421 120.472 127.806 116.807 127.806 116.071C127.806 115.335 129.467 110.745 129.467 110.745L135.565 107.437Z" fill="white"/>
<path opacity="0.1" d="M95.2792 216.448C95.2792 216.448 98.1867 214.625 100.095 215.95C102.003 217.274 95.2792 216.448 95.2792 216.448Z" fill="black"/>
<path opacity="0.1" d="M117.871 210.81C117.871 210.81 120.444 210.479 122.605 212.801C124.766 215.124 117.871 210.81 117.871 210.81Z" fill="black"/>
<g opacity="0.1">
<path opacity="0.1" d="M121.636 65.5268C121.266 65.8453 120.79 66.0736 120.543 66.4972C120.333 66.8607 120.327 67.3083 120.158 67.6988C119.99 68.0894 119.499 68.4078 119.159 68.1615C119.081 65.4577 117.744 62.9192 116.104 60.7563C115.645 60.1035 115.088 59.5258 114.452 59.0439C113.807 58.5605 113.006 58.3345 112.203 58.41C111.3 58.5332 110.506 59.1461 109.594 59.2212C108.39 59.3233 107.309 58.4912 106.114 58.4491C105.629 58.4539 105.15 58.5623 104.71 58.7669C104.27 58.9716 103.878 59.2678 103.562 59.6357C102.934 60.3754 102.467 61.238 102.193 62.1682C101.72 63.5797 101.462 65.0542 101.428 66.5422C101.41 67.3804 101.332 68.4258 100.555 68.7382C100.573 68.9602 100.573 69.1832 100.555 69.4052C101.338 69.1048 101.416 68.0473 101.434 67.2061C101.468 65.7181 101.725 64.2436 102.199 62.8321C102.473 61.901 102.94 61.0374 103.568 60.2966C103.885 59.9297 104.276 59.6344 104.717 59.4303C105.157 59.2262 105.635 59.118 106.12 59.113C107.324 59.1551 108.408 59.9842 109.6 59.8851C110.503 59.81 111.303 59.1941 112.209 59.074C113.012 58.9984 113.813 59.2244 114.458 59.7078C115.094 60.1897 115.651 60.7674 116.11 61.4202C117.75 63.5802 119.087 66.1126 119.165 68.8224C119.505 69.0717 119.996 68.7473 120.164 68.3627C120.333 67.9782 120.339 67.5276 120.549 67.1611C120.796 66.7375 121.272 66.5122 121.642 66.1937C122.581 65.3856 122.816 64.0248 122.78 62.7901C122.78 62.751 122.78 62.712 122.78 62.6759C122.722 63.7454 122.436 64.8359 121.636 65.5268Z" fill="black"/>
<path opacity="0.1" d="M99.4177 65.3135C98.7254 64.5535 97.7803 64.0458 97.1453 63.2407C96.6105 62.5279 96.3051 61.67 96.2694 60.7803C96.1747 61.8921 96.4858 63.0006 97.1453 63.9016C97.7803 64.7097 98.7254 65.2174 99.4177 65.9774C100.082 66.7209 100.481 67.6632 100.552 68.6571C100.598 68.0522 100.522 67.4443 100.327 66.8698C100.132 66.2952 99.8225 65.7659 99.4177 65.3135Z" fill="black"/>
<path opacity="0.1" d="M123.366 56.244C123.189 56.98 122.873 57.68 122.728 58.422C122.643 58.9178 122.612 59.4215 122.635 59.924C122.645 59.6378 122.676 59.3526 122.728 59.0709C122.873 58.3259 123.189 57.6289 123.366 56.8929C123.47 56.4869 123.504 56.0664 123.466 55.6492C123.447 55.8496 123.414 56.0484 123.366 56.244Z" fill="black"/>
</g>
<path opacity="0.1" d="M41.0489 228.663C57.246 228.663 70.3763 226.558 70.3763 223.962C70.3763 221.365 57.246 219.26 41.0489 219.26C24.8519 219.26 11.7216 221.365 11.7216 223.962C11.7216 226.558 24.8519 228.663 41.0489 228.663Z" fill="#587EEC"/>
<path d="M41.9941 133.898H40.1069V176.307H41.9941V133.898Z" fill="#535461"/>
<path d="M53.8525 176.178L53.7351 178.089L53.5666 180.792L53.4973 181.916L53.3318 184.62L53.2596 185.743L53.091 188.447L51.1888 219.11C51.1062 220.429 50.5229 221.668 49.5578 222.573C48.5927 223.478 47.3183 223.982 45.9939 223.983H36.1038C34.7797 223.982 33.5057 223.478 32.5411 222.573C31.5765 221.668 30.9939 220.429 30.9119 219.11L29.0188 188.426L28.8502 185.722L28.781 184.599L28.6125 181.895L28.5432 180.771L28.3747 178.068L28.2543 176.157C28.2334 175.789 28.288 175.421 28.4147 175.075C28.5414 174.729 28.7376 174.413 28.9913 174.145C29.2449 173.878 29.5507 173.665 29.8898 173.52C30.2288 173.374 30.5941 173.3 30.9631 173.3H51.1918C51.5595 173.303 51.9226 173.382 52.2587 173.53C52.5948 173.679 52.8968 173.895 53.1461 174.164C53.3955 174.434 53.5868 174.752 53.7083 175.098C53.8297 175.445 53.8788 175.812 53.8525 176.178Z" fill="#3F3D56"/>
<path d="M53.7352 178.089L53.5667 180.783H28.5313L28.3627 178.089H53.7352Z" fill="#9D9CB5"/>
<path d="M53.4974 181.907L53.3319 184.605H28.7691L28.6005 181.907H53.4974Z" fill="#9D9CB5"/>
<path d="M53.2596 185.731L53.0941 188.426H29.0068L28.8383 185.731H53.2596Z" fill="#9D9CB5"/>
<path d="M25.4823 149.793C36.471 157.73 41.0579 170.143 41.0579 170.143C41.0579 170.143 27.8149 169.689 16.8232 161.752C5.83142 153.815 1.25354 141.405 1.25354 141.405C1.25354 141.405 14.4906 141.856 25.4823 149.793Z" fill="#587EEC"/>
<path d="M1.24457 141.405C1.24457 141.405 14.9933 149.021 19.4026 155.326C23.8119 161.632 41.058 170.143 41.058 170.143" stroke="#535461" stroke-width="2" stroke-miterlimit="10"/>
<path d="M32.5764 133.805C38.5568 138.122 41.0579 144.878 41.0579 144.878C41.0579 144.878 33.8495 144.632 27.8661 140.315C21.8826 135.998 19.3875 129.239 19.3875 129.239C19.3875 129.239 26.5929 129.485 32.5764 133.805Z" fill="#587EEC"/>
<path d="M19.3875 129.239C19.3875 129.239 26.8698 133.384 29.2686 136.815C31.6674 140.246 41.0579 144.878 41.0579 144.878" stroke="#535461" stroke-width="2" stroke-miterlimit="10"/>
<path d="M49.7413 144.535C42.8699 152.073 41.4162 161.923 41.4162 161.923C41.4162 161.923 51.1047 159.55 57.97 152.01C64.8353 144.469 66.2951 134.622 66.2951 134.622C66.2951 134.622 56.6126 136.998 49.7413 144.535Z" fill="#587EEC"/>
<path d="M66.3011 134.625C66.3011 134.625 57.35 142.351 55.0746 147.675C52.7992 152.998 41.4162 161.923 41.4162 161.923" stroke="#535461" stroke-width="2" stroke-miterlimit="10"/>
<path d="M301.979 141.883C301.979 141.883 297.01 117.207 298.912 114.137C298.912 114.137 298.981 111.283 298.867 107.645C298.867 107.506 298.867 107.368 298.867 107.227C299.202 107.45 299.551 107.65 299.911 107.828C301.664 108.727 303.676 108.986 305.6 108.561L304.095 106.888C303.734 106.488 303.358 106.055 303.279 105.527C303.201 104.998 303.418 104.526 303.604 104.055C305.034 100.45 305.109 95.9164 302.355 93.1647C300.029 90.8515 299.463 87.8654 296.938 85.7535C295.093 84.2063 294.078 81.9382 293.121 79.7452C292.312 77.8917 291.496 76.0231 291.033 74.0584C290.671 72.5233 290.527 70.9341 290.03 69.435C289.534 67.936 288.604 66.4789 287.15 65.809C286.632 65.5717 286.057 65.4365 285.585 65.1211C284.965 64.7035 284.592 64.0246 284.143 63.4298C281.865 60.4256 274.235 62.1951 270.623 63.4147C269.641 63.7219 268.732 64.2247 267.951 64.8928L267.984 64.8387C268.011 64.7936 268.044 64.7486 268.074 64.7035C267.679 65.0226 267.337 65.4029 267.063 65.8301C266.536 66.6622 266.316 67.6325 265.877 68.5338C265.347 69.6002 262.4 72.5773 263.668 73.776C263.756 73.8565 263.858 73.9215 263.969 73.9683C264.444 74.1658 264.968 74.2181 265.473 74.1185L265.419 74.2476C264.987 75.3052 264.765 76.4369 264.766 77.5792C264.766 82.515 268.844 86.5165 273.88 86.5165C274.826 86.5174 275.768 86.3725 276.67 86.0869C276.691 86.2011 276.709 86.3152 276.73 86.4294C276.73 86.4745 276.745 86.5195 276.751 86.5646L276.592 86.7869C276.584 86.7732 276.575 86.7601 276.565 86.7478L271.839 93.3389C271.117 93.8466 266.957 96.8507 266.723 99.1038C266.476 101.57 266.229 104.457 266.229 104.457L266.196 105.076C265.989 105.248 265.748 105.374 265.488 105.444C265.228 105.514 264.956 105.527 264.691 105.482C263.216 105.241 263.216 110.889 263.216 110.889C263.216 110.889 262.235 111.79 261.561 111.009C260.887 110.228 259.105 112.875 259.105 112.875L247.938 113.355L247.683 113.37L247.081 111.511C247.016 111.315 246.876 111.152 246.692 111.058C246.508 110.964 246.294 110.947 246.096 111.009C246.05 111.025 246.005 111.044 245.961 111.066L245.919 111.09L245.841 111.144L245.802 111.18C245.78 111.2 245.76 111.221 245.741 111.244L245.705 111.286L245.687 111.304C245.618 111.4 245.572 111.51 245.553 111.627C245.534 111.744 245.543 111.864 245.579 111.977L246.096 113.572C243.941 114.004 241.738 115.224 243.535 118.583L234.428 116.903L237.374 119.373L252.586 122.506C252.384 122.867 252.516 123.389 253.145 124.125C255.854 127.301 260.79 128.163 262.777 128.385C263.301 129.556 263.957 130.665 264.73 131.69L264.559 134.853C264.559 134.853 259.529 158.964 258.608 160.187C259.073 159.661 259.499 159.102 259.881 158.514C258.422 163.467 256.381 170.248 255.845 171.263C254.984 172.885 254.187 179.449 255.168 179.87C255.469 179.999 256.33 179.936 257.558 179.843V180.387L257.504 200.992C257.504 200.992 257.75 213.63 257.073 214.835C256.396 216.04 256.215 218.566 256.215 218.566C256.215 218.566 253.507 223.55 251.361 225.554C251.346 225.569 251.33 225.583 251.312 225.596L251.246 225.127C251.246 225.127 248.667 228.378 242.96 228.194C242.96 228.194 239.526 230.423 244.619 230.544C249.711 230.664 256.215 230.363 256.215 230.363C256.215 230.363 260.757 223.454 264.562 224.355V229.591H265.726V224.271C266.266 223.916 266.729 223.455 267.085 222.917C267.442 222.378 267.685 221.773 267.8 221.138C267.9 220.483 267.827 219.814 267.588 219.196C267.35 218.578 266.954 218.033 266.44 217.614C266.209 217.405 266.023 217.152 265.895 216.868C265.768 216.585 265.7 216.278 265.696 215.968L265.654 216.004C265.654 215.899 265.627 215.79 265.615 215.679C265.281 212.975 264.862 207.397 266.34 203.269C268.366 197.609 268.98 189.726 267.505 185.034C267.029 183.534 266.638 182.009 266.334 180.465C266.298 180.269 266.265 180.083 266.235 179.909C267.243 180.045 268.241 180.246 269.224 180.51C272.64 181.45 280.113 181.624 286.494 181.573C286.509 181.748 286.527 181.931 286.548 182.114C286.662 183.388 286.9 184.647 287.258 185.875C288.059 188.278 288.426 198.874 288.426 198.874C288.426 198.874 289.458 207.586 288.896 211.131C288.595 213.102 288.294 215.081 288.122 217.07V217.109C288.122 217.109 286.431 221.916 285.194 224.526C285.163 224.592 285.13 224.659 285.1 224.722C284.77 224.752 284.446 224.823 284.134 224.935C284.134 224.935 282.476 228.239 280.823 228.786C279.171 229.333 279.719 231.132 283.46 230.472C287.201 229.811 292.85 229.27 292.85 229.27L293.094 225.899L294.244 224.463L293.943 227.825L295.168 227.585L295.005 223.496L296.887 221.147C296.887 221.147 299.159 219.128 295.782 215.156V215.244C295.746 215.187 295.713 215.126 295.674 215.069V215.051C295.114 214.186 294.668 212.573 295.484 209.71C296.959 204.537 297.817 199.841 297.817 199.841C297.817 199.841 301.109 187.263 297.151 181.312H297.326C296.92 180.474 296.634 179.585 296.474 178.668C296.454 178.56 296.436 178.449 296.42 178.335C299.349 178.167 302.223 177.638 304.568 176.496C304.559 176.484 303.147 146.635 301.979 141.883ZM264.799 121.064V121.124L264.197 121.154L264.799 121.064ZM262.735 121.349C262.636 121.371 262.543 121.416 262.464 121.479C262.205 121.844 262.042 122.269 261.991 122.713L261.052 122.503C261.052 122.503 260.393 122.362 259.445 122.203L258.996 121.752C260.23 121.65 261.513 121.5 262.735 121.349Z" fill="url(#paint1_linear_6_207)"/>
<path d="M293.805 223.538L293.446 227.795L294.647 227.555L294.467 222.937L293.805 223.538Z" fill="#1D2366"/>
<path d="M266.406 203.326C264.959 207.442 265.368 212.997 265.693 215.694C265.813 216.692 265.925 217.298 265.925 217.298C265.925 217.298 263.761 222.219 263.58 222.405C263.4 222.592 257.212 226.362 257.212 226.362L252.886 228.882C252.886 228.882 248.498 226.963 250.602 226.302C251.032 226.13 251.419 225.866 251.737 225.53C253.844 223.532 256.489 218.566 256.489 218.566C256.489 218.566 256.67 216.046 257.332 214.847C257.994 213.648 257.753 201.052 257.753 201.052L257.804 180.519V177.842L266.036 177.902C266.088 178.811 266.207 179.715 266.391 180.606C266.687 182.145 267.07 183.665 267.538 185.16C268.989 189.844 268.387 197.687 266.406 203.326Z" fill="#FFB0B1"/>
<path opacity="0.1" d="M265.925 217.299C265.925 217.299 263.761 222.219 263.58 222.406C263.4 222.592 257.212 226.362 257.212 226.362L252.886 228.883C252.886 228.883 248.498 226.963 250.602 226.302C251.032 226.13 251.419 225.866 251.737 225.53L251.923 226.843L253.365 226.783L265.705 215.7C265.814 216.692 265.925 217.299 265.925 217.299Z" fill="black"/>
<path d="M265.774 215.98L253.365 227.137L251.923 227.197L251.622 225.094C251.622 225.094 249.1 228.333 243.496 228.153C243.496 228.153 240.131 230.373 245.118 230.493C250.105 230.613 256.474 230.312 256.474 230.312C256.474 230.312 260.923 223.403 264.646 224.304V229.522H265.789V224.256C266.321 223.899 266.775 223.438 267.124 222.901C267.472 222.364 267.709 221.762 267.818 221.132C267.917 220.482 267.847 219.819 267.615 219.204C267.382 218.589 266.995 218.045 266.491 217.623C266.266 217.412 266.086 217.158 265.963 216.875C265.839 216.593 265.775 216.288 265.774 215.98Z" fill="#1D2366"/>
<path d="M294.948 209.743C294.148 212.597 294.584 214.204 295.132 215.067V215.085C295.834 216.149 296.323 217.34 296.57 218.59L296.619 218.861L290.972 227.077L287.908 228.279C287.908 228.279 282.981 226.599 283.881 226.119C284.107 226.002 284.459 225.377 284.862 224.514C286.066 221.916 287.728 217.121 287.728 217.121V217.082C287.902 215.103 288.179 213.129 288.486 211.164C289.037 207.628 288.026 198.949 288.026 198.949C288.026 198.949 287.665 188.396 286.882 185.996C286.529 184.775 286.294 183.524 286.181 182.258C286.018 180.756 285.982 179.519 285.982 179.519C285.982 179.519 289.227 175.012 295.174 179.879C295.65 180.267 296.068 180.72 296.417 181.225C300.525 187.059 297.218 199.911 297.218 199.911C297.218 199.911 296.39 204.585 294.948 209.743Z" fill="#FFB0B1"/>
<path opacity="0.1" d="M296.628 218.861L290.981 227.077L287.917 228.279C287.917 228.279 282.99 226.599 283.89 226.119C284.116 226.002 284.468 225.377 284.872 224.514C286.957 224.496 288.038 226.479 288.038 226.479L290.68 226.059C290.68 226.059 294.166 219.221 294.948 218.804C295.731 218.386 295.069 215.682 295.069 215.682V214.994C295.09 215.018 295.108 215.045 295.132 215.069V215.088C295.834 216.152 296.323 217.343 296.57 218.593L296.628 218.861Z" fill="black"/>
<path d="M288.218 226.656C288.218 226.656 286.713 223.899 283.83 224.917C283.83 224.917 282.208 228.222 280.586 228.756C278.963 229.291 279.505 231.093 283.171 230.436C286.837 229.778 292.363 229.234 292.363 229.234L292.604 225.872L296.33 221.135C296.33 221.135 298.551 219.125 295.246 215.169V215.857C295.246 215.857 295.908 218.56 295.126 218.978C294.343 219.395 290.87 226.236 290.87 226.236L288.218 226.656Z" fill="#1D2366"/>
<path opacity="0.1" d="M266.045 177.896C266.097 178.805 266.216 179.709 266.4 180.6C263.011 180.104 259.866 180.351 257.805 180.513V177.836L266.045 177.896Z" fill="black"/>
<path opacity="0.1" d="M296.751 181.973C296.751 181.973 291.935 182.207 286.193 182.255C286.03 180.753 285.994 179.516 285.994 179.516C285.994 179.516 289.239 175.009 295.186 179.876C295.662 180.264 296.08 180.717 296.429 181.222C296.522 181.478 296.63 181.729 296.751 181.973Z" fill="black"/>
<path d="M296.751 181.432C296.751 181.432 275.659 182.45 269.23 180.651C262.801 178.852 256.429 180.411 255.469 179.993C254.509 179.576 255.288 173.035 256.131 171.416C256.974 169.797 261.597 153.422 261.597 153.422L266.045 130.272L270.732 128.983L271.063 128.89L279.228 126.643L285.212 124.993C285.212 124.993 297.109 171.356 296.089 174.775C295.718 176.084 295.659 177.461 295.914 178.797C296.07 179.71 296.352 180.597 296.751 181.432Z" fill="#1D2366"/>
<path d="M250.539 114.44C250.539 114.44 246.325 118.946 249.516 121.458C252.706 123.969 254.804 121.698 254.804 121.698L250.539 114.44Z" fill="#C7DAF5"/>
<path opacity="0.1" d="M250.539 114.44C250.539 114.44 246.325 118.946 249.516 121.458C252.706 123.969 254.804 121.698 254.804 121.698L250.539 114.44Z" fill="black"/>
<path d="M284.583 84.8133C284.583 84.8133 284.089 85.282 283.346 85.9729C282.286 86.9613 280.718 88.4063 279.327 89.6169C277.401 91.2902 275.812 92.5189 276.381 91.4705C276.95 90.4221 276.841 88.5955 276.558 86.8862C276.537 86.772 276.519 86.6579 276.498 86.5467C276.264 85.2913 275.953 84.0514 275.568 82.8336C275.568 82.8336 278.68 78.8201 280.402 77.2369C281.043 76.6361 281.491 76.3898 281.519 76.8073C281.549 77.3691 281.97 78.6098 282.494 79.9256C282.509 79.9677 282.524 80.0067 282.542 80.0488C282.891 80.95 283.285 81.8753 283.631 82.6744C284.161 83.9001 284.583 84.8133 284.583 84.8133Z" fill="#FFB0B1"/>
<path opacity="0.1" d="M282.542 80.0487C282.249 81.6188 281.54 83.0816 280.487 84.2844C279.435 85.4872 278.078 86.3857 276.558 86.8861C276.319 85.5147 275.988 84.1609 275.568 82.8335C275.568 82.8335 281.428 75.2781 281.519 76.8072C281.54 77.387 281.997 78.6728 282.542 80.0487Z" fill="black"/>
<path opacity="0.1" d="M275.975 88.905L276.733 87.8385C276.733 87.8385 277.236 90.8967 279.084 89.5479C280.932 88.199 281.022 99.6988 281.022 99.6988L279.039 129.299L264.706 128.442L265.112 114.14L266.735 106.93L270.747 96.4483L273.133 92.9846L275.975 88.905Z" fill="black"/>
<path d="M281.022 99.8821L279.216 126.646L279.026 129.482L271.035 129.004L270.734 128.986L264.715 128.626L265.121 114.32L266.744 107.11L270.756 96.6286L273.142 93.1648L275.984 89.0702L276.742 88.0067C276.742 88.0067 277.245 91.0649 279.093 89.7161L279.132 89.689C280.938 88.5475 281.022 99.8821 281.022 99.8821Z" fill="#1D2366"/>
<path d="M266.945 104.605C266.945 104.605 266.226 106.107 264.781 105.863C263.336 105.62 263.339 111.271 263.339 111.271C263.339 111.271 262.379 112.172 261.717 111.391C261.055 110.61 259.309 113.251 259.309 113.251L248.372 113.731C248.372 113.731 253.239 115.951 252.284 122.668C252.284 122.668 268.808 121.647 269.35 120.088C269.892 118.529 266.945 104.605 266.945 104.605Z" fill="white"/>
<path opacity="0.03" d="M266.945 104.605C266.945 104.605 266.226 106.107 264.781 105.863C263.336 105.62 263.339 111.271 263.339 111.271C263.339 111.271 262.379 112.172 261.717 111.391C261.055 110.61 259.309 113.251 259.309 113.251L248.372 113.731C248.372 113.731 253.239 115.951 252.284 122.668C252.284 122.668 268.808 121.647 269.35 120.088C269.892 118.529 266.945 104.605 266.945 104.605Z" fill="black"/>
<path d="M235.159 117.261L238.042 119.718L261.777 124.696L258.834 121.698L235.159 117.261Z" fill="white"/>
<path d="M276.02 89.8512C275.625 90.4521 274.497 93.5283 273.555 96.214C272.769 98.4521 272.113 100.42 272.113 100.42C272.113 100.42 270.581 110.375 269.798 112.175C269.016 113.974 269.44 120.992 269.44 120.992L266.524 138.323C266.524 138.323 265.202 147.26 263.162 152.599C261.148 157.853 258.906 160.316 258.837 160.394C259.74 159.175 264.661 135.16 264.661 135.16L266.286 104.872C266.286 104.872 266.524 101.994 266.765 99.5335C267.005 97.0732 271.881 93.7145 271.881 93.7145L276.582 87.0424C277.055 87.6732 276.739 88.7727 276.02 89.8512Z" fill="white"/>
<path d="M263.761 128.776C263.761 128.776 256.838 128.475 253.485 124.456C250.133 120.436 261.236 122.852 261.236 122.852L264.122 123.512L263.761 128.776Z" fill="#FFB0B1"/>
<path opacity="0.1" d="M296.089 174.778C295.718 176.087 295.659 177.464 295.914 178.8C288.363 179.335 280.285 177.298 280.285 177.298C278.78 178.68 274.816 180.717 274.816 180.717L272.655 153.98C271.273 150.375 270.732 131.488 270.732 131.488C270.732 131.488 270.855 130.5 271.032 129.019C271.032 128.983 271.032 128.944 271.048 128.908C271.586 124.771 272.655 117.005 273.178 115.957C273.901 114.515 270.957 110.679 270.957 110.679L272.297 99.2781L272.459 97.9022C275.282 96.6435 277.446 92.624 277.446 92.624L279.108 89.719C280.914 88.5624 281.007 99.897 281.007 99.897L279.201 126.661L285.184 125.012C285.184 125.012 297.109 171.359 296.089 174.778Z" fill="black"/>
<path d="M303.839 176.626C295.607 180.705 280.646 176.926 280.646 176.926C279.141 178.308 275.177 180.345 275.177 180.345L273.013 153.608C271.634 150.003 271.093 131.116 271.093 131.116C271.093 131.116 272.832 117.024 273.555 115.585C273.765 115.164 273.663 114.539 273.413 113.866C272.185 110.663 271.733 107.216 272.095 103.806L272.673 98.9058L272.832 97.5329C275.659 96.2712 277.823 92.2516 277.823 92.2516L279.327 89.62L282.096 84.7713L283.409 82.4762L283.631 82.6775L285.332 84.2156C285.332 84.2156 286.054 84.8164 287.138 85.7177C289.494 87.7004 293.567 91.1912 295.668 93.3271C297.516 95.2077 298.099 102.523 298.268 108.029C298.379 111.655 298.313 114.497 298.313 114.497C296.45 117.558 301.323 142.135 301.323 142.135C302.458 146.885 303.839 176.626 303.839 176.626Z" fill="white"/>
<path opacity="0.03" d="M288.038 92.1915C288.038 92.1915 282.388 102.925 283.045 107.005C283.701 111.085 285.567 115.702 284.667 116.78C284.358 117.189 283.958 117.521 283.499 117.749C283.04 117.978 282.534 118.098 282.021 118.099C281.118 118.159 278.71 119.839 278.71 120.019C278.71 120.199 276.486 120.199 274.497 121.04C272.507 121.881 269.57 122.359 269.57 122.359C269.57 122.359 263.851 122.179 263.318 122.72C262.786 123.26 262.238 126.496 263.379 129.076C264.519 131.657 265.786 133.583 266.744 133.934C267.701 134.285 273.774 132.255 278.701 131.774C283.628 131.293 288.977 127.397 288.977 127.397C288.977 127.397 294.867 125.294 295.899 121.758C296.932 118.222 294.638 98.7886 294.638 98.7886C294.638 98.7886 292.905 89.7312 288.038 92.1915Z" fill="black"/>
<path opacity="0.03" d="M287.315 91.2903C287.315 91.2903 281.666 102.027 282.328 106.104C282.99 110.18 284.85 114.801 283.947 115.882C283.639 116.291 283.24 116.623 282.782 116.852C282.323 117.081 281.818 117.2 281.305 117.201C280.402 117.261 277.994 118.94 277.994 119.121C277.994 119.301 275.77 119.301 273.78 120.139C271.791 120.977 268.853 121.458 268.853 121.458C268.853 121.458 263.135 121.278 262.605 121.818C262.075 122.359 261.522 125.598 262.665 128.175C263.809 130.753 265.073 132.681 266.03 133.033C266.987 133.384 273.061 131.353 277.988 130.876C282.915 130.398 288.263 126.496 288.263 126.496C288.263 126.496 294.151 124.393 295.171 120.86C296.191 117.327 293.91 97.8874 293.91 97.8874C293.91 97.8874 292.182 88.8329 287.315 91.2903Z" fill="black"/>
<path d="M287.86 91.6508C287.86 91.6508 282.211 102.388 282.873 106.464C283.535 110.541 285.395 115.161 284.495 116.24C284.187 116.65 283.788 116.982 283.329 117.212C282.869 117.441 282.363 117.561 281.85 117.561C280.947 117.621 278.539 119.301 278.539 119.478C278.539 119.655 276.318 119.658 274.325 120.499C272.333 121.341 269.398 121.818 269.398 121.818C269.398 121.818 263.68 121.638 263.147 122.179C262.614 122.719 262.066 125.958 263.207 128.535C264.348 131.113 265.615 133.042 266.572 133.393C267.529 133.745 273.603 131.714 278.53 131.233C283.457 130.753 288.805 126.856 288.805 126.856C288.805 126.856 294.695 124.753 295.728 121.217C296.76 117.682 294.482 98.2478 294.482 98.2478C294.482 98.2478 292.724 89.2054 287.86 91.6508Z" fill="white"/>
<path opacity="0.1" d="M287.737 120.448C287.737 120.448 283.222 119.547 284.793 121.049C286.364 122.551 286.355 123.867 288.279 123.807C290.202 123.747 287.737 120.448 287.737 120.448Z" fill="black"/>
<path opacity="0.1" d="M295.367 152.767C295.367 152.767 293.326 154.146 297.23 157.324C301.133 160.502 295.367 152.767 295.367 152.767Z" fill="black"/>
<path opacity="0.1" d="M291.472 164.101C291.472 164.282 290.75 170.71 293.452 172.318C296.155 173.925 291.472 164.101 291.472 164.101Z" fill="black"/>
<path d="M248.558 113.716C246.379 113.791 241.672 114.455 244.113 119C246.271 123.023 249.898 120.334 251.938 118.294C251.441 116.393 250.231 114.754 248.558 113.716Z" fill="#FFB0B1"/>
<path d="M251.966 118.258L252.056 118.165L251.966 118.258Z" fill="#FFB0B1"/>
<path opacity="0.1" d="M287.138 85.9007C284.826 87.4778 282.888 88.8087 282.509 89.0851C281.473 89.8511 279.499 94.3483 278.226 96.6435C277.212 98.491 273.916 98.9656 272.673 99.0828L272.832 97.7099C275.659 96.4482 277.823 92.4287 277.823 92.4287L283.409 82.6532L285.332 84.3986C285.332 84.3986 286.054 84.9994 287.138 85.9007Z" fill="black"/>
<path d="M287.138 85.7205C284.826 87.2977 282.888 88.6285 282.509 88.9079C281.473 89.6709 279.499 94.1681 278.226 96.4633C277.212 98.3108 273.916 98.7854 272.673 98.9026L272.832 97.5297C275.659 96.268 277.823 92.2485 277.823 92.2485L283.409 82.473L285.332 84.2124C285.332 84.2124 286.054 84.8072 287.138 85.7205Z" fill="#DCE7FF"/>
<path d="M282.689 78.0661C282.691 79.8694 282.143 81.6306 281.118 83.116C279.908 84.8723 278.108 86.1376 276.043 86.6821C273.979 87.2267 271.787 87.0145 269.866 86.0841C267.944 85.1537 266.421 83.5667 265.572 81.6111C264.722 79.6555 264.604 77.4607 265.237 75.4252C265.87 73.3896 267.214 71.6481 269.023 70.5166C270.833 69.3851 272.989 68.9385 275.1 69.258C277.212 69.5775 279.138 70.6418 280.531 72.2579C281.923 73.8739 282.689 75.9346 282.689 78.0661Z" fill="#FFB0B1"/>
<path opacity="0.1" d="M298.268 108.032C297.046 107.282 296.05 106.214 295.388 104.944C294.885 103.953 294.551 102.808 293.693 102.105C292.92 101.474 291.887 101.321 290.924 101.039C287.758 100.104 285.103 97.2203 285.004 93.9278C284.956 92.3777 285.44 90.8305 285.221 89.2954C285.096 88.4266 284.75 87.6043 284.215 86.9071C283.95 86.5737 283.659 86.2613 283.345 85.9729C282.924 85.5763 282.482 85.1918 282.096 84.7712C281.854 84.5108 281.642 84.2235 281.464 83.915C281.321 83.6626 281.205 83.3957 281.118 83.1189C280.516 81.2804 281.064 79.0994 280.402 77.2399L280.366 77.1377C280.116 76.4768 279.607 75.8159 278.9 75.7648C278.193 75.7138 277.588 76.2996 276.914 76.5609C275.502 77.1077 273.979 76.1764 272.802 75.2271C271.625 74.2778 270.298 73.1933 268.802 73.4036C267.812 73.5448 267.029 74.2177 266.117 74.5662C265.912 74.6457 265.699 74.7071 265.482 74.7494C266.254 72.8283 267.672 71.2354 269.493 70.2445C271.313 69.2535 273.423 68.9263 275.459 69.3191C277.495 69.7119 279.33 70.8001 280.65 72.3969C281.969 73.9936 282.69 75.9992 282.689 78.069C282.69 78.694 282.625 79.3174 282.494 79.9285C282.509 79.9706 282.524 80.0097 282.542 80.0517C282.891 80.953 283.285 81.8782 283.631 82.6773L285.332 84.2154C285.332 84.2154 286.054 84.8163 287.138 85.7175C289.494 87.7002 293.567 91.191 295.668 93.327C297.516 95.2136 298.093 102.526 298.268 108.032Z" fill="black"/>
<path d="M266.012 69.0776C266.443 68.2034 266.656 67.2241 267.171 66.395C267.926 65.1933 269.245 64.4242 270.599 63.9586C274.136 62.7419 281.609 60.9755 283.842 63.9586C284.282 64.5594 284.646 65.2263 285.254 65.6409C285.717 65.9563 286.277 66.0915 286.786 66.3289C288.209 66.9958 289.118 68.4498 289.603 69.9338C290.087 71.4179 290.232 73.0101 290.587 74.5392C291.041 76.5009 291.839 78.3604 292.634 80.208C293.57 82.389 294.563 84.6511 296.369 86.1922C298.834 88.2951 299.379 91.2722 301.666 93.5794C304.375 96.3191 304.288 100.84 302.891 104.43C302.707 104.902 302.5 105.395 302.572 105.896C302.644 106.398 303.017 106.855 303.37 107.254L304.85 108.921C301.347 109.766 297.383 107.939 295.752 104.734C295.249 103.742 294.915 102.601 294.054 101.895C293.284 101.264 292.248 101.114 291.288 100.831C288.122 99.894 285.467 97.0071 285.368 93.7145C285.32 92.1674 285.804 90.6203 285.585 89.0882C285.463 88.2135 285.115 87.3855 284.576 86.6849C283.749 85.6064 282.5 84.8824 281.826 83.6807C280.685 81.671 281.552 79.0604 280.73 76.9034C280.477 76.2425 279.972 75.5816 279.264 75.5305C278.557 75.4795 277.952 76.0653 277.275 76.3266C275.866 76.8734 274.343 75.9451 273.166 74.9928C271.99 74.0405 270.662 72.959 269.163 73.1723C268.173 73.3105 267.394 73.9834 266.482 74.3349C265.807 74.5932 264.441 74.8245 263.851 74.2568C262.605 73.1122 265.491 70.1471 266.012 69.0776Z" fill="#591D4B"/>
<path opacity="0.1" d="M296.589 103.742C296.083 102.751 295.752 101.609 294.891 100.907C294.121 100.276 293.085 100.122 292.122 99.84C288.959 98.9058 286.304 96.0188 286.202 92.7263C286.154 91.1791 286.638 89.629 286.421 88.0969C286.295 87.2279 285.948 86.4056 285.413 85.7086C284.583 84.6301 283.333 83.9061 282.662 82.7045C281.522 80.6977 282.388 78.0871 281.564 75.9271C281.314 75.2692 280.805 74.6083 280.101 74.5543C279.397 74.5002 278.786 75.092 278.111 75.3534C276.703 75.9001 275.177 74.9688 274.003 74.0195C272.829 73.0702 271.496 71.9857 270 72.196C269.01 72.3372 268.227 73.0101 267.318 73.3586C266.644 73.617 265.275 73.8513 264.685 73.2835C263.445 72.0819 266.331 69.1228 266.849 68.0593C267.279 67.1821 267.493 66.2058 268.011 65.3766C268.038 65.3316 268.068 65.2865 268.098 65.2415C267.711 65.5616 267.377 65.9408 267.108 66.365C266.593 67.1941 266.379 68.1675 265.949 69.0477C265.428 70.1111 262.542 73.0792 263.785 74.2719C264.387 74.8427 265.741 74.6083 266.415 74.35C267.318 73.9985 268.107 73.3256 269.097 73.1874C270.602 72.9741 271.926 74.0586 273.1 75.0079C274.274 75.9572 275.809 76.8885 277.212 76.3417C277.886 76.0804 278.476 75.4916 279.198 75.5456C279.92 75.5997 280.402 76.2576 280.664 76.9185C281.485 79.0755 280.619 81.6861 281.759 83.6958C282.434 84.8765 283.683 85.6155 284.51 86.7C285.049 87.4006 285.396 88.2286 285.519 89.1033C285.738 90.6354 285.254 92.1825 285.302 93.7296C285.401 97.0342 288.056 99.9091 291.222 100.846C292.176 101.129 293.218 101.279 293.988 101.91C294.852 102.616 295.192 103.757 295.686 104.749C297.317 107.954 301.281 109.781 304.784 108.937L304.086 108.149C301.049 108.195 297.976 106.47 296.589 103.742Z" fill="black"/>
<path opacity="0.1" d="M275.839 90.0315C275.445 90.6324 274.316 93.7086 273.374 96.3943C272.492 96.0518 271.692 93.8678 271.692 93.8678L276.393 87.1926C276.874 87.8535 276.558 88.9501 275.839 90.0315Z" fill="black"/>
<path d="M276.02 89.8512C275.625 90.452 274.497 93.5282 273.555 96.2139C272.673 95.8744 271.872 93.6874 271.872 93.6874L276.574 87.0153C277.055 87.6732 276.739 88.7727 276.02 89.8512Z" fill="#DCE7FF"/>
<path d="M248.685 120.541L246.078 112.337C246.047 112.241 246.036 112.14 246.044 112.039C246.053 111.939 246.081 111.841 246.127 111.751C246.174 111.662 246.238 111.582 246.315 111.517C246.392 111.452 246.482 111.403 246.578 111.373C246.772 111.312 246.982 111.331 247.162 111.424C247.343 111.518 247.479 111.678 247.541 111.872L250.148 120.067L249.889 121.782L248.685 120.541Z" fill="#BE8B87"/>
<path opacity="0.1" d="M246.325 111.616C246.52 111.555 246.73 111.573 246.912 111.666C247.093 111.76 247.229 111.921 247.291 112.115L249.898 120.31L249.702 121.596L249.892 121.794L250.151 120.079L247.529 111.884C247.467 111.691 247.331 111.53 247.15 111.436C246.97 111.343 246.76 111.324 246.566 111.385C246.403 111.438 246.262 111.543 246.166 111.685C246.217 111.658 246.27 111.635 246.325 111.616Z" fill="white"/>
<path d="M248.685 120.542L250.148 120.079L249.934 121.485L249.889 121.794L249.461 121.35L248.685 120.542Z" fill="#EFC8C4"/>
<path d="M249.461 121.35C249.487 121.318 249.519 121.291 249.555 121.272C249.576 121.258 249.6 121.251 249.625 121.251C249.651 121.251 249.675 121.258 249.696 121.272C249.717 121.296 249.734 121.324 249.747 121.353C249.767 121.386 249.794 121.414 249.827 121.435C249.859 121.457 249.896 121.471 249.934 121.476L249.889 121.776L249.461 121.35Z" fill="#727A9C"/>
<path d="M246.063 115.251C246.063 115.251 251.291 115.221 250.06 117.441C248.829 119.661 246.906 119.929 246.906 119.929L246.063 115.251Z" fill="#FFB0B1"/>
<path d="M213.549 15.619H213.323C204.342 15.619 196.399 20.3625 191.83 27.3622C187.261 20.3625 179.318 15.619 170.337 15.619H170.111C163.371 15.6831 156.929 18.3996 152.184 23.1782C147.439 27.9568 144.776 34.4113 144.772 41.1391C144.772 49.4936 148.438 61.3479 155.586 71.1023C169.206 89.6889 191.83 105.95 191.83 105.95C191.83 105.95 214.455 89.6919 228.071 71.1023C235.222 61.3479 238.885 49.4936 238.885 41.1391C238.881 34.4119 236.218 27.9578 231.474 23.1793C226.73 18.4008 220.288 15.6839 213.549 15.619ZM210.319 72.5323C209.296 72.5284 208.299 72.2159 207.457 71.6358C206.615 71.0557 205.969 70.2352 205.603 69.2818H200.233C199.88 69.2796 199.536 69.1673 199.249 68.9605C198.963 68.7537 198.748 68.4627 198.635 68.1282L196.986 63.1684L191.767 81.3705C191.665 81.7209 191.452 82.0289 191.16 82.2483C190.868 82.4677 190.513 82.5866 190.148 82.5871H190.042C189.661 82.5687 189.297 82.4203 189.013 82.1666C188.728 81.9129 188.539 81.5693 188.477 81.1932L183.099 48.9048L179.168 68.0111C179.078 68.374 178.868 68.6964 178.573 68.9267C178.278 69.1571 177.914 69.2821 177.54 69.2818H169.976C169.749 69.2914 169.523 69.2551 169.311 69.1751C169.098 69.0951 168.904 68.9731 168.741 68.8163C168.577 68.6596 168.446 68.4714 168.357 68.263C168.268 68.0547 168.222 67.8305 168.222 67.604C168.222 67.3775 168.268 67.1534 168.357 66.945C168.446 66.7367 168.577 66.5485 168.741 66.3917C168.904 66.235 169.098 66.1129 169.311 66.0329C169.523 65.9529 169.749 65.9166 169.976 65.9262H176.215L181.783 40.2379C181.875 39.8581 182.096 39.5218 182.408 39.2864C182.72 39.0511 183.105 38.9314 183.496 38.9477C183.887 38.964 184.26 39.1154 184.551 39.3759C184.843 39.6365 185.035 39.99 185.094 40.3761L190.587 73.3134L195.264 57.028C195.362 56.685 195.568 56.3826 195.851 56.1661C196.135 55.9495 196.481 55.8303 196.838 55.8263H196.871C197.225 55.8264 197.57 55.938 197.856 56.1452C198.143 56.3523 198.356 56.6445 198.467 56.9799L201.449 65.9352H205.537C205.827 65.054 206.356 64.2701 207.065 63.6699C207.774 63.0698 208.635 62.6767 209.553 62.5342C210.472 62.3917 211.412 62.5053 212.27 62.8623C213.128 63.2194 213.87 63.8061 214.415 64.5577C214.96 65.3093 215.286 66.1965 215.358 67.1215C215.429 68.0465 215.243 68.9732 214.821 69.7995C214.398 70.6257 213.755 71.3192 212.962 71.8036C212.169 72.288 211.258 72.5443 210.328 72.5443L210.319 72.5323Z" fill="#EC5863"/>
</g>
<defs>
<linearGradient id="paint0_linear_6_207" x1="108.348" y1="232.953" x2="108.348" y2="48.0966" gradientUnits="userSpaceOnUse">
<stop stop-color="#808080" stop-opacity="0.25"/>
<stop offset="0.54" stop-color="#808080" stop-opacity="0.12"/>
<stop offset="1" stop-color="#808080" stop-opacity="0.1"/>
</linearGradient>
<linearGradient id="paint1_linear_6_207" x1="67184.1" y1="139477" x2="67184.1" y2="44588.4" gradientUnits="userSpaceOnUse">
<stop stop-color="#808080" stop-opacity="0.25"/>
<stop offset="0.54" stop-color="#808080" stop-opacity="0.12"/>
<stop offset="1" stop-color="#808080" stop-opacity="0.1"/>
</linearGradient>
</defs>
</svg>
