<svg width="140" height="40" viewBox="0 0 140 40" fill="none" xmlns="http://www.w3.org/2000/svg">
<path d="M51.462 26.1415C49.734 26.1415 48.384 25.7215 47.412 24.8815C46.44 24.0295 45.924 22.8235 45.864 21.2635C45.852 20.9155 45.846 20.3635 45.846 19.6075C45.846 18.8515 45.852 18.2995 45.864 17.9515C45.924 16.4275 46.446 15.2515 47.43 14.4235C48.426 13.5955 49.77 13.1815 51.462 13.1815C52.602 13.1815 53.592 13.3675 54.432 13.7395C55.284 14.1115 55.932 14.5855 56.376 15.1615C56.832 15.7375 57.072 16.3315 57.096 16.9435C57.096 17.0515 57.054 17.1415 56.97 17.2135C56.898 17.2855 56.808 17.3215 56.7 17.3215H54.072C53.952 17.3215 53.856 17.3035 53.784 17.2675C53.712 17.2315 53.652 17.1655 53.604 17.0695C53.448 16.7215 53.202 16.4215 52.866 16.1695C52.53 15.9055 52.062 15.7735 51.462 15.7735C50.034 15.7735 49.284 16.5295 49.212 18.0415C49.2 18.3775 49.194 18.8995 49.194 19.6075C49.194 20.3035 49.2 20.8255 49.212 21.1735C49.284 22.7575 50.052 23.5495 51.516 23.5495C52.224 23.5495 52.788 23.3695 53.208 23.0095C53.64 22.6375 53.856 22.0735 53.856 21.3175V20.9755H52.164C52.032 20.9755 51.924 20.9335 51.84 20.8495C51.756 20.7535 51.714 20.6395 51.714 20.5075V19.1755C51.714 19.0435 51.756 18.9355 51.84 18.8515C51.924 18.7555 52.032 18.7075 52.164 18.7075H56.7C56.832 18.7075 56.94 18.7555 57.024 18.8515C57.108 18.9355 57.15 19.0435 57.15 19.1755V21.2275C57.15 22.2475 56.916 23.1295 56.448 23.8735C55.98 24.6055 55.314 25.1695 54.45 25.5655C53.598 25.9495 52.602 26.1415 51.462 26.1415ZM63.4451 26.1415C61.9571 26.1415 60.8111 25.7875 60.0071 25.0795C59.2031 24.3715 58.7651 23.3755 58.6931 22.0915C58.6811 21.9355 58.6751 21.6655 58.6751 21.2815C58.6751 20.8975 58.6811 20.6275 58.6931 20.4715C58.7651 19.1995 59.2151 18.2095 60.0431 17.5015C60.8711 16.7815 62.0051 16.4215 63.4451 16.4215C64.8971 16.4215 66.0371 16.7815 66.8651 17.5015C67.6931 18.2095 68.1431 19.1995 68.2151 20.4715C68.2271 20.6275 68.2331 20.8975 68.2331 21.2815C68.2331 21.6655 68.2271 21.9355 68.2151 22.0915C68.1431 23.3755 67.7051 24.3715 66.9011 25.0795C66.0971 25.7875 64.9451 26.1415 63.4451 26.1415ZM63.4451 23.9455C63.9731 23.9455 64.3631 23.7895 64.6151 23.4775C64.8671 23.1535 65.0111 22.6615 65.0471 22.0015C65.0591 21.8815 65.0651 21.6415 65.0651 21.2815C65.0651 20.9215 65.0591 20.6815 65.0471 20.5615C65.0111 19.9135 64.8611 19.4275 64.5971 19.1035C64.3451 18.7795 63.9611 18.6175 63.4451 18.6175C62.4491 18.6175 61.9211 19.2655 61.8611 20.5615L61.8431 21.2815L61.8611 22.0015C61.8851 22.6615 62.0231 23.1535 62.2751 23.4775C62.5391 23.7895 62.9291 23.9455 63.4451 23.9455Z" fill="black"/>
<path d="M75.385 26.1415C73.669 26.1415 72.325 25.7275 71.353 24.8995C70.393 24.0595 69.883 22.8475 69.823 21.2635C69.811 20.9395 69.805 20.4115 69.805 19.6795C69.805 18.9355 69.811 18.3955 69.823 18.0595C69.883 16.4995 70.405 15.2995 71.389 14.4595C72.373 13.6075 73.705 13.1815 75.385 13.1815C76.441 13.1815 77.389 13.3615 78.229 13.7215C79.069 14.0695 79.729 14.5735 80.209 15.2335C80.701 15.8815 80.953 16.6435 80.965 17.5195V17.5555C80.965 17.6515 80.923 17.7355 80.839 17.8075C80.767 17.8675 80.683 17.8975 80.587 17.8975H78.157C78.001 17.8975 77.881 17.8675 77.797 17.8075C77.713 17.7355 77.641 17.6095 77.581 17.4295C77.413 16.8175 77.149 16.3915 76.789 16.1515C76.429 15.8995 75.955 15.7735 75.367 15.7735C73.951 15.7735 73.219 16.5655 73.171 18.1495C73.159 18.4735 73.153 18.9715 73.153 19.6435C73.153 20.3155 73.159 20.8255 73.171 21.1735C73.219 22.7575 73.951 23.5495 75.367 23.5495C75.955 23.5495 76.435 23.4235 76.807 23.1715C77.179 22.9075 77.437 22.4815 77.581 21.8935C77.629 21.7135 77.695 21.5935 77.779 21.5335C77.863 21.4615 77.989 21.4255 78.157 21.4255H80.587C80.695 21.4255 80.785 21.4615 80.857 21.5335C80.941 21.6055 80.977 21.6955 80.965 21.8035C80.953 22.6795 80.701 23.4475 80.209 24.1075C79.729 24.7555 79.069 25.2595 78.229 25.6195C77.389 25.9675 76.441 26.1415 75.385 26.1415ZM87.0876 26.1415C85.5996 26.1415 84.4536 25.7875 83.6496 25.0795C82.8456 24.3715 82.4076 23.3755 82.3356 22.0915C82.3236 21.9355 82.3176 21.6655 82.3176 21.2815C82.3176 20.8975 82.3236 20.6275 82.3356 20.4715C82.4076 19.1995 82.8576 18.2095 83.6856 17.5015C84.5136 16.7815 85.6476 16.4215 87.0876 16.4215C88.5396 16.4215 89.6796 16.7815 90.5076 17.5015C91.3356 18.2095 91.7856 19.1995 91.8576 20.4715C91.8696 20.6275 91.8756 20.8975 91.8756 21.2815C91.8756 21.6655 91.8696 21.9355 91.8576 22.0915C91.7856 23.3755 91.3476 24.3715 90.5436 25.0795C89.7396 25.7875 88.5876 26.1415 87.0876 26.1415ZM87.0876 23.9455C87.6156 23.9455 88.0056 23.7895 88.2576 23.4775C88.5096 23.1535 88.6536 22.6615 88.6896 22.0015C88.7016 21.8815 88.7076 21.6415 88.7076 21.2815C88.7076 20.9215 88.7016 20.6815 88.6896 20.5615C88.6536 19.9135 88.5036 19.4275 88.2396 19.1035C87.9876 18.7795 87.6036 18.6175 87.0876 18.6175C86.0916 18.6175 85.5636 19.2655 85.5036 20.5615L85.4856 21.2815L85.5036 22.0015C85.5276 22.6615 85.6656 23.1535 85.9176 23.4775C86.1816 23.7895 86.5716 23.9455 87.0876 23.9455ZM94.1135 25.9615C93.9815 25.9615 93.8735 25.9195 93.7895 25.8355C93.7055 25.7515 93.6635 25.6435 93.6635 25.5115V17.0515C93.6635 16.9195 93.7055 16.8115 93.7895 16.7275C93.8735 16.6435 93.9815 16.6015 94.1135 16.6015H96.1835C96.3155 16.6015 96.4235 16.6495 96.5075 16.7455C96.6035 16.8295 96.6515 16.9315 96.6515 17.0515V17.7715C97.3115 16.9915 98.1995 16.6015 99.3155 16.6015H100.108C100.24 16.6015 100.348 16.6435 100.432 16.7275C100.516 16.8115 100.558 16.9195 100.558 17.0515V18.9055C100.558 19.0255 100.516 19.1335 100.432 19.2295C100.348 19.3135 100.24 19.3555 100.108 19.3555H98.3615C97.8695 19.3555 97.4855 19.4935 97.2095 19.7695C96.9455 20.0335 96.8135 20.4115 96.8135 20.9035V25.5115C96.8135 25.6435 96.7655 25.7515 96.6695 25.8355C96.5855 25.9195 96.4775 25.9615 96.3455 25.9615H94.1135ZM106.177 26.1415C104.689 26.1415 103.543 25.7875 102.739 25.0795C101.935 24.3715 101.497 23.3755 101.425 22.0915C101.413 21.9355 101.407 21.6655 101.407 21.2815C101.407 20.8975 101.413 20.6275 101.425 20.4715C101.497 19.1995 101.947 18.2095 102.775 17.5015C103.603 16.7815 104.737 16.4215 106.177 16.4215C107.629 16.4215 108.769 16.7815 109.597 17.5015C110.425 18.2095 110.875 19.1995 110.947 20.4715C110.959 20.6275 110.965 20.8975 110.965 21.2815C110.965 21.6655 110.959 21.9355 110.947 22.0915C110.875 23.3755 110.437 24.3715 109.633 25.0795C108.829 25.7875 107.677 26.1415 106.177 26.1415ZM106.177 23.9455C106.705 23.9455 107.095 23.7895 107.347 23.4775C107.599 23.1535 107.743 22.6615 107.779 22.0015C107.791 21.8815 107.797 21.6415 107.797 21.2815C107.797 20.9215 107.791 20.6815 107.779 20.5615C107.743 19.9135 107.593 19.4275 107.329 19.1035C107.077 18.7795 106.693 18.6175 106.177 18.6175C105.181 18.6175 104.653 19.2655 104.593 20.5615L104.575 21.2815L104.593 22.0015C104.617 22.6615 104.755 23.1535 105.007 23.4775C105.271 23.7895 105.661 23.9455 106.177 23.9455ZM113.203 25.9615C113.071 25.9615 112.963 25.9195 112.879 25.8355C112.795 25.7515 112.753 25.6435 112.753 25.5115V17.0515C112.753 16.9195 112.795 16.8115 112.879 16.7275C112.963 16.6435 113.071 16.6015 113.203 16.6015H115.273C115.405 16.6015 115.513 16.6435 115.597 16.7275C115.693 16.8115 115.741 16.9195 115.741 17.0515V17.7355C116.065 17.3395 116.479 17.0215 116.983 16.7815C117.499 16.5415 118.081 16.4215 118.729 16.4215C119.785 16.4215 120.643 16.7815 121.303 17.5015C121.963 18.2095 122.293 19.2055 122.293 20.4895V25.5115C122.293 25.6315 122.251 25.7395 122.167 25.8355C122.083 25.9195 121.975 25.9615 121.843 25.9615H119.575C119.455 25.9615 119.347 25.9195 119.251 25.8355C119.167 25.7395 119.125 25.6315 119.125 25.5115V20.5975C119.125 20.0335 118.987 19.6015 118.711 19.3015C118.435 18.9895 118.039 18.8335 117.523 18.8335C117.019 18.8335 116.623 18.9895 116.335 19.3015C116.047 19.6015 115.903 20.0335 115.903 20.5975V25.5115C115.903 25.6315 115.861 25.7395 115.777 25.8355C115.693 25.9195 115.585 25.9615 115.453 25.9615H113.203ZM127.128 26.1415C126.492 26.1415 125.91 26.0215 125.382 25.7815C124.866 25.5295 124.458 25.1935 124.158 24.7735C123.87 24.3415 123.726 23.8675 123.726 23.3515C123.726 22.5235 124.062 21.8575 124.734 21.3535C125.418 20.8495 126.354 20.5015 127.542 20.3095L129.792 19.9675V19.7155C129.792 19.2595 129.696 18.9235 129.504 18.7075C129.312 18.4915 128.988 18.3835 128.532 18.3835C128.256 18.3835 128.028 18.4315 127.848 18.5275C127.668 18.6235 127.482 18.7555 127.29 18.9235C127.122 19.0675 126.996 19.1635 126.912 19.2115C126.876 19.3075 126.81 19.3555 126.714 19.3555H124.752C124.632 19.3555 124.53 19.3195 124.446 19.2475C124.374 19.1635 124.344 19.0675 124.356 18.9595C124.368 18.6355 124.524 18.2755 124.824 17.8795C125.136 17.4835 125.604 17.1415 126.228 16.8535C126.864 16.5655 127.644 16.4215 128.568 16.4215C130.044 16.4215 131.136 16.7515 131.844 17.4115C132.552 18.0595 132.906 18.9355 132.906 20.0395V25.5115C132.906 25.6315 132.864 25.7395 132.78 25.8355C132.696 25.9195 132.588 25.9615 132.456 25.9615H130.368C130.248 25.9615 130.14 25.9195 130.044 25.8355C129.96 25.7395 129.918 25.6315 129.918 25.5115V24.8815C129.654 25.2535 129.282 25.5595 128.802 25.7995C128.334 26.0275 127.776 26.1415 127.128 26.1415ZM127.974 24.0895C128.526 24.0895 128.97 23.9095 129.306 23.5495C129.654 23.1895 129.828 22.6615 129.828 21.9655V21.7135L128.298 21.9835C127.218 22.1755 126.678 22.5535 126.678 23.1175C126.678 23.4175 126.804 23.6575 127.056 23.8375C127.308 24.0055 127.614 24.0895 127.974 24.0895Z" fill="#EC5863"/>
<path d="M14.2208 4.98863C15.6455 4.48912 17.2113 5.16279 17.7174 6.49267C18.1048 7.51085 17.7581 8.61763 16.9363 9.30523L17.3804 10.5162L18.0869 11.3315C18.2482 11.5181 18.4928 11.6073 18.738 11.5772C19.3991 11.4958 20.056 11.4928 20.6993 11.5604C20.9173 11.5836 21.1342 11.5115 21.2907 11.3595L21.8005 10.866L22.1764 9.77179C21.8566 9.33288 21.7483 8.75159 21.9379 8.19928C22.2597 7.263 23.3107 6.7791 24.2454 7.16251C25.0506 7.49239 25.4887 8.38803 25.253 9.22147C25.1032 9.75234 24.7241 10.1499 24.2576 10.3467L23.8415 11.5594L23.9364 12.2275C23.969 12.4572 24.1054 12.6579 24.3047 12.7781C24.9746 13.1847 25.5899 13.6816 26.1301 14.2562C26.3116 14.4496 26.5824 14.5325 26.8427 14.48L28.1825 14.211L29.6961 13.3716C29.7039 12.6273 30.1017 11.9078 30.8019 11.5194C31.8606 10.9326 33.2014 11.327 33.7655 12.4023C34.2748 13.3724 33.9551 14.5919 33.0327 15.1892C32.3124 15.6547 31.4335 15.6376 30.7551 15.2401L29.2325 16.084L28.3823 16.987C28.1541 17.2293 28.0728 17.572 28.1599 17.8928C28.1604 17.8947 28.1607 17.8959 28.1612 17.8978C28.3102 18.4507 28.4006 19.0062 28.438 19.557C28.4597 19.8851 28.6454 20.1802 28.9362 20.337L30.0459 20.9352L32.2454 21.35C32.6331 21.0124 33.1672 20.849 33.7129 20.9515C34.6915 21.1363 35.3215 22.1047 35.0708 23.0796C34.8551 23.9145 34.0325 24.4702 33.1723 24.3609C32.5857 24.2863 32.1121 23.9337 31.8578 23.4597L29.6441 23.0427L28.2787 23.2088C28.027 23.24 27.8072 23.3974 27.7046 23.6279C27.296 24.5379 26.7323 25.3747 26.0363 26.0972C25.8634 26.2767 25.7985 26.5337 25.8613 26.7743L26.2006 28.0843L27.0384 29.3942C27.9599 29.2563 28.9188 29.6536 29.4508 30.4856C30.1659 31.6033 29.8415 33.0834 28.7285 33.8046C27.6161 34.5256 26.1023 34.2118 25.3732 33.108C24.8627 32.3353 24.8571 31.3819 25.2709 30.6256L24.3815 29.2354L23.288 28.3383C23.1261 28.2047 22.9054 28.1694 22.7078 28.2397C22.4885 28.3177 22.2649 28.3875 22.0362 28.4484C20.7935 28.7796 19.5406 28.8223 18.3489 28.6198C18.1742 28.5905 17.9955 28.6401 17.8619 28.7556L17.2751 29.2641L16.8386 30.3359C17.1339 30.7922 17.2093 31.3782 16.9894 31.919C16.6156 32.8366 15.5392 33.2616 14.6276 32.8273C13.8425 32.4535 13.4548 31.5349 13.7366 30.7156C13.916 30.1938 14.3158 29.8177 14.7928 29.6473L15.2763 28.4594L15.1865 27.416C14.3146 26.8716 13.5388 26.173 12.9044 25.3473L11.4132 25.4941L10.0175 26.1823C10.0266 27.1157 9.54482 28.0039 8.69918 28.4337C7.50426 29.0406 6.03648 28.5033 5.42117 27.233C4.80604 25.9634 5.27521 24.442 6.47012 23.8351C7.36433 23.3808 8.41073 23.5672 9.13879 24.2224L10.455 23.573L11.3685 22.5962C11.4282 22.5322 11.4503 22.4423 11.4276 22.3583L11.4273 22.357C11.0051 20.7901 11.0482 19.2063 11.4718 17.7506C11.4945 17.6707 11.4774 17.5845 11.4235 17.521L10.6355 16.5825L8.93758 15.6941C8.46992 15.8993 7.9155 15.8988 7.42793 15.6434C6.54711 15.182 6.22972 14.0747 6.75476 13.2156C7.2157 12.4624 8.19747 12.1764 8.99469 12.5625C9.51073 12.8124 9.84362 13.2796 9.94203 13.7965L11.6399 14.6849L12.8484 14.7982C12.9323 14.8064 13.0141 14.771 13.0674 14.706C13.6155 14.0311 14.268 13.4354 15.0092 12.9466C15.2126 12.8119 15.339 12.5886 15.3422 12.3453L15.3547 11.2517L14.881 9.96127C13.8541 9.88754 12.9251 9.26762 12.557 8.30053C12.0509 6.97065 12.7959 5.48751 14.2208 4.98863Z" fill="#EC5863"/>
<path d="M25.9898 18.4765C25.0729 15.0736 21.5559 13.0542 18.1342 13.966C14.7125 14.8778 12.6819 18.3755 13.5988 21.7784C14.5156 25.1813 18.0327 27.2007 21.4543 26.2889C24.876 25.3771 26.9066 21.8794 25.9898 18.4765Z" fill="#F58A97"/>
<path d="M20.9484 24.4109C17.8476 25.2372 14.6687 23.6565 13.4173 20.8204C13.4527 21.1391 13.5128 21.4591 13.5988 21.7784C14.5156 25.1813 18.0326 27.2007 21.4543 26.2889C24.8761 25.3771 26.9066 21.8794 25.9898 18.4765C25.9037 18.1572 25.7949 17.8502 25.6653 17.5565C26.0073 20.6349 24.049 23.5846 20.9484 24.4109Z" fill="#F07281"/>
<path d="M11.324 33.4959C11.0629 32.5268 10.0614 31.9518 9.08698 32.2114C8.11258 32.4711 7.53433 33.4671 7.79542 34.4362C8.05651 35.4052 9.05807 35.9803 10.0325 35.7206C11.0069 35.461 11.5851 34.4649 11.324 33.4959Z" fill="#EB5569"/>
<path d="M34.1106 27.9379C33.9381 27.2978 33.2766 26.918 32.633 27.0895C31.9894 27.261 31.6074 27.9189 31.7799 28.5589C31.9523 29.199 32.6139 29.5788 33.2575 29.4073C33.9011 29.2358 34.283 28.5779 34.1106 27.9379Z" fill="#EB5569"/>
<path d="M30.8429 6.00207C30.5889 5.0593 29.6145 4.49981 28.6665 4.75243C27.7185 5.00504 27.1559 5.97409 27.4099 6.91686C27.6639 7.85963 28.6383 8.41912 29.5863 8.1665C30.5343 7.91389 31.0969 6.94484 30.8429 6.00207Z" fill="#EB5569"/>
<path d="M20.1955 22.0476C19.9587 21.1686 19.0502 20.647 18.1664 20.8826C17.2826 21.1181 16.7581 22.0215 16.9949 22.9005C17.2318 23.7794 18.1402 24.301 19.024 24.0655C19.9078 23.83 20.4323 22.9265 20.1955 22.0476Z" fill="#EB5569"/>
<path d="M24.3108 19.5817C24.1496 18.9835 23.5313 18.6284 22.9297 18.7887C22.3281 18.949 21.9711 19.564 22.1323 20.1622C22.2935 20.7605 22.9119 21.1155 23.5134 20.9552C24.115 20.7949 24.472 20.18 24.3108 19.5817Z" fill="#EB5569"/>
<path d="M19.9578 17.096C19.8224 16.5936 19.3032 16.2955 18.7981 16.4301C18.2929 16.5647 17.9931 17.0811 18.1285 17.5835C18.2639 18.0859 18.7831 18.384 19.2882 18.2494C19.7934 18.1148 20.0932 17.5984 19.9578 17.096Z" fill="#EB5569"/>
</svg>
