<svg width="548" height="395" viewBox="0 0 548 395" fill="none" xmlns="http://www.w3.org/2000/svg">
<path opacity="0.6" d="M318.251 69.5495C283.183 68.33 249.758 57.0017 217.888 44.6102C186.019 32.2186 154.431 18.4866 120.185 11.9204C98.1664 7.69243 72.9851 7.09779 55.2474 18.9099C38.1745 30.2734 32.6598 49.8913 29.6935 68.0932C27.4624 81.7899 26.1681 96.2022 32.267 109.027C36.5126 117.927 44.0468 125.41 49.2593 133.936C67.3898 163.603 54.5726 200.188 34.9211 229.179C25.7048 242.785 15.0128 255.731 7.90161 270.198C0.790417 284.666 -2.50329 301.24 3.72152 315.995C9.89093 330.609 24.5867 341.605 40.5113 349.33C72.8542 365.007 110.963 369.492 148.126 372.062C230.388 377.691 313.093 375.252 395.572 372.813C426.097 371.906 456.758 370.994 486.784 366.262C503.459 363.636 520.678 359.474 532.785 349.426C548.151 336.666 551.963 315.068 541.664 299.068C524.389 272.239 476.631 265.572 464.554 236.778C457.911 220.929 464.735 203.272 474.395 188.572C495.109 157.041 529.839 129.376 531.667 93.3299C532.926 68.5719 516.231 43.7837 490.415 32.0674C463.36 19.7766 425.84 21.3287 405.881 41.642C385.328 62.5701 349.208 70.6229 318.251 69.5495Z" fill="#587EEC"/>
<path d="M122.436 365.36C122.436 365.36 94.7368 344.407 89.5041 317.754C87.3821 306.56 81.6903 296.356 73.2823 288.672C69.2601 285.058 64.9159 281.819 60.3039 278.997" stroke="#9AB1F3" stroke-width="2" stroke-miterlimit="10"/>
<path d="M56.9145 262.206C59.342 265.492 60.4399 279.415 60.4399 279.415C60.4399 279.415 47.4615 274.3 45.0289 271.02C43.8609 269.443 43.3668 267.466 43.6553 265.524C43.9438 263.583 44.9914 261.835 46.5675 260.667C48.1436 259.498 50.1192 259.003 52.0597 259.292C54.0001 259.581 55.7464 260.629 56.9145 262.206Z" fill="#587EEC"/>
<path d="M80.1921 273.131C80.4439 277.208 73.8112 289.494 73.8112 289.494C73.8112 289.494 65.6877 278.135 65.4308 274.058C65.3332 272.115 66.0048 270.211 67.3002 268.76C68.5955 267.308 70.4104 266.426 72.3514 266.304C74.2924 266.182 76.2033 266.83 77.6699 268.108C79.1366 269.386 80.041 271.191 80.1871 273.131H80.1921Z" fill="#587EEC"/>
<path d="M102.754 304.536C100.921 308.184 88.9903 315.441 88.9903 315.441C88.9903 315.441 87.7162 301.533 89.5494 297.884C90.4518 296.168 91.9913 294.876 93.8366 294.284C95.682 293.693 97.6856 293.85 99.4163 294.722C101.147 295.594 102.467 297.111 103.091 298.946C103.715 300.781 103.594 302.789 102.754 304.536Z" fill="#587EEC"/>
<path d="M114.484 332.131C113.29 336.037 102.759 345.203 102.759 345.203C102.759 345.203 99.1484 331.713 100.342 327.802C100.916 325.926 102.211 324.354 103.943 323.433C105.674 322.512 107.701 322.318 109.576 322.892C111.451 323.466 113.022 324.762 113.942 326.494C114.863 328.227 115.057 330.255 114.484 332.131Z" fill="#587EEC"/>
<path d="M61.8047 299.371C65.8337 299.915 78.5704 294.16 78.5704 294.16C78.5704 294.16 67.823 285.251 63.7738 284.707C61.8304 284.445 59.8628 284.967 58.304 286.157C56.7451 287.348 55.7226 289.109 55.4615 291.053C55.2004 292.998 55.722 294.967 56.9115 296.527C58.1011 298.086 59.8612 299.11 61.8047 299.371Z" fill="#587EEC"/>
<path d="M75.9313 331.476C79.9603 330.786 90.3702 321.488 90.3702 321.488C90.3702 321.488 77.4472 316.207 73.4232 316.897C72.4598 317.055 71.5372 317.403 70.7087 317.919C69.8801 318.436 69.1621 319.112 68.5959 319.908C68.0298 320.704 67.6268 321.604 67.4102 322.556C67.1936 323.509 67.1677 324.495 67.334 325.457C67.5002 326.42 67.8554 327.34 68.3789 328.165C68.9025 328.989 69.584 329.702 70.3843 330.261C71.1845 330.821 72.0876 331.216 73.0414 331.425C73.9952 331.633 74.9808 331.651 75.9414 331.476H75.9313Z" fill="#587EEC"/>
<path d="M93.9359 360.799C98.0203 360.799 109.855 353.397 109.855 353.397C109.855 353.397 98.0152 346.004 93.9308 346.004C91.97 346.004 90.0895 346.783 88.703 348.171C87.3165 349.558 86.5376 351.44 86.5376 353.402C86.5376 355.364 87.3165 357.245 88.703 358.633C90.0895 360.02 91.97 360.799 93.9308 360.799H93.9359Z" fill="#587EEC"/>
<path d="M391.523 184.133C391.523 184.133 408.596 153.872 434.331 145.154C445.138 141.563 454.489 134.563 460.983 125.203C464.029 120.729 466.657 115.984 468.835 111.028" stroke="#9AB1F3" stroke-width="2" stroke-miterlimit="10"/>
<path d="M484.991 105.485C482.06 108.327 468.417 111.27 468.417 111.27C468.417 111.27 471.766 97.714 474.697 94.8668C476.112 93.5414 477.99 92.8249 479.927 92.8716C481.865 92.9182 483.707 93.7242 485.056 95.1161C486.406 96.508 487.155 98.3745 487.143 100.314C487.131 102.253 486.358 104.11 484.991 105.485Z" fill="#587EEC"/>
<path d="M477.275 129.991C473.246 130.787 460.218 125.838 460.218 125.838C460.218 125.838 470.391 116.264 474.395 115.483C475.356 115.269 476.35 115.25 477.319 115.426C478.288 115.602 479.212 115.971 480.037 116.509C480.861 117.048 481.57 117.745 482.122 118.562C482.673 119.378 483.056 120.296 483.248 121.263C483.44 122.229 483.437 123.224 483.239 124.19C483.041 125.155 482.653 126.071 482.097 126.884C481.54 127.697 480.827 128.391 479.999 128.924C479.171 129.458 478.245 129.82 477.275 129.991Z" fill="#587EEC"/>
<path d="M449.193 156.538C445.335 155.202 436.567 144.337 436.567 144.337C436.567 144.337 450.165 141.223 454.033 142.559C454.962 142.867 455.821 143.357 456.56 144C457.298 144.644 457.902 145.427 458.335 146.306C458.768 147.184 459.023 148.14 459.084 149.118C459.145 150.096 459.012 151.076 458.691 152.002C458.371 152.927 457.87 153.78 457.217 154.51C456.564 155.241 455.773 155.834 454.89 156.256C454.006 156.678 453.048 156.92 452.07 156.969C451.092 157.017 450.114 156.87 449.193 156.538Z" fill="#587EEC"/>
<path d="M423.387 171.837C419.358 171.172 408.903 161.924 408.903 161.924C408.903 161.924 421.791 156.553 425.815 157.218C427.752 157.537 429.483 158.612 430.627 160.208C431.771 161.804 432.235 163.789 431.916 165.727C431.598 167.665 430.523 169.396 428.928 170.541C427.333 171.686 425.349 172.15 423.413 171.832L423.387 171.837Z" fill="#587EEC"/>
<path d="M448.841 115.241C448.836 119.328 456.244 131.185 456.244 131.185C456.244 131.185 463.642 119.343 463.642 115.261C463.668 114.273 463.496 113.291 463.136 112.371C462.776 111.451 462.236 110.613 461.547 109.906C460.858 109.198 460.035 108.636 459.125 108.252C458.216 107.868 457.239 107.67 456.252 107.67C455.264 107.67 454.287 107.868 453.378 108.252C452.468 108.636 451.645 109.198 450.956 109.906C450.267 110.613 449.727 111.451 449.367 112.371C449.007 113.291 448.835 114.273 448.861 115.261L448.841 115.241Z" fill="#587EEC"/>
<path d="M418.91 133.513C420.129 137.414 430.725 146.509 430.725 146.509C430.725 146.509 434.251 132.994 433.022 129.094C432.385 127.287 431.071 125.797 429.359 124.94C427.646 124.082 425.668 123.923 423.84 124.496C422.012 125.068 420.478 126.329 419.561 128.011C418.643 129.692 418.413 131.665 418.92 133.513H418.91Z" fill="#587EEC"/>
<path d="M392.284 155.268C392.827 159.299 401.732 170.068 401.732 170.068C401.732 170.068 407.478 157.344 406.934 153.297C406.826 152.317 406.523 151.368 406.043 150.506C405.564 149.645 404.916 148.888 404.14 148.28C403.363 147.672 402.473 147.226 401.522 146.968C400.571 146.709 399.577 146.644 398.6 146.775C397.623 146.907 396.682 147.232 395.833 147.733C394.984 148.233 394.243 148.899 393.654 149.69C393.066 150.482 392.641 151.383 392.406 152.34C392.17 153.298 392.129 154.293 392.284 155.268Z" fill="#587EEC"/>
<path opacity="0.25" d="M484.991 105.485C482.06 108.327 468.417 111.27 468.417 111.27C468.417 111.27 471.766 97.714 474.697 94.8668C476.112 93.5414 477.99 92.8249 479.927 92.8716C481.865 92.9182 483.707 93.7242 485.056 95.1161C486.406 96.508 487.155 98.3745 487.143 100.314C487.131 102.253 486.358 104.11 484.991 105.485Z" fill="black"/>
<path opacity="0.25" d="M477.275 129.991C473.246 130.787 460.218 125.838 460.218 125.838C460.218 125.838 470.391 116.264 474.395 115.483C475.356 115.269 476.35 115.25 477.319 115.426C478.288 115.602 479.212 115.971 480.037 116.509C480.861 117.048 481.57 117.745 482.122 118.562C482.673 119.378 483.056 120.296 483.248 121.263C483.44 122.229 483.437 123.224 483.239 124.19C483.041 125.155 482.653 126.071 482.097 126.884C481.54 127.697 480.827 128.391 479.999 128.924C479.171 129.458 478.245 129.82 477.275 129.991Z" fill="black"/>
<path opacity="0.25" d="M449.193 156.538C445.335 155.202 436.567 144.337 436.567 144.337C436.567 144.337 450.165 141.223 454.033 142.559C454.962 142.867 455.821 143.357 456.56 144C457.298 144.644 457.902 145.427 458.335 146.306C458.768 147.184 459.023 148.14 459.084 149.118C459.145 150.096 459.012 151.076 458.691 152.002C458.371 152.927 457.87 153.78 457.217 154.51C456.564 155.241 455.773 155.834 454.89 156.256C454.006 156.678 453.048 156.92 452.07 156.969C451.092 157.017 450.114 156.87 449.193 156.538Z" fill="black"/>
<path opacity="0.25" d="M423.387 171.837C419.358 171.172 408.903 161.924 408.903 161.924C408.903 161.924 421.791 156.553 425.815 157.218C427.752 157.537 429.483 158.612 430.627 160.208C431.771 161.804 432.235 163.789 431.916 165.727C431.598 167.665 430.523 169.396 428.928 170.541C427.333 171.686 425.349 172.15 423.413 171.832L423.387 171.837Z" fill="black"/>
<path opacity="0.25" d="M448.841 115.241C448.836 119.328 456.244 131.185 456.244 131.185C456.244 131.185 463.642 119.343 463.642 115.261C463.668 114.273 463.496 113.291 463.136 112.371C462.776 111.451 462.236 110.613 461.547 109.906C460.858 109.198 460.035 108.636 459.125 108.252C458.216 107.868 457.239 107.67 456.252 107.67C455.264 107.67 454.287 107.868 453.378 108.252C452.468 108.636 451.645 109.198 450.956 109.906C450.267 110.613 449.727 111.451 449.367 112.371C449.007 113.291 448.835 114.273 448.861 115.261L448.841 115.241Z" fill="black"/>
<path opacity="0.25" d="M418.91 133.513C420.129 137.414 430.725 146.509 430.725 146.509C430.725 146.509 434.251 132.994 433.022 129.094C432.385 127.287 431.071 125.797 429.359 124.94C427.646 124.082 425.668 123.923 423.84 124.496C422.012 125.068 420.478 126.329 419.561 128.011C418.643 129.692 418.413 131.665 418.92 133.513H418.91Z" fill="black"/>
<path opacity="0.25" d="M392.284 155.268C392.827 159.299 401.732 170.068 401.732 170.068C401.732 170.068 407.478 157.344 406.934 153.297C406.826 152.317 406.523 151.368 406.043 150.506C405.564 149.645 404.916 148.888 404.14 148.28C403.363 147.672 402.473 147.226 401.522 146.968C400.571 146.709 399.577 146.644 398.6 146.775C397.623 146.907 396.682 147.232 395.833 147.733C394.984 148.233 394.243 148.899 393.654 149.69C393.066 150.482 392.641 151.383 392.406 152.34C392.17 153.298 392.129 154.293 392.284 155.268Z" fill="black"/>
<path d="M392.505 183.533C392.505 183.533 395.859 148.943 415.833 130.55C424.258 122.884 429.972 112.693 432.12 101.504C433.098 96.1843 433.585 90.7864 433.576 85.3779" stroke="#9AB1F3" stroke-width="2" stroke-miterlimit="10"/>
<path d="M446.096 73.707C444.585 77.4965 433.284 85.7206 433.284 85.7206C433.284 85.7206 430.856 71.9684 432.382 68.1789C433.117 66.3592 434.544 64.9061 436.349 64.1392C438.155 63.3723 440.19 63.3544 442.009 64.0895C443.828 64.8246 445.28 66.2524 446.046 68.0589C446.813 69.8653 446.831 71.9024 446.096 73.7221V73.707Z" fill="#587EEC"/>
<path d="M448.972 99.2662C445.633 101.614 431.697 102.386 431.697 102.386C431.697 102.386 437.126 89.5152 440.465 87.1669C441.257 86.5739 442.16 86.1459 443.12 85.9082C444.08 85.6706 445.078 85.6282 446.055 85.7834C447.032 85.9387 447.968 86.2885 448.807 86.8122C449.646 87.3358 450.372 88.0226 450.941 88.832C451.511 89.6414 451.912 90.5568 452.121 91.524C452.33 92.4913 452.344 93.4908 452.16 94.4633C451.976 95.4357 451.599 96.3614 451.052 97.1856C450.504 98.0097 449.797 98.7155 448.972 99.2611V99.2662Z" fill="#587EEC"/>
<path d="M434.034 134.934C429.965 135.277 417.546 128.887 417.546 128.887C417.546 128.887 428.726 120.522 432.795 120.179C434.749 120.015 436.689 120.634 438.187 121.9C439.685 123.167 440.619 124.976 440.783 126.932C440.947 128.887 440.328 130.828 439.063 132.326C437.797 133.825 435.988 134.76 434.034 134.924V134.934Z" fill="#587EEC"/>
<path d="M416.654 159.37C412.701 160.377 399.385 156.21 399.385 156.21C399.385 156.21 408.989 146.076 412.942 145.048C414.84 144.555 416.856 144.838 418.546 145.832C420.236 146.827 421.462 148.453 421.955 150.352C422.447 152.251 422.165 154.268 421.171 155.959C420.177 157.65 418.552 158.877 416.654 159.37Z" fill="#587EEC"/>
<path d="M417.007 97.3109C418.659 101.045 430.212 108.901 430.212 108.901C430.212 108.901 432.176 95.0734 430.524 91.3393C429.701 89.5923 428.228 88.2367 426.419 87.5621C424.61 86.8875 422.609 86.9475 420.844 87.7293C419.079 88.511 417.69 89.9525 416.972 91.7457C416.255 93.539 416.268 95.5417 417.007 97.326V97.3109Z" fill="#587EEC"/>
<path d="M397.043 126.146C399.737 129.215 413.103 133.236 413.103 133.236C413.103 133.236 410.847 119.454 408.153 116.385C407.517 115.639 406.739 115.027 405.865 114.585C404.991 114.143 404.037 113.879 403.06 113.809C402.083 113.738 401.102 113.863 400.173 114.175C399.245 114.488 398.388 114.982 397.651 115.628C396.915 116.275 396.315 117.062 395.885 117.943C395.456 118.824 395.205 119.781 395.149 120.76C395.092 121.738 395.23 122.718 395.556 123.643C395.881 124.567 396.386 125.418 397.043 126.146Z" fill="#587EEC"/>
<path d="M381.486 156.845C383.621 160.322 396.116 166.546 396.116 166.546C396.116 166.546 396.222 152.582 394.102 149.1C393.046 147.492 391.407 146.359 389.53 145.94C387.654 145.522 385.688 145.852 384.05 146.859C382.413 147.866 381.231 149.473 380.757 151.337C380.283 153.201 380.554 155.177 381.511 156.845H381.486Z" fill="#587EEC"/>
<path d="M366.82 48.0722C367.656 45.0033 368.663 41.9193 369.369 38.81C368.522 41.9193 367.51 45.0134 366.82 48.0722Z" fill="url(#paint0_linear_4_6)"/>
<path d="M363.073 77.6326C363.003 77.5116 362.952 77.3907 362.897 77.2798C362.897 77.2294 362.847 77.1891 362.827 77.1387C362.717 77.1905 362.604 77.236 362.489 77.2748C362.267 77.3605 362.041 77.4411 361.809 77.5066C361.577 77.5721 361.482 77.6074 361.306 77.6477C361.159 77.6981 361.01 77.7368 360.857 77.7636L360.898 77.8543C361.084 77.814 361.265 77.7787 361.452 77.7283L361.502 78.3532C361.713 78.3532 361.91 78.323 362.101 78.323C362.192 78.318 362.283 78.318 362.373 78.323C362.766 78.323 363.109 78.323 363.38 78.323C363.275 78.0962 363.164 77.8593 363.073 77.6326ZM465.309 240.467C462.942 237.277 458.218 203.04 458.218 203.04C458.218 203.04 448.926 178.695 451.459 168.98C453.993 159.264 444.54 134.405 444.54 134.405C444.54 134.405 438.295 131.689 437.957 127.657C437.957 127.657 412.459 119.595 411.265 113.547C410.298 108.589 394.484 105.031 388.803 103.907C387.071 96.9128 385.328 90.387 384.044 86.8242C383.697 85.7156 383.369 84.7581 383.067 84.0022C380.897 78.459 374.188 77.9551 369.323 78.3985C369.112 77.4538 368.721 76.5588 368.17 75.763C368.09 75.4894 367.93 75.2457 367.712 75.0625C367.607 74.9735 367.496 74.8926 367.379 74.8207C367.291 74.6573 367.175 74.5107 367.037 74.3873C366.899 74.2627 366.746 74.1545 366.584 74.0648C366.466 74.0014 366.345 73.9459 366.221 73.8985C365.929 73.7873 365.627 73.7046 365.319 73.6515C364.961 73.5777 364.597 73.5306 364.232 73.5105C365.12 73.1214 365.913 72.5416 366.553 71.8122C366.989 71.3001 367.313 70.7029 367.505 70.0585C367.665 69.5227 367.736 68.9645 367.717 68.4057C367.586 68.6359 367.434 68.8536 367.263 69.0557C367.475 66.8233 366.296 64.5556 365.622 62.3333C364.804 59.4402 364.652 56.3992 365.178 53.439C365.853 48.9742 367.525 44.459 368.658 39.9136C368.661 39.8885 368.661 39.8631 368.658 39.838C369.253 37.5807 369.621 35.2696 369.756 32.9393C369.953 28.2376 368.749 23.546 366.815 19.2627C365.098 15.4681 362.565 11.734 358.687 10.192C355.806 9.02789 352.578 9.21435 349.475 9.02285C342.515 8.58948 335.877 6.14039 329.26 3.91303C322.642 1.68567 315.833 -0.340117 308.868 0.0479073C301.903 0.435931 294.736 3.79713 291.558 9.9652C290.551 11.8902 289.972 14.0319 288.768 15.841C286.512 19.2526 282.473 20.9609 279.104 23.3142C275.735 25.6676 272.768 29.0086 271.549 32.9947C270.884 35.1422 270.79 37.4264 271.277 39.6213C271.387 40.117 271.528 40.6051 271.701 41.0827C272.179 42.4142 272.924 43.6336 273.891 44.6656C274.621 45.4284 275.459 46.0788 276.379 46.5957C277.535 47.2365 278.771 47.7179 280.056 48.0268C280.01 48.178 279.965 48.3393 279.915 48.4955C279.834 48.7525 279.764 48.9994 279.688 49.2766C279.522 49.8964 279.366 50.5263 279.235 51.1613C279.23 51.2065 279.23 51.2521 279.235 51.2973C278.616 54.1637 278.306 57.0879 278.308 60.0203C278.307 61.4072 278.378 62.7931 278.52 64.1727C280.534 84.622 297.406 100.753 318.251 101.801C318.966 101.836 319.686 101.856 320.416 101.856C320.749 101.856 321.076 101.856 321.423 101.856C321.751 102.29 322.073 102.733 322.38 103.167C322.688 103.6 322.97 104.043 323.237 104.477L322.506 103.721L321.776 103.051C321.578 103.323 321.357 103.577 321.116 103.812C320.64 103.644 320.154 103.506 319.661 103.398C317.571 102.935 314.388 102.763 310.198 104.028C306.345 105.182 301.636 107.556 296.126 112.066L269.278 128.192L254.754 137.031L249.521 149.83C249.521 149.83 245.588 165.039 241.211 182.465C241.04 182.515 240.874 182.565 240.707 182.626C240.353 182.585 239.996 182.565 239.64 182.565C237.101 182.559 234.658 183.538 232.825 185.296C230.992 187.055 229.911 189.455 229.809 191.994C221.106 202.576 220.613 213.159 222.657 218.017C222.843 218.472 223.076 218.906 223.353 219.312C224.692 221.247 227.195 226.236 229.733 231.552C229.668 231.991 229.628 232.358 229.608 232.636C229.603 232.726 229.603 232.817 229.608 232.908C229.608 232.908 231.118 255.741 226.082 262.287C224.979 263.713 225.145 265.587 226.082 267.664C229.456 275.132 242.797 285.105 242.797 285.105C242.797 285.105 258.798 285.019 267.712 284.046C267.687 284.943 267.666 285.835 267.646 286.707C267.445 295.516 267.445 302.898 267.445 302.898L267.113 312.135C267.113 312.135 264.091 331.602 262.58 336.969C261.628 340.335 262.726 371.503 263.683 394.416H421.328C423.181 380.861 420.567 339.675 420.567 339.675C420.567 339.675 418.084 329.027 417.994 319.744C417.989 319.734 417.986 319.723 417.986 319.712C417.986 319.7 417.989 319.689 417.994 319.679C417.994 318.868 417.994 318.077 418.024 317.3L419.167 317.26L421.222 317.19H421.408C421.408 317.19 421.459 316.998 421.574 316.686C421.846 315.907 422.217 315.167 422.677 314.483C423.554 313.188 424.923 311.918 426.983 311.833C428.122 311.787 429.884 310.865 431.873 309.505C431.887 309.508 431.901 309.508 431.914 309.505C437.267 305.881 444.343 299.194 446.061 298.096C448.423 296.584 459.734 286.505 459.734 286.505C459.734 286.505 461.421 284.369 463.219 281.794L463.285 281.703C465.521 278.478 467.898 274.623 467.314 273.408C466.306 271.231 467.988 266.026 467.988 266.026C473.241 256.406 467.676 243.656 465.309 240.467ZM367.923 85.4686C367.971 85.6191 368.002 85.7747 368.014 85.9323C367.888 85.766 367.762 85.5896 367.636 85.4283L367.515 85.2671L367.43 85.1461L367.621 84.8841C367.621 84.8841 367.621 84.8841 367.621 84.9194C367.754 85.0827 367.856 85.2688 367.923 85.4686ZM366.231 81.0039C365.682 81.1147 365.249 81.2155 364.967 81.2911C364.609 80.6561 364.267 80.0212 363.96 79.3762C364.767 79.8449 365.528 80.3899 366.231 81.0039ZM365.284 81.8001C365.283 81.79 365.283 81.7798 365.284 81.7698L365.324 81.8001C365.531 81.9361 365.732 82.0671 365.919 82.2032C366.085 82.3241 366.236 82.44 366.387 82.561C366.286 82.7374 366.176 82.9188 366.065 83.0649C365.889 82.7877 365.722 82.5207 365.561 82.2435C365.46 82.1327 365.37 81.9815 365.284 81.8001ZM362.262 75.5816C363.235 75.4855 364.216 75.4855 365.189 75.5816C365.324 75.5816 365.445 75.6068 365.566 75.6269C365.839 75.6692 366.108 75.7384 366.367 75.8336C366.962 76.6667 367.329 77.6415 367.43 78.6606L367.158 78.7009L366.891 78.7513C366.387 78.837 365.883 78.9226 365.491 79.0033L364.987 79.1091C364.317 79.2552 363.929 79.3661 363.914 79.3711C363.849 79.2351 363.783 79.1091 363.713 78.9781C363.602 78.7614 363.486 78.5396 363.385 78.323C363.285 78.1063 363.154 77.8593 363.048 77.6326C362.978 77.5116 362.927 77.3907 362.872 77.2798C362.872 77.2294 362.821 77.1891 362.801 77.1387C362.772 77.0853 362.747 77.0297 362.726 76.9724C362.419 76.3476 362.137 75.7227 361.865 75.1079C361.834 75.0474 361.809 74.9819 361.784 74.9214L362.167 74.8962V75.0273L362.262 75.5816ZM242.102 388.188C242.062 380.684 241.518 372.566 240.007 364.947C239.363 361.707 238.698 358.466 238.023 355.281C237.852 354.485 237.686 353.699 237.519 352.913L235.968 353.12H235.827C231.597 333.159 227.175 315.572 227.175 315.572C227.175 315.572 218.392 282.015 219.409 279.34C219.54 278.992 219.374 278.055 219.001 276.679C216.876 269.049 208.002 248.026 204.9 240.84C204.9 240.809 204.874 240.774 204.864 240.749C204.361 239.544 203.998 238.733 203.887 238.496L204.618 227.773L204.658 227.128L204.754 225.757L204.713 225.722L204.754 225.087C204.754 225.087 197.088 218.798 184.105 214.257C183.601 214.076 183.068 213.9 182.539 213.728C183.188 209.389 184.05 204.491 185.173 199.719C185.278 199.24 185.394 198.777 185.515 198.308C185.621 197.839 185.742 197.386 185.863 196.927C186.054 196.181 186.26 195.446 186.472 194.72C187.172 194.498 187.862 194.251 188.542 193.989L188.804 193.889C197.18 190.628 204.091 184.44 208.257 176.472C212.424 168.504 213.564 159.295 211.467 150.551C210.271 145.591 208.062 140.933 204.98 136.869C204.749 136.557 204.502 136.244 204.255 135.937C204.008 135.63 203.711 135.287 203.434 134.974C204.89 131.664 206.607 128.514 206.748 125.294C206.773 124.886 206.773 124.477 206.748 124.069V124.019C206.562 121.948 205.645 119.852 203.51 117.649C200.392 114.419 195.955 112.782 191.518 111.995C187.081 111.209 182.559 111.189 178.097 110.66C170.698 109.773 163.492 107.49 156.093 106.79C146.981 105.945 137.806 107.509 129.487 111.325C123.982 113.845 118.407 118.249 118.075 124.291C117.803 129.285 121.278 134.072 120.401 139.006C119.53 143.854 114.595 147.668 115.028 152.572C115.194 154.487 116.176 156.2 117.405 157.727C117.828 158.231 118.276 158.735 118.739 159.239C120.532 161.138 122.507 162.963 123.509 165.356C123.549 165.457 123.589 165.558 123.625 165.659C124.476 168.022 124.093 171.01 121.988 172.366C121.999 172.375 122.008 172.387 122.013 172.401C122.043 172.441 122.073 172.472 122.099 172.512C122.102 172.504 122.102 172.495 122.099 172.487C122.845 173.372 123.851 174 124.974 174.281L125.402 174.412C125.055 174.79 124.728 175.183 124.395 175.596L124.179 175.883C123.624 176.63 123.119 177.413 122.668 178.227C122.411 178.68 122.164 179.134 121.958 179.587C121.267 180.97 120.767 182.439 120.472 183.956C119.933 187.292 120.694 190.769 119.878 194.035C118.87 198.066 115.682 201.16 113.885 204.904C110.48 211.959 112.409 220.239 113.094 228.03C114.026 238.612 112.515 249.24 111.009 259.752C110.21 265.342 109.411 270.937 108.612 276.538C106.597 290.594 104.583 304.65 102.568 318.706C101.833 323.857 100.961 329.289 97.5318 333.265H97.567C97.567 333.265 97.5671 333.295 97.5318 333.305C98.5614 333.755 99.6563 334.038 100.775 334.142C105.252 334.59 109.997 332.423 114.026 330.055C117.216 328.21 120.238 326.087 123.056 323.71C122.643 325.222 122.199 326.87 121.726 328.644C121.728 328.661 121.728 328.677 121.726 328.694C116.04 350.363 106.894 390.088 106.894 390.088C106.894 390.088 106.063 391.816 104.985 394.391H247.008C245.346 392.376 243.8 390.446 242.591 388.888L242.102 388.188ZM136.946 187.826C136.981 187.766 137.006 187.71 137.041 187.655C137.041 187.816 137.041 187.973 137.041 188.124C137.041 188.275 137.041 188.411 137.041 188.552C137.041 188.693 137.041 188.678 137.041 188.749C137.041 188.819 137.041 188.749 137.041 188.749C137.041 188.955 136.996 189.162 136.961 189.368C136.961 189.368 136.961 189.394 136.961 189.414L137.464 189.6L138.048 189.842C141.5 191.206 144.995 192.441 148.534 193.546C148.897 193.662 149.264 193.773 149.632 193.879L149.707 194.503C149.798 195.143 149.884 195.793 149.964 196.444C149.964 196.444 149.964 196.474 149.964 196.494C150.191 198.293 150.412 200.087 150.609 201.841C150.609 201.841 141.362 198.313 141.478 203.67C141.473 203.766 141.473 203.861 141.478 203.957C141.468 204.085 141.468 204.213 141.478 204.34C141.564 208.513 142.868 210.987 143.13 212.257C143.114 212.309 143.087 212.358 143.049 212.398C142.826 212.884 142.749 213.425 142.828 213.955C142.819 214.856 142.89 215.757 143.039 216.646C142.767 216.812 142.5 216.979 142.234 217.15C142.032 217.276 141.841 217.417 141.644 217.558C140.409 213.27 138.792 209.101 136.815 205.101C135.43 202.249 133.873 199.276 133.888 196.146C133.888 195.945 133.889 195.738 133.914 195.531C133.97 194.624 134.142 193.728 134.427 192.866C134.543 192.538 134.669 192.216 134.81 191.898C135.139 191.144 135.507 190.407 135.913 189.691C136.175 189.217 136.452 188.749 136.719 188.275C136.804 188.134 136.885 187.988 136.966 187.847L136.946 187.826ZM363.073 77.6326C363.003 77.5116 362.952 77.3907 362.897 77.2798C362.897 77.2294 362.847 77.1891 362.827 77.1387C362.717 77.1905 362.604 77.236 362.489 77.2748C362.267 77.3605 362.041 77.4411 361.809 77.5066C361.577 77.5721 361.482 77.6074 361.306 77.6477L360.857 77.7636L360.898 77.8543C361.084 77.814 361.265 77.7787 361.452 77.7283L361.502 78.3532C361.713 78.3532 361.91 78.323 362.101 78.323H362.373C362.766 78.323 363.109 78.323 363.38 78.323C363.275 78.0962 363.164 77.8593 363.073 77.6326Z" fill="url(#paint1_linear_4_6)"/>
<path d="M253.031 151.649L250.009 152.985C250.009 152.985 230.313 229.552 230.313 235.74C230.313 241.928 272.078 276.361 272.078 276.361L278.595 232.348C278.595 232.348 269.238 131.417 253.031 151.649Z" fill="#E8F5FF"/>
<path d="M344.646 127.295L327.195 118.184C326.217 114.014 324.483 110.06 322.078 106.518C319.525 102.829 316.13 99.2057 311.9 97.3159C301.208 92.5186 357.125 67.3373 357.125 67.3373C358.006 70.3623 359.043 73.3395 360.233 76.2568C363.113 83.3723 367.893 92.574 374.052 95.1944C384.523 99.6542 344.646 127.295 344.646 127.295Z" fill="#FFB0B1"/>
<path opacity="0.1" d="M360.233 76.2568C357.843 84.6648 352.875 92.1094 346.029 97.5392C339.182 102.969 330.805 106.11 322.078 106.518C319.525 102.829 316.13 99.2057 311.9 97.3159C301.208 92.5186 357.125 67.3373 357.125 67.3373C358.006 70.3623 359.043 73.3395 360.233 76.2568Z" fill="black"/>
<path d="M361.804 63.5428C361.806 71.7889 359.364 79.8504 354.787 86.7077C350.21 93.565 343.703 98.9101 336.089 102.067C328.476 105.224 320.098 106.05 312.015 104.443C303.932 102.835 296.507 98.8644 290.679 93.0338C284.852 87.2033 280.883 79.7744 279.275 71.6868C277.667 63.5991 278.492 55.216 281.646 47.5976C284.8 39.9793 290.141 33.468 296.994 28.8872C303.847 24.3064 311.903 21.8619 320.144 21.8629C325.622 21.8376 331.05 22.8983 336.116 24.9839C341.181 27.0695 345.783 30.1385 349.657 34.0138C353.53 37.8892 356.598 42.494 358.683 47.5623C360.768 52.6306 361.829 58.062 361.804 63.5428Z" fill="#FFB0B1"/>
<path d="M367.817 121.943L356.456 148.47L346.433 166.077H314.352L304.995 142.004L308.787 117.04H333.289L349.108 116.148L354.451 114.364L357.896 116.319L367.817 121.943Z" fill="#575A89"/>
<path opacity="0.1" d="M363.904 86.5823C363.904 86.5823 370.99 88.0941 364.645 93.2997C358.299 98.5052 336.406 115.059 336.406 115.059C336.406 115.059 344.097 121.913 342.505 129.94L367.984 115.729L372.516 92.9923C372.516 92.9923 373.025 86.159 363.904 86.5823Z" fill="black"/>
<path opacity="0.1" d="M341.417 115.059L325.211 117.735C325.211 117.735 328.555 130.107 326.883 133.619C326.832 133.728 326.79 133.841 326.757 133.957L320.144 151.841L325.1 165.885L342.253 142.478L336.406 133.619C336.406 133.619 342.586 125.425 346.262 122.583C349.939 119.741 341.417 115.059 341.417 115.059Z" fill="black"/>
<path d="M341.417 114.369L325.211 117.04C325.211 117.04 328.555 129.411 326.883 132.923C326.832 133.033 326.79 133.146 326.757 133.261L320.144 151.145L325.1 165.19L342.253 141.767L336.406 132.908C336.406 132.908 342.586 124.714 346.262 121.872C349.939 119.03 341.417 114.369 341.417 114.369Z" fill="#DCE6F2"/>
<path d="M364.584 85.2469C364.584 85.2469 371.67 86.7587 365.319 91.9642C358.969 97.1698 336.406 115.059 336.406 115.059C336.406 115.059 344.761 120.577 343.175 128.6L368.653 114.394L373.186 91.6568C373.186 91.6568 373.69 84.8236 364.584 85.2469Z" fill="#575A89"/>
<path opacity="0.1" d="M323.191 108.095C323.191 108.095 324.737 110.988 331.562 116.203C331.562 116.203 320.2 122.25 324.546 130.752L307.166 126.216L304.492 117.856L323.191 108.095Z" fill="black"/>
<path d="M322.521 107.43C322.521 107.43 324.067 110.322 330.891 115.538C330.891 115.538 319.53 121.555 323.876 130.081L306.501 125.546L303.827 117.191L322.521 107.43Z" fill="#575A89"/>
<path opacity="0.1" d="M367.817 121.943L356.456 148.47L346.454 166.077H314.352L304.995 142.004L308.782 117.04H315.596C315.486 122.865 317.611 129.708 317.475 132.253C317.243 136.436 323.71 159.002 323.71 159.002C323.71 159.002 337.242 137.101 342.586 135.151C345.945 133.926 353.061 123.737 357.891 116.319L367.817 121.943Z" fill="black"/>
<path d="M412.575 261.536L411.421 262.987C411.421 262.987 419.776 304.949 417.465 314.479C417.072 316.196 416.847 317.948 416.795 319.709V319.785C416.387 329.48 419.313 342.063 419.313 342.063C419.313 342.063 421.65 379.153 420.32 394.406H263.884C262.968 371.851 261.981 342.628 262.877 339.388C264.388 334.041 267.41 314.645 267.41 314.645L267.742 305.453C267.742 305.453 267.742 296.569 268.014 286.672C268.13 282.222 268.301 277.551 268.548 273.408C268.865 268.198 269.308 263.809 269.918 261.652C270.293 260.017 270.509 258.35 270.562 256.673C270.562 256.517 270.562 256.356 270.593 256.194C270.593 255.69 270.643 255.146 270.663 254.587C270.663 254.431 270.663 254.274 270.663 254.083C270.759 250.838 270.723 246.988 270.618 242.996C270.618 242.78 270.618 242.558 270.618 242.336C270.532 239.343 270.406 236.289 270.265 233.387C269.827 224.316 269.258 216.646 269.258 216.646L250.045 152.95L255.222 140.19L269.59 131.382L296.157 115.331C309.115 104.673 317.646 105.953 320.9 107.122C321.216 107.23 321.525 107.357 321.826 107.5C321.927 107.551 322.008 107.591 322.083 107.636C322.187 107.685 322.286 107.743 322.38 107.808C321.489 108.237 320.715 108.875 320.124 109.667C319.458 110.569 318.983 111.598 318.729 112.691C318.559 113.368 318.439 114.057 318.371 114.752C318.306 115.483 318.281 116.239 318.281 116.999C318.317 118.668 318.46 120.333 318.709 121.983C318.709 122.014 318.709 122.054 318.709 122.094C318.875 123.273 319.082 124.427 319.283 125.511C319.281 125.529 319.281 125.548 319.283 125.566C319.515 126.831 319.746 128 319.902 129.008C319.933 129.189 319.958 129.356 319.983 129.512C320.094 130.178 320.146 130.852 320.139 131.528C320.196 133.158 320.415 134.779 320.794 136.365C320.925 137.031 321.076 137.741 321.242 138.482C321.469 139.49 321.716 140.588 321.982 141.707C322.128 142.322 322.285 142.957 322.446 143.587C322.506 143.839 322.572 144.091 322.632 144.348L322.733 144.746C323.806 149.014 324.969 153.262 325.684 155.832C326.107 157.344 326.374 158.276 326.374 158.276C326.374 158.276 333.959 146.005 340.012 139.021C340.103 138.92 340.183 138.825 340.269 138.734C340.868 138.043 341.458 137.414 342.022 136.859C343.256 135.63 344.364 134.753 345.255 134.43C345.445 134.361 345.629 134.275 345.804 134.173C348.282 132.767 352.281 127.663 356.022 122.316C356.39 121.812 356.748 121.263 357.11 120.744C357.941 119.544 358.747 118.34 359.508 117.186C360.092 116.304 360.651 115.447 361.18 114.631C363.698 110.71 365.471 107.788 365.471 107.788L368.966 107.631L369.575 107.601H369.983L385.852 106.865C385.852 106.865 386.537 106.981 387.665 107.208C387.726 107.208 387.786 107.208 387.852 107.248C393.482 108.367 409.125 111.91 410.082 116.823C411.25 122.84 436.482 130.868 436.482 130.868C436.814 134.899 442.994 137.555 442.994 137.555C442.994 137.555 452.351 162.297 449.848 171.993C447.375 181.568 456.284 205.252 456.521 205.917L454.814 208.074L412.575 261.536Z" fill="#E8F5FF"/>
<path opacity="0.1" d="M363.899 84.8237C363.899 84.8237 379.345 80.4395 382.856 89.4648C386.366 98.4902 394.217 134.939 394.217 134.939C394.217 134.939 373.831 138.784 368.487 134.939C365.353 132.657 361.474 131.642 357.624 132.097L346.096 139.953L342.692 138.945C342.692 138.945 361.134 111.512 365.143 102.189C369.152 92.8663 370.507 88.6989 363.899 84.8237Z" fill="black"/>
<path d="M363.229 82.8079C363.229 82.8079 378.686 78.4238 382.211 87.4491C385.736 96.4744 393.573 132.923 393.573 132.923C393.573 132.923 373.191 136.768 367.843 132.923C364.71 130.641 360.832 129.626 356.984 130.081L345.446 137.938L342.042 136.93C342.042 136.93 360.485 109.496 364.494 100.173C368.502 90.8506 369.837 86.6932 363.229 82.8079Z" fill="#E8F5FF"/>
<path opacity="0.1" d="M259.548 228.216C259.548 228.216 271.076 231.058 273.252 237.579C275.427 244.1 264.73 244.266 264.73 244.266C264.73 244.266 258.214 232.731 259.548 228.216Z" fill="black"/>
<path opacity="0.1" d="M302.487 276.361C302.487 276.361 274.254 334.207 280.771 339.725C287.288 345.243 302.487 276.361 302.487 276.361Z" fill="black"/>
<path opacity="0.1" d="M341.417 233.734C341.417 233.734 363.975 289.922 359.462 298.6C354.95 307.277 369.152 298.6 369.152 298.6L341.417 233.734Z" fill="black"/>
<path d="M372.829 289.237C372.829 289.237 296.64 292.915 318.865 316.655C341.09 340.395 386.699 317.663 386.699 317.663L372.829 289.237Z" fill="#FFB0B1"/>
<path opacity="0.1" d="M361.804 63.5427C361.811 69.0103 360.738 74.4255 358.646 79.4768C357.946 79.5575 357.246 79.6079 356.572 79.6381C355.564 77.4259 356.103 74.8709 356.123 72.437C356.143 70.003 355.247 67.1407 352.905 66.4856C348.237 65.1703 345.013 73.9034 340.41 72.3261C336.885 71.1268 337.806 65.7751 335.777 62.686C334.17 60.2419 330.952 59.5515 328.449 58.0196C323.126 54.7491 323.287 49.5183 320.814 44.5698C318.226 39.3844 312.756 40.9163 308.007 43.9752C304.401 46.3033 301.289 49.4226 297.431 51.2771C294.092 52.8896 290.34 53.4742 286.638 53.5599C284.359 53.6482 282.08 53.4072 279.869 52.8443C282.469 43.065 288.535 34.5657 296.935 28.9313C305.336 23.2968 315.498 20.912 325.526 22.2215C335.554 23.531 344.764 28.4454 351.438 36.0482C358.112 43.6511 361.795 53.4234 361.799 63.5427H361.804Z" fill="black"/>
<path d="M308.022 42.6399C304.411 44.968 301.304 48.0823 297.446 49.9468C294.107 51.5544 290.355 52.1389 286.653 52.2246C282.121 52.3254 277.241 51.5292 274.143 48.2536C271.298 45.2301 270.618 40.5788 271.822 36.6129C273.025 32.647 275.911 29.3564 279.3 26.9728C282.69 24.5892 286.623 22.9414 288.869 19.5298C290.058 17.7257 290.632 15.5992 291.619 13.6792C294.777 7.53631 301.878 4.21039 308.742 3.79717C315.607 3.38395 322.411 5.4299 328.948 7.64718C335.485 9.86446 342.072 12.3035 348.972 12.762C352.044 12.9535 355.237 12.762 358.088 13.9261C361.92 15.4832 364.433 19.2073 366.146 22.9968C368.064 27.2701 369.258 31.9365 369.057 36.6028C368.633 46.5655 362.056 56.3417 364.947 65.8861C365.712 68.4309 367.148 71.0413 366.382 73.5861C365.264 77.3 360.475 78.1466 356.602 78.323C355.595 76.1108 356.133 73.5508 356.154 71.1219C356.174 68.693 355.277 65.8256 352.94 65.1705C348.267 63.8653 345.044 72.5833 340.451 71.011C336.95 69.8066 337.857 64.46 335.822 61.3709C334.216 58.9218 330.993 58.2365 328.495 56.7045C323.171 53.434 323.332 48.2033 320.86 43.2547C318.251 38.0441 312.776 39.576 308.022 42.6399Z" fill="#575A89"/>
<path d="M234.145 234.399L230.302 235.74C230.302 235.74 231.813 258.477 226.777 264.998C221.741 271.519 243.316 287.73 243.316 287.73C243.316 287.73 272.889 287.564 273.725 285.21C274.561 282.857 272.214 243.082 272.214 243.082C272.214 243.082 256.34 236.894 257.675 227.032C257.675 227.032 252.83 250.268 245.648 249.265C238.466 248.262 230.313 242.261 234.145 234.399Z" fill="#E8F5FF"/>
<path opacity="0.1" d="M246.963 256.3C252.562 256.3 257.101 252.146 257.101 247.023C257.101 241.899 252.562 237.745 246.963 237.745C241.364 237.745 236.825 241.899 236.825 247.023C236.825 252.146 241.364 256.3 246.963 256.3Z" fill="black"/>
<path d="M258.047 235.07C258.047 235.07 256.033 173.55 238.497 187.257C220.96 200.964 220.789 217.357 224.128 222.199C227.467 227.042 238.174 251.286 238.174 251.286C239.849 252.257 241.73 252.818 243.663 252.921C245.596 253.025 247.526 252.669 249.295 251.882C251.064 251.095 252.621 249.901 253.84 248.395C255.058 246.89 255.903 245.118 256.305 243.223L258.047 235.07Z" fill="#FFB0B1"/>
<path opacity="0.1" d="M367.44 79.2401C367.358 78.9698 367.201 78.7285 366.986 78.5447C366.12 77.7535 364.257 77.4763 361.447 77.7182L361.562 79.0486C365.309 78.7261 366.05 79.4719 366.145 79.5979V79.7238L366.261 79.8901C366.728 80.5184 367.059 81.2374 367.233 82.001C367.406 82.7646 367.418 83.5561 367.268 84.3247C366.448 88.4317 361.406 91.7022 361.356 91.7375L361.235 91.808L361.159 91.9239C358.984 95.1541 346.68 104.27 343.462 106.629L343.18 106.306C341.74 107.556 329.079 118.647 328.394 122.895C327.95 125.561 324.949 126.594 323.861 126.881C322.713 126.01 318.986 123.041 317.047 119.716C315.229 116.586 322.547 110.479 323.191 108.095L322.184 107.062C322.078 107.445 312.68 116.233 315.294 120.723C317.389 124.326 321.217 127.411 322.557 128.428C322.128 132.319 319.464 155.162 315.37 160.574C310.283 167.301 306.007 201.206 306.481 213.043C306.899 223.56 304.154 243.425 294.988 251.956C293.401 253.498 291.487 254.661 289.388 255.359C287.289 256.057 285.059 256.272 282.866 255.988H282.755H282.644C282.513 255.988 269.218 257.348 258.047 247.925C248.906 240.23 243.729 227.672 242.651 210.589H242.43L242.339 205.615C244.818 205.228 247.05 203.895 248.566 201.896C250.083 199.896 250.766 197.387 250.472 194.894C250.178 192.402 248.931 190.12 246.991 188.529C245.051 186.937 242.57 186.16 240.07 186.361C237.569 186.561 235.244 187.724 233.582 189.604C231.92 191.484 231.052 193.935 231.158 196.443C231.265 198.951 232.339 201.319 234.154 203.051C235.97 204.783 238.385 205.744 240.894 205.731H241.005L241.095 210.674L240.652 210.705C241.76 228.342 247.199 241.389 256.768 249.447C264.041 255.477 273.331 258.519 282.76 257.958C283.429 258.031 284.102 258.068 284.775 258.069C289.097 258.091 293.255 256.418 296.358 253.407C306.013 244.412 308.949 223.817 308.49 212.942C307.987 200.399 312.474 167.715 316.976 161.763C321.388 155.923 324.062 133.165 324.531 128.756C326.127 128.307 329.738 126.891 330.353 123.213C330.796 120.552 339.252 112.353 344.454 107.813L344.298 107.631C347.098 105.585 355.806 99.1351 360.122 94.9928C361.462 93.7078 362.791 92.4228 364.181 91.1983C365.853 89.7167 367.979 87.3634 368.538 84.5817C368.728 83.6635 368.729 82.716 368.54 81.7974C368.351 80.8788 367.977 80.0085 367.44 79.2401Z" fill="black"/>
<path d="M322.385 128.111C322.174 127.965 317.158 124.372 314.645 120.048C312.036 115.558 321.434 106.775 321.534 106.392L322.542 107.425C321.902 109.803 314.584 115.916 316.402 119.04C318.694 122.986 323.519 126.438 323.569 126.473L322.385 128.111Z" fill="#353146"/>
<path d="M342.807 107.606L342.022 106.523C342.183 106.407 358.002 94.9577 360.495 91.2538L360.575 91.143L360.691 91.0674C360.742 91.0321 365.783 87.7666 366.604 83.6546C366.755 82.8868 366.744 82.0959 366.57 81.3328C366.397 80.5698 366.065 79.8517 365.597 79.2251L365.481 79.0537V78.9328C365.38 78.8018 364.64 78.061 360.893 78.3835L360.777 77.0481C363.592 76.8062 365.45 77.0834 366.317 77.8745C366.532 78.0602 366.691 78.303 366.775 78.575C367.32 79.3412 367.702 80.2109 367.897 81.1304C368.093 82.05 368.098 82.9999 367.913 83.9217C367.354 86.7084 365.234 89.0617 363.557 90.5382C362.172 91.7628 360.837 93.0579 359.503 94.3328C354.441 99.1856 343.361 107.208 342.807 107.606Z" fill="#E8F5FF"/>
<path d="M241.689 203.861L240.355 203.885L240.504 212.002L241.838 211.978L241.689 203.861Z" fill="#E8F5FF"/>
<path d="M240.244 205.091C245.626 205.091 249.989 200.725 249.989 195.34C249.989 189.955 245.626 185.589 240.244 185.589C234.862 185.589 230.499 189.955 230.499 195.34C230.499 200.725 234.862 205.091 240.244 205.091Z" fill="#587EEC"/>
<path d="M240.244 203.438C244.714 203.438 248.337 199.812 248.337 195.34C248.337 190.867 244.714 187.242 240.244 187.242C235.774 187.242 232.151 190.867 232.151 195.34C232.151 199.812 235.774 203.438 240.244 203.438Z" fill="#E8F5FF"/>
<path d="M284.14 257.419C283.467 257.42 282.795 257.384 282.126 257.313C272.697 257.868 263.409 254.827 256.133 248.802C246.565 240.739 241.135 227.707 240.017 210.055L242.032 209.929C243.11 227.012 248.287 239.575 257.433 247.265C268.603 256.663 281.894 255.327 282.025 255.327H282.136H282.246C284.441 255.61 286.67 255.395 288.77 254.697C290.87 253.999 292.785 252.837 294.374 251.296C303.535 242.764 306.279 222.9 305.861 212.383C305.358 200.535 309.634 166.631 314.725 159.909C319.182 154.018 321.947 127.466 321.977 127.199L322.053 126.443L322.798 126.312C322.844 126.312 327.195 125.485 327.739 122.23C328.444 117.987 341.085 106.896 342.52 105.641L343.835 107.153C338.612 111.688 330.156 119.892 329.733 122.558C329.119 126.246 325.508 127.657 323.916 128.101C323.413 132.515 320.759 155.268 316.362 161.108C311.86 167.059 307.372 199.744 307.876 212.287C308.309 223.162 305.403 243.762 295.749 252.752C292.64 255.77 288.471 257.446 284.14 257.419Z" fill="#353146"/>
<g opacity="0.1">
<path opacity="0.1" d="M366.095 51.6299C366.921 48.5761 367.918 45.5021 368.613 42.408C367.782 45.5173 366.78 48.5761 366.095 51.6299Z" fill="black"/>
<path opacity="0.1" d="M357.669 75.6269C356.662 73.4147 357.201 70.8548 357.221 68.4258C357.241 65.9969 356.345 63.1547 354.008 62.4744C349.334 61.1693 346.111 69.8923 341.518 68.315C337.993 67.1106 338.924 61.7639 336.89 58.6748C335.283 56.2257 332.065 55.5404 329.567 54.0085C324.239 50.738 324.4 45.5072 321.932 40.5586C319.338 35.3682 313.874 36.9001 309.12 39.964C305.509 42.2921 302.402 45.4115 298.544 47.2709C295.205 48.8785 291.453 49.463 287.751 49.5487C283.244 49.6545 278.338 48.8533 275.241 45.5778C272.854 43.0581 271.993 39.3643 272.486 35.9023C272.401 36.1392 272.325 36.376 272.249 36.6129C271.041 40.5788 271.746 45.2401 274.571 48.2536C277.669 51.5291 282.574 52.3253 287.081 52.2246C290.788 52.1389 294.535 51.5543 297.879 49.9468C301.747 48.0823 304.854 44.968 308.455 42.6399C313.209 39.576 318.679 38.044 321.267 43.2345C323.735 48.1831 323.579 53.4138 328.902 56.6843C331.42 58.1961 334.618 58.9016 336.23 61.3507C338.245 64.4498 337.353 69.7864 340.858 70.9908C345.446 72.5631 348.67 63.8451 353.343 65.1503C355.68 65.8054 356.582 68.6778 356.556 71.1017C356.531 73.5256 356.007 76.0906 357.005 78.3028C360.877 78.1264 365.667 77.2949 366.79 73.5659C366.945 73.0307 367.016 72.4749 367.002 71.918C365.365 74.7451 361.154 75.4707 357.669 75.6269Z" fill="black"/>
</g>
<path opacity="0.1" d="M448.69 199.795L454.537 205.983C454.537 205.983 459.216 240.084 461.552 243.274C463.889 246.463 469.409 259.152 464.227 268.682C464.227 268.682 462.555 273.867 463.557 276.039C464.559 278.211 456.043 289.081 456.043 289.081C456.043 289.081 444.847 299.109 442.505 300.615C440.163 302.122 427.804 314.156 423.629 314.322C419.454 314.489 418.089 319.674 418.089 319.674L394.53 320.511C394.53 320.511 381.516 319.83 378.686 321.67C378.686 321.67 380.197 301.774 365.657 288.733L384.201 282.046C384.201 282.046 391.221 279.022 393.392 275.863C394.757 273.925 396.694 272.465 398.932 271.685C398.932 271.685 404.109 268.006 404.275 266.001C404.441 263.995 410.606 261.536 410.606 261.536L407.115 231.729L408.954 182.243C408.954 182.243 414.801 140.78 427.165 143.123C439.529 145.466 448.69 199.795 448.69 199.795Z" fill="black"/>
<path d="M450.704 199.795L456.551 205.983C456.551 205.983 461.23 240.084 463.567 243.274C465.903 246.463 471.423 259.152 466.241 268.682C466.241 268.682 464.574 273.867 465.576 276.039C466.578 278.211 458.057 289.081 458.057 289.081C458.057 289.081 446.861 299.109 444.52 300.615C442.178 302.122 429.819 314.156 425.644 314.322C421.469 314.489 420.104 319.674 420.104 319.674L396.544 320.511C396.544 320.511 383.52 319.83 380.7 321.67C380.7 321.67 382.211 301.774 367.671 288.733L386.215 282.046C386.215 282.046 393.235 279.022 395.406 275.863C396.772 273.925 398.709 272.465 400.946 271.685C400.946 271.685 406.123 268.006 406.289 266.001C406.456 263.995 412.62 261.536 412.62 261.536L409.13 231.729L410.968 182.243C410.968 182.243 416.815 140.78 429.179 143.123C441.543 145.466 450.704 199.795 450.704 199.795Z" fill="#E8F5FF"/>
<path opacity="0.1" d="M428.968 249.784C428.968 249.784 446.176 245.249 450.689 250.792C455.201 256.335 428.968 249.784 428.968 249.784Z" fill="black"/>
<path opacity="0.1" d="M424.959 257.389C430.806 261.485 448.851 261.652 448.851 261.652L424.959 257.389Z" fill="black"/>
<path opacity="0.1" d="M433.812 277.868C434.316 278.034 446.217 290.744 451.213 286.899C456.209 283.054 433.812 277.868 433.812 277.868Z" fill="black"/>
<path opacity="0.1" d="M273.539 171.207C273.539 171.207 277.034 195.285 275.312 205.091C273.589 214.897 279.874 227.047 279.874 227.047L273.539 171.207Z" fill="black"/>
<path d="M196.162 180.998C192.133 184.158 189.192 191.636 187.061 199.855C183.345 214.192 182.131 230.816 182.131 230.816C182.131 230.816 150.05 223.459 152.387 220.118C153.857 218.017 151.883 202.183 150.236 190.704C149.254 183.921 148.378 178.655 148.378 178.655C148.378 178.655 207.191 172.3 196.162 180.998Z" fill="#FFB0B1"/>
<path opacity="0.1" d="M196.162 180.328C192.133 183.493 189.192 190.966 187.061 199.185C180.67 201.127 173.872 201.302 167.389 199.692C160.905 198.082 154.978 194.746 150.236 190.039C149.254 183.251 148.378 177.985 148.378 177.985C148.378 177.985 207.191 171.635 196.162 180.328Z" fill="black"/>
<path d="M213.406 162.318C213.409 171.082 210.314 179.566 204.667 186.267C199.02 192.967 191.186 197.453 182.552 198.93C173.917 200.407 165.039 198.78 157.488 194.337C149.938 189.894 144.201 182.921 141.294 174.653C138.388 166.385 138.498 157.354 141.605 149.159C144.713 140.964 150.618 134.134 158.275 129.877C165.932 125.619 174.847 124.209 183.443 125.897C192.038 127.584 199.76 132.26 205.242 139.097C210.524 145.682 213.404 153.873 213.406 162.318Z" fill="#FFB0B1"/>
<path opacity="0.1" d="M242.656 394.406H232.08L231.189 375.716L230.257 356.37C230.257 356.37 232.659 356.012 236.487 355.478L238.033 355.271H238.159C238.995 359.197 239.821 363.228 240.617 367.255C241.941 374.403 242.63 381.654 242.676 388.924C242.676 389.428 242.676 389.932 242.676 390.405C242.707 391.751 242.676 393.096 242.656 394.406Z" fill="black"/>
<path d="M240.627 394.406H107.992C108.566 393.101 108.949 392.31 108.949 392.31C108.949 392.31 119.56 345.858 124.954 326.205C124.956 326.188 124.956 326.171 124.954 326.154C125.628 323.485 126.442 320.852 127.392 318.268C127.453 318.092 127.532 317.923 127.628 317.764C130.298 313.42 133.642 308.739 128.963 302.052C124.284 295.365 125.941 265.94 125.941 265.94C125.941 265.94 131.622 240.86 137.636 227.486C138.548 225.414 139.843 223.533 141.453 221.942C141.976 221.43 142.535 220.955 143.125 220.521C143.574 220.184 144.041 219.873 144.525 219.589L144.621 219.528C147.147 218.095 149.952 217.224 152.845 216.974C154.9 216.759 156.974 216.816 159.014 217.145C168.765 218.576 176.571 220.97 182.775 223.696C199.591 231.089 204.683 240.996 204.784 241.202L204.824 241.288C205.499 242.865 215.37 265.925 218.926 276.684C219.847 279.486 220.351 281.456 220.149 281.995C219.142 284.666 227.835 318.102 227.835 318.102C227.835 318.102 231.864 334.227 235.893 353.13C236.069 353.916 236.235 354.702 236.396 355.498C237.117 358.93 237.832 362.427 238.522 365.919C239.859 373.117 240.548 380.419 240.582 387.739C240.655 390.021 240.671 392.243 240.627 394.406Z" fill="#EB5569"/>
<path opacity="0.1" d="M152.054 205.474C152.054 205.474 142.903 201.946 143.014 207.298C143.125 212.65 145.245 215.21 144.575 215.991C143.906 216.772 144.908 221.453 144.908 221.453C144.908 221.453 157.272 221.453 162.953 224.013C168.634 226.573 189.574 231.703 192.249 233.266C194.923 234.828 204.839 241.832 204.839 241.832L205.731 228.569C205.731 228.569 195.482 220.098 178.666 215.754C161.85 211.41 152.054 205.474 152.054 205.474Z" fill="black"/>
<path d="M152.054 204.804C152.054 204.804 142.903 201.276 143.014 206.628C143.125 211.98 145.245 214.54 144.575 215.321C143.906 216.102 144.908 220.783 144.908 220.783C144.908 220.783 157.272 220.783 162.953 223.348C168.634 225.913 189.574 231.038 192.249 232.595C194.923 234.152 204.839 241.162 204.839 241.162L205.741 227.939C205.741 227.939 195.492 219.468 178.676 215.124C161.86 210.78 152.054 204.804 152.054 204.804Z" fill="#EB5569"/>
<path opacity="0.1" d="M179.678 236.722C179.678 236.722 197.164 255.665 196.273 260.911C195.381 266.157 179.678 236.722 179.678 236.722Z" fill="black"/>
<path opacity="0.1" d="M151.274 305.151C151.274 305.151 138.456 316.968 134.679 317.638C130.902 318.308 137.575 320.536 141.916 318.757C146.258 316.978 155.514 312.297 155.514 312.297L151.274 305.151Z" fill="black"/>
<path d="M245.834 394.406H215.944C211.764 390.778 207.811 387.417 205.292 385.396C201.263 382.161 198.357 377.399 196.504 373.569C196.086 372.697 195.724 371.881 195.416 371.14C194.866 369.864 194.382 368.561 193.966 367.235L216.1 354.082C217.323 355.123 218.473 356.248 219.54 357.448L219.807 357.756C221.036 359.207 222.119 360.855 222.214 362.206C222.325 363.778 226.697 369.86 231.164 375.701C235.696 381.642 240.34 387.321 240.647 387.704C240.647 387.704 241.412 388.747 242.661 390.35C243.543 391.509 244.631 392.9 245.834 394.406Z" fill="#FFB0B1"/>
<path opacity="0.1" d="M205.242 139.097C204.18 141.495 203.228 143.985 203.087 146.656C202.689 154.366 203.333 171.605 194.802 175.475C190.577 177.38 186.054 173.197 181.421 173.097C178.087 173.026 175.03 175.143 172.995 177.788C170.96 180.434 169.696 183.573 168.221 186.567C166.877 189.284 165.33 191.895 163.592 194.377C163.073 195.137 162.501 195.86 161.88 196.539C156.678 194.343 152.046 190.987 148.336 186.728C144.626 182.469 141.937 177.419 140.473 171.962C139.01 166.505 138.81 160.787 139.89 155.241C140.97 149.696 143.3 144.47 146.704 139.963C150.108 135.455 154.496 131.784 159.532 129.23C164.568 126.676 170.121 125.306 175.767 125.225C181.412 125.143 187.002 126.352 192.11 128.76C197.218 131.167 201.71 134.709 205.242 139.117V139.097Z" fill="black"/>
<path d="M202.417 145.295C202.014 153.005 202.664 170.244 194.127 174.109C189.902 176.014 185.379 171.837 180.746 171.736C177.412 171.66 174.36 173.782 172.32 176.422C170.281 179.063 169.026 182.208 167.546 185.206C166.202 187.923 164.655 190.534 162.918 193.017C161.88 194.488 160.732 195.965 159.135 196.791C156.355 198.243 152.986 197.426 150.005 196.494C146.137 195.274 142.326 193.9 138.572 192.372C138.658 191.805 138.702 191.232 138.703 190.658C138.592 190.87 138.472 191.067 138.351 191.278L138.114 191.691C137.686 192.447 137.268 193.203 136.885 193.979C136.739 194.277 136.598 194.584 136.472 194.891C135.966 196.035 135.648 197.254 135.53 198.5C135.274 201.861 136.93 205.051 138.401 208.074C144.057 219.77 147.552 233.447 143.296 245.718C141.453 251.054 138.26 255.796 135.928 260.951C131.852 270.082 130.652 280.238 132.488 290.068C133.652 296.176 135.984 302.223 135.409 308.416C134.402 319.074 125.216 327.006 116.015 332.459C111.044 335.391 104.96 338.002 99.6823 335.684C103.047 331.753 103.913 326.316 104.638 321.186C106.622 307.193 108.612 293.194 110.606 279.188C111.402 273.615 112.196 268.042 112.988 262.468C114.469 251.996 115.97 241.409 115.043 230.872C114.368 223.106 112.464 214.862 115.829 207.832C117.606 204.108 120.774 201.024 121.761 197.013C122.572 193.753 121.817 190.285 122.35 186.965C122.643 185.454 123.137 183.989 123.821 182.611C124.692 180.74 125.828 179.005 127.195 177.461C125.846 177.067 124.587 176.528 123.821 175.399C125.987 173.988 126.314 170.809 125.332 168.42C124.35 166.031 122.386 164.212 120.618 162.328C118.85 160.443 117.148 158.246 116.926 155.676C116.498 150.783 121.384 146.993 122.245 142.165C123.116 137.252 119.671 132.475 119.948 127.501C120.271 121.489 125.79 117.12 131.239 114.586C139.463 110.777 148.546 109.212 157.569 110.05C164.912 110.746 172.018 113.018 179.341 113.9C183.758 114.404 188.235 114.454 192.621 115.231C197.008 116.007 201.405 117.644 204.492 120.864C212.63 129.356 202.88 136.345 202.417 145.295Z" fill="#575A89"/>
<path opacity="0.1" d="M195.608 373.574C193.039 372.46 188.366 373.126 180.343 370.681C172.32 368.237 170.774 357.191 170.774 357.191V357.156C170.678 356.904 169.933 355.261 164.887 349.506C159.311 343.152 147.26 311.057 147.26 311.057C147.26 311.057 136.573 299.572 136.91 295.339C137.248 291.106 135.011 279.844 135.233 267.245C135.455 254.647 159.291 246.292 159.291 246.292C205.187 238.154 194.379 291.096 193.155 295.107C191.931 299.119 198.282 309.953 198.282 309.953C197.385 314.67 201.958 321.972 201.958 321.972C201.958 321.972 203.066 328.432 203.293 330.886C203.306 331 203.331 331.111 203.369 331.219C204.104 333.532 210.097 335.628 212.535 336.903C215.098 338.244 223.342 349.945 223.342 349.945C225.12 358.537 198.166 374.703 195.608 373.574Z" fill="black"/>
<path d="M196.942 371.558C194.379 370.44 189.7 371.11 181.683 368.661C173.665 366.212 172.114 355.176 172.114 355.176V355.14C172.023 354.883 171.273 353.246 166.226 347.491C160.651 341.136 148.599 309.036 148.599 309.036C148.599 309.036 137.913 297.556 138.245 293.324C138.577 289.091 136.351 277.828 136.573 265.24C136.795 252.652 160.616 244.301 160.616 244.301C206.511 236.163 195.704 289.106 194.48 293.117C193.256 297.128 199.607 307.963 199.607 307.963C198.71 312.679 203.283 319.981 203.283 319.981C203.283 319.981 204.391 326.442 204.623 328.896C204.631 329.009 204.655 329.121 204.693 329.228C205.429 331.541 211.422 333.638 213.864 334.913C216.423 336.248 224.672 347.954 224.672 347.954C226.46 356.531 199.506 372.697 196.942 371.558Z" fill="#EB5569"/>
<path opacity="0.1" d="M161.522 271.942C161.522 271.942 181.572 293.107 186.804 293.107C192.037 293.107 161.522 271.942 161.522 271.942Z" fill="black"/>
<path d="M196.942 371.558C194.379 370.44 189.7 371.11 181.682 368.661C173.665 366.212 172.114 355.176 172.114 355.176V355.14C177.427 351.613 190.884 341.65 196.187 338.007C199.919 335.452 202.966 331.698 204.749 329.208C205.484 331.521 211.477 333.618 213.92 334.893C216.478 336.228 224.727 347.934 224.727 347.934C226.46 356.531 199.506 372.697 196.942 371.558Z" fill="#FF748E"/>
<g opacity="0.1">
<path opacity="0.1" d="M123.851 175.455C123.876 175.495 123.912 175.531 123.942 175.571C124.093 175.379 124.249 175.188 124.41 175.006C124.239 175.173 124.051 175.324 123.851 175.455Z" fill="black"/>
<path opacity="0.1" d="M135.535 198.555C135.747 195.758 137.243 193.294 138.643 190.835C137.726 190.482 136.81 190.124 135.903 189.751C135.989 189.186 136.033 188.615 136.034 188.043C134.619 190.563 133.078 193.042 132.861 195.879C132.604 199.245 134.261 202.43 135.732 205.454C141.393 217.145 144.883 230.821 140.627 243.097C138.779 248.429 135.591 253.176 133.259 258.331C129.184 267.46 127.986 277.615 129.824 287.443C130.978 293.555 133.314 299.598 132.74 305.791C131.733 316.449 122.552 324.381 113.346 329.828C109.584 332.055 105.187 334.096 100.982 333.95C100.592 334.577 100.158 335.175 99.6823 335.739C104.965 338.072 111.044 335.447 116.015 332.504C125.226 327.062 134.427 319.15 135.435 308.472C136.009 302.278 133.672 296.236 132.514 290.124C130.675 280.297 131.87 270.143 135.938 261.012C138.255 255.862 141.478 251.11 143.306 245.778C147.562 233.502 144.067 219.826 138.411 208.135C136.946 205.091 135.279 201.921 135.535 198.555Z" fill="black"/>
<path opacity="0.1" d="M204.482 120.925C203.986 120.416 203.454 119.945 202.89 119.514C208.994 127.436 200.181 134.168 199.743 142.695C199.35 150.405 199.994 167.649 191.458 171.509C187.238 173.419 182.71 169.236 178.082 169.136C174.743 169.065 171.691 171.187 169.651 173.827C167.611 176.468 166.357 179.612 164.882 182.606C163.535 185.322 161.987 187.933 160.248 190.416C159.241 191.893 158.062 193.364 156.461 194.196C153.691 195.642 150.322 194.831 147.335 193.894C144.431 192.98 141.554 191.972 138.703 190.87C138.697 191.395 138.654 191.919 138.572 192.437C142.329 193.969 146.142 195.343 150.01 196.559C152.991 197.497 156.36 198.308 159.135 196.862C160.732 196.03 161.89 194.554 162.922 193.077C164.662 190.597 166.209 187.988 167.551 185.271C169.031 182.278 170.28 179.129 172.325 176.488C174.37 173.847 177.417 171.731 180.751 171.801C185.384 171.902 189.912 176.085 194.132 174.175C202.669 170.315 202.019 153.07 202.417 145.36C202.88 136.395 212.63 129.411 204.482 120.925Z" fill="black"/>
</g>
<path opacity="0.1" d="M138.119 191.697C137.691 192.452 137.273 193.208 136.89 193.984C136.744 194.282 136.603 194.589 136.477 194.896C133.838 192.236 127.412 185.911 123.826 183.951C124.698 182.081 125.834 180.347 127.2 178.801C127.2 178.801 135.747 183.321 138.119 191.697Z" fill="black"/>
<path d="M138.356 191.283C136.376 182.319 127.2 177.466 127.2 177.466C125.833 179.011 124.697 180.745 123.826 182.616C127.608 184.687 134.579 191.631 136.89 193.984L138.356 191.283Z" fill="#EB5569"/>
<defs>
<linearGradient id="paint0_linear_4_6" x1="368.094" y1="48.0722" x2="368.094" y2="38.81" gradientUnits="userSpaceOnUse">
<stop stop-color="#808080" stop-opacity="0.25"/>
<stop offset="0.54" stop-color="#808080" stop-opacity="0.12"/>
<stop offset="1" stop-color="#808080" stop-opacity="0.1"/>
</linearGradient>
<linearGradient id="paint1_linear_4_6" x1="231050" y1="331838" x2="231050" y2="23136.5" gradientUnits="userSpaceOnUse">
<stop stop-color="#808080" stop-opacity="0.25"/>
<stop offset="0.54" stop-color="#808080" stop-opacity="0.12"/>
<stop offset="1" stop-color="#808080" stop-opacity="0.1"/>
</linearGradient>
</defs>
</svg>
