<svg width="68" height="73" viewBox="0 0 68 73" fill="none" xmlns="http://www.w3.org/2000/svg">
<path d="M33.7249 0.638062C27.8872 0.638062 24.393 1.52422 22.1719 2.62914C21.06 3.18298 20.2705 3.76452 19.7396 4.35991C19.2059 4.95529 18.8695 5.83037 18.8695 5.83037C18.7824 6.05277 18.7244 6.28547 18.6972 6.52268L17.2183 25.4753C17.1989 25.5916 17.2378 25.7799 17.2183 25.9073L17.046 27.8125C17.0298 27.9848 17.0298 28.1581 17.046 28.3304C17.046 37.4688 24.5515 44.9457 33.7249 44.9457C42.8983 44.9457 50.4038 37.4688 50.4038 28.3304V27.8984C50.4042 27.8698 50.4042 27.8411 50.4038 27.8125L48.7526 6.52268C48.7253 6.28547 48.6674 6.05277 48.5802 5.83037C48.5802 5.83037 48.2438 4.95529 47.7101 4.35991C47.1792 3.76175 46.3897 3.18022 45.2778 2.62914C43.0567 1.52145 39.5625 0.638062 33.7249 0.638062ZM33.7249 44.9457C15.3781 44.9457 0.367065 53.547 0.367065 61.3008V72.6381H67.0827V61.3008C67.0827 53.9347 53.5116 45.8208 36.4185 45.0316C35.5219 44.9726 34.6235 44.944 33.7249 44.9457ZM33.7249 6.17652C39.0065 6.17652 41.6446 7.00729 42.7593 7.56114C43.1318 7.74668 43.1762 7.81868 43.2819 7.90729L44.4105 22.0996C41.853 22.2547 38.3672 22.7919 33.7249 22.7919C29.0826 22.7919 25.5995 22.2547 23.0392 22.0996L24.1679 7.90729C24.2707 7.81868 24.318 7.74668 24.6905 7.56114C25.8052 7.00729 28.4432 6.17652 33.7249 6.17652ZM31.4649 8.94575V12.2356H28.1652V16.7356H31.4676V20.0227H35.9821V16.7328H39.2845V12.2356H35.9821V8.94575H31.4676H31.4649ZM25.3854 51.1765L32.5101 67.0996H5.9267V61.3008C5.9267 59.2377 13.0152 53.1953 25.3854 51.1765ZM42.0643 51.1765C54.4345 53.1981 61.523 59.2377 61.523 61.3008V67.0996H34.9396L42.0643 51.1765Z" fill="currentColor"/>
</svg>
